<?xml version="1.0" encoding="UTF-8"?>
<svg xmlns="http://www.w3.org/2000/svg" xmlns:xlink="http://www.w3.org/1999/xlink" viewBox="0 0 449.61 466.45">
  <defs>
    <style>
      .cls-1, .cls-2, .cls-3, .cls-4, .cls-5, .cls-6, .cls-7, .cls-8, .cls-9, .cls-10, .cls-11, .cls-12, .cls-13, .cls-14, .cls-15, .cls-16, .cls-17, .cls-18, .cls-19, .cls-20, .cls-21, .cls-22, .cls-23, .cls-24, .cls-25, .cls-26, .cls-27, .cls-28, .cls-29, .cls-30, .cls-31, .cls-32, .cls-33, .cls-34, .cls-35, .cls-36, .cls-37, .cls-38, .cls-39, .cls-40, .cls-41, .cls-42, .cls-43, .cls-44, .cls-45, .cls-46, .cls-47, .cls-48, .cls-49 {
        stroke-width: 0px;
      }

      .cls-1, .cls-2, .cls-50, .cls-30, .cls-39, .cls-51, .cls-52 {
        mix-blend-mode: multiply;
      }

      .cls-1, .cls-48 {
        fill: #6986d9;
      }

      .cls-2 {
        fill: url(#linear-gradient-16);
      }

      .cls-3 {
        fill: url(#linear-gradient-15);
      }

      .cls-3, .cls-4, .cls-53, .cls-40 {
        mix-blend-mode: screen;
      }

      .cls-3, .cls-29, .cls-30, .cls-40 {
        opacity: .4;
      }

      .cls-4, .cls-44 {
        fill: #fff;
      }

      .cls-5 {
        fill: url(#linear-gradient);
      }

      .cls-6 {
        fill: url(#linear-gradient-33);
      }

      .cls-7 {
        fill: url(#linear-gradient-29);
      }

      .cls-8 {
        fill: url(#linear-gradient-32);
      }

      .cls-9 {
        fill: url(#linear-gradient-30);
      }

      .cls-10 {
        fill: url(#linear-gradient-31);
      }

      .cls-11 {
        fill: url(#linear-gradient-34);
      }

      .cls-12 {
        fill: url(#linear-gradient-35);
      }

      .cls-13 {
        fill: url(#linear-gradient-28);
      }

      .cls-14 {
        fill: url(#linear-gradient-25);
      }

      .cls-15 {
        fill: url(#linear-gradient-11);
      }

      .cls-16 {
        fill: url(#linear-gradient-12);
      }

      .cls-17 {
        fill: url(#linear-gradient-13);
      }

      .cls-18 {
        fill: url(#linear-gradient-10);
      }

      .cls-19 {
        fill: url(#linear-gradient-19);
      }

      .cls-20 {
        fill: url(#linear-gradient-23);
      }

      .cls-21 {
        fill: url(#linear-gradient-21);
      }

      .cls-22 {
        fill: url(#linear-gradient-18);
      }

      .cls-23 {
        fill: url(#linear-gradient-14);
      }

      .cls-24 {
        fill: url(#linear-gradient-22);
      }

      .cls-25 {
        fill: url(#linear-gradient-20);
      }

      .cls-26 {
        fill: url(#linear-gradient-27);
      }

      .cls-27 {
        fill: url(#linear-gradient-24);
      }

      .cls-28 {
        fill: url(#linear-gradient-26);
      }

      .cls-29, .cls-39, .cls-42 {
        fill: #90b4fe;
      }

      .cls-30 {
        fill: url(#linear-gradient-17);
      }

      .cls-54, .cls-39, .cls-51, .cls-49 {
        opacity: .5;
      }

      .cls-31 {
        fill: url(#linear-gradient-4);
      }

      .cls-32 {
        fill: url(#linear-gradient-2);
      }

      .cls-33 {
        fill: url(#linear-gradient-3);
      }

      .cls-34 {
        fill: url(#linear-gradient-8);
      }

      .cls-35 {
        fill: url(#linear-gradient-9);
      }

      .cls-36 {
        fill: url(#linear-gradient-7);
      }

      .cls-37 {
        fill: url(#linear-gradient-5);
      }

      .cls-38 {
        fill: url(#linear-gradient-6);
      }

      .cls-55 {
        isolation: isolate;
      }

      .cls-40, .cls-45 {
        fill: #ffe87d;
      }

      .cls-52 {
        opacity: .6;
      }

      .cls-41 {
        fill: #bbd2fe;
      }

      .cls-43 {
        fill: #8fb3ff;
      }

      .cls-46 {
        fill: #ffa81d;
      }

      .cls-47 {
        fill: #ffc430;
      }

      .cls-49 {
        fill: #e1e7ff;
        mix-blend-mode: overlay;
      }
    </style>
    <linearGradient id="linear-gradient" x1="340.5" y1="24.27" x2="340.5" y2="81.88" gradientUnits="userSpaceOnUse">
      <stop offset="0" stop-color="#6986d9"/>
      <stop offset="1" stop-color="#8fb3ff"/>
    </linearGradient>
    <linearGradient id="linear-gradient-2" x1="359.95" y1="24.27" x2="359.95" y2="81.88" xlink:href="#linear-gradient"/>
    <linearGradient id="linear-gradient-3" x1="414.33" x2="414.33" xlink:href="#linear-gradient"/>
    <linearGradient id="linear-gradient-4" x1="426.27" y1="24.27" x2="426.27" y2="81.88" xlink:href="#linear-gradient"/>
    <linearGradient id="linear-gradient-5" x1="328.56" y1="24.27" x2="328.56" y2="81.88" xlink:href="#linear-gradient"/>
    <linearGradient id="linear-gradient-6" x1="394.89" y1="24.27" x2="394.89" y2="81.88" xlink:href="#linear-gradient"/>
    <linearGradient id="linear-gradient-7" y1="194.04" y2="130.72" xlink:href="#linear-gradient"/>
    <linearGradient id="linear-gradient-8" x1="359.95" y1="194.04" x2="359.95" y2="130.72" xlink:href="#linear-gradient"/>
    <linearGradient id="linear-gradient-9" x1="414.33" y1="194.04" x2="414.33" y2="130.72" xlink:href="#linear-gradient"/>
    <linearGradient id="linear-gradient-10" x1="426.27" y1="194.04" x2="426.27" y2="130.72" xlink:href="#linear-gradient"/>
    <linearGradient id="linear-gradient-11" x1="328.56" y1="194.04" x2="328.56" y2="130.72" xlink:href="#linear-gradient"/>
    <linearGradient id="linear-gradient-12" x1="394.89" y1="194.04" x2="394.89" y2="130.72" xlink:href="#linear-gradient"/>
    <linearGradient id="linear-gradient-13" x1="417.3" y1="106.85" x2="366.02" y2="104.77" xlink:href="#linear-gradient"/>
    <linearGradient id="linear-gradient-14" x1="334.04" y1="104.5" x2="420.8" y2="104.5" xlink:href="#linear-gradient"/>
    <linearGradient id="linear-gradient-15" x1="345.35" y1="104.5" x2="409.48" y2="104.5" xlink:href="#linear-gradient"/>
    <linearGradient id="linear-gradient-16" x1="345.35" y1="100.46" x2="400.36" y2="100.46" xlink:href="#linear-gradient"/>
    <linearGradient id="linear-gradient-17" x1="366.07" y1="104.5" x2="391.88" y2="104.5" gradientUnits="userSpaceOnUse">
      <stop offset="0" stop-color="#8fb3ff"/>
      <stop offset="1" stop-color="#6986d9"/>
    </linearGradient>
    <linearGradient id="linear-gradient-18" x1="218.15" y1="398.93" x2="111.69" y2="455.83" xlink:href="#linear-gradient"/>
    <linearGradient id="linear-gradient-19" x1="344.77" y1="94.92" x2="165.8" y2="324.36" xlink:href="#linear-gradient"/>
    <linearGradient id="linear-gradient-20" x1="45.81" y1="41.48" x2="45.81" y2="86.73" xlink:href="#linear-gradient"/>
    <linearGradient id="linear-gradient-21" x1="61.09" y1="41.48" x2="61.09" y2="86.73" xlink:href="#linear-gradient"/>
    <linearGradient id="linear-gradient-22" x1="103.8" y1="41.48" x2="103.8" y2="86.73" xlink:href="#linear-gradient"/>
    <linearGradient id="linear-gradient-23" x1="113.18" y1="41.48" x2="113.18" y2="86.73" xlink:href="#linear-gradient"/>
    <linearGradient id="linear-gradient-24" x1="36.43" y1="41.48" x2="36.43" y2="86.73" xlink:href="#linear-gradient"/>
    <linearGradient id="linear-gradient-25" x1="88.53" y1="41.48" x2="88.53" y2="86.73" xlink:href="#linear-gradient"/>
    <linearGradient id="linear-gradient-26" x1="45.81" y1="124.79" x2="45.81" y2="164.63" xlink:href="#linear-gradient"/>
    <linearGradient id="linear-gradient-27" x1="61.09" y1="124.79" x2="61.09" y2="164.63" xlink:href="#linear-gradient"/>
    <linearGradient id="linear-gradient-28" x1="103.8" y1="124.79" x2="103.8" y2="164.63" xlink:href="#linear-gradient"/>
    <linearGradient id="linear-gradient-29" x1="113.18" y1="124.79" x2="113.18" y2="164.63" xlink:href="#linear-gradient"/>
    <linearGradient id="linear-gradient-30" x1="36.43" y1="124.79" x2="36.43" y2="164.63" xlink:href="#linear-gradient"/>
    <linearGradient id="linear-gradient-31" x1="88.53" y1="124.79" x2="88.53" y2="164.63" xlink:href="#linear-gradient"/>
    <linearGradient id="linear-gradient-32" x1="423.13" y1="264.86" x2="447.42" y2="264.86" gradientTransform="translate(4.82 -1.96) rotate(.56)" gradientUnits="userSpaceOnUse">
      <stop offset="0" stop-color="#bbd2fe"/>
      <stop offset="1" stop-color="#e1e7ff"/>
    </linearGradient>
    <linearGradient id="linear-gradient-33" x1="172.21" y1="18.02" x2="190.15" y2="18.02" gradientTransform="matrix(1,0,0,1,0,0)" xlink:href="#linear-gradient-32"/>
    <linearGradient id="linear-gradient-34" x1="-2" y1="246.52" x2="25.67" y2="246.52" gradientTransform="translate(-39.43 5.7) rotate(-9.72)" xlink:href="#linear-gradient-32"/>
    <linearGradient id="linear-gradient-35" x1="256.69" y1="452" x2="271.19" y2="452" gradientTransform="matrix(1,0,0,1,0,0)" xlink:href="#linear-gradient-32"/>
  </defs>
  <g class="cls-55">
    <g id="Layer_2" data-name="Layer 2">
      <g id="OBJECTS">
        <g>
          <g class="cls-54">
            <g>
              <path class="cls-5" d="m348.77,59.18l-10.63-5.45v-28.34c2.67-.39,4.72-2.69,4.72-5.47,0-3.06-2.48-5.54-5.54-5.54s-5.54,2.48-5.54,5.54c0,2.78,2.05,5.08,4.73,5.47v28.84c0,.3.17.58.44.72l10.64,5.45v18.15c0,.45.36.81.81.81s.81-.36.81-.81v-18.64c0-.3-.17-.58-.44-.72Z"/>
              <path class="cls-32" d="m368.22,57.29l-10.63-5.45v-9.43c2.67-.39,4.73-2.69,4.73-5.47,0-3.06-2.48-5.54-5.54-5.54s-5.54,2.48-5.54,5.54c0,2.78,2.05,5.08,4.73,5.47v9.93c0,.3.17.58.44.72l10.63,5.45v18.14c0,.45.37.81.81.81s.81-.36.81-.81v-18.64c0-.3-.17-.58-.44-.72Z"/>
              <path class="cls-33" d="m406.43,79.35c.45,0,.81-.36.81-.81v-18.15l10.64-5.45c.27-.14.44-.42.44-.72v-28.84c2.67-.39,4.73-2.69,4.73-5.47,0-3.06-2.48-5.54-5.54-5.54s-5.54,2.48-5.54,5.54c0,2.78,2.05,5.08,4.73,5.47v28.34l-10.64,5.45c-.27.14-.44.42-.44.72v18.64c0,.45.36.81.81.81Z"/>
              <path class="cls-31" d="m431.07,58.55v28.03h-15.12c-.45,0-.81.36-.81.81s.36.81.81.81h15.93c.45,0,.81-.36.81-.81v-28.84c2.67-.39,4.73-2.69,4.73-5.47,0-3.06-2.48-5.54-5.54-5.54s-5.54,2.48-5.54,5.54c0,2.78,2.06,5.08,4.73,5.47Z"/>
              <path class="cls-37" d="m322.15,58.55v28.84c0,.45.36.81.81.81h15.93c.45,0,.81-.36.81-.81s-.36-.81-.81-.81h-15.12v-28.03c2.67-.39,4.73-2.69,4.73-5.47,0-3.06-2.48-5.54-5.54-5.54s-5.54,2.48-5.54,5.54c0,2.78,2.06,5.08,4.73,5.47Z"/>
              <path class="cls-38" d="m398.06,31.4c-3.06,0-5.54,2.48-5.54,5.54,0,2.78,2.05,5.08,4.73,5.47v9.43l-10.63,5.45c-.27.14-.44.42-.44.72v18.64c0,.45.36.81.81.81s.81-.36.81-.81v-18.14l10.63-5.45c.27-.14.44-.42.44-.72v-9.93c2.67-.39,4.73-2.69,4.73-5.47,0-3.06-2.48-5.54-5.54-5.54Z"/>
              <path class="cls-36" d="m348.4,129.65c-.45,0-.81.36-.81.81v18.14l-10.64,5.45c-.27.14-.44.42-.44.72v28.84c-2.67.39-4.73,2.69-4.73,5.47,0,3.06,2.48,5.54,5.54,5.54s5.54-2.48,5.54-5.54c0-2.78-2.05-5.08-4.72-5.47v-28.34l10.63-5.45c.27-.14.44-.42.44-.72v-18.64c0-.45-.36-.81-.81-.81Z"/>
              <path class="cls-34" d="m367.85,131.54c-.45,0-.81.36-.81.81v18.15l-10.63,5.45c-.27.14-.44.42-.44.72v9.93c-2.67.39-4.73,2.69-4.73,5.47,0,3.06,2.48,5.54,5.54,5.54s5.54-2.48,5.54-5.54c0-2.78-2.05-5.08-4.73-5.47v-9.43l10.63-5.45c.27-.14.44-.42.44-.72v-18.64c0-.45-.36-.81-.81-.81Z"/>
              <path class="cls-35" d="m418.32,183.61v-28.84c0-.3-.17-.58-.44-.72l-10.64-5.45v-18.14c0-.45-.36-.81-.81-.81s-.81.36-.81.81v18.64c0,.31.17.58.44.72l10.64,5.45v28.34c-2.68.39-4.73,2.69-4.73,5.47,0,3.06,2.48,5.54,5.54,5.54s5.54-2.48,5.54-5.54c0-2.78-2.05-5.08-4.73-5.47Z"/>
              <path class="cls-18" d="m432.69,150.46v-28.84c0-.45-.36-.81-.81-.81h-15.93c-.45,0-.81.36-.81.81s.36.81.81.81h15.12v28.03c-2.67.39-4.73,2.69-4.73,5.47,0,3.06,2.48,5.54,5.54,5.54s5.54-2.48,5.54-5.54c0-2.78-2.06-5.08-4.73-5.47Z"/>
              <path class="cls-15" d="m323.77,150.46v-28.03h15.12c.45,0,.81-.36.81-.81s-.36-.81-.81-.81h-15.93c-.45,0-.81.36-.81.81v28.84c-2.67.39-4.73,2.69-4.73,5.47,0,3.06,2.48,5.54,5.54,5.54s5.54-2.48,5.54-5.54c0-2.78-2.06-5.08-4.73-5.47Z"/>
              <path class="cls-16" d="m398.87,166.59v-9.93c0-.3-.17-.58-.44-.72l-10.63-5.45v-18.15c0-.45-.36-.81-.81-.81s-.81.36-.81.81v18.64c0,.3.17.58.44.72l10.63,5.45v9.43c-2.67.39-4.73,2.69-4.73,5.47,0,3.06,2.48,5.54,5.54,5.54s5.54-2.48,5.54-5.54c0-2.78-2.05-5.08-4.73-5.47Z"/>
            </g>
            <g>
              <path class="cls-17" d="m398.62,66.66c-6.27-3.52-13.5-5.54-21.2-5.54-23.96,0-43.38,19.42-43.38,43.38,0,17.5,10.37,32.56,25.29,39.42,6.27,3.52,13.5,5.54,21.2,5.54,23.96,0,43.38-19.42,43.38-43.38,0-17.5-10.37-32.56-25.28-39.43Z"/>
              <path class="cls-23" d="m420.8,104.5c0,23.96-19.42,43.38-43.38,43.38s-43.38-19.42-43.38-43.38,19.42-43.38,43.38-43.38,43.38,19.42,43.38,43.38Z"/>
              <path class="cls-3" d="m409.48,104.5c0,17.71-14.36,32.06-32.06,32.06s-32.06-14.36-32.06-32.06,14.36-32.06,32.06-32.06,32.06,14.35,32.06,32.06Z"/>
              <path class="cls-2" d="m379.07,74.02c8.17,0,15.62,3.06,21.29,8.09-5.82-5.96-13.95-9.67-22.94-9.67-17.71,0-32.06,14.35-32.06,32.06,0,9.54,4.17,18.1,10.78,23.97-5.64-5.78-9.12-13.68-9.12-22.39,0-17.71,14.36-32.07,32.06-32.07Z"/>
              <path class="cls-30" d="m391.88,112.13c0-4.54-2.66-7.09-6.1-7.98v-.21c2.77-1.04,4.43-4.33,4.43-7.35,0-5.32-3.65-7.58-8.82-8.23v-6.41h-2.91v6.21c-.26,0-.51-.01-.78-.01h-4.37v-6.2h-2.91v6.2h-4.34v34h4.34v4.91h2.91v-4.91h5.15v4.91h2.91v-5.06c6.03-.69,10.49-3.8,10.49-9.86Zm-18.15-18.04h3.65c3.6,0,5.31.99,5.31,3.65,0,2.45-1.61,4.02-5.37,4.02h-3.6v-7.66Zm4.33,22.11h-4.33v-8.76h4.33c4.22,0,6.31,1.2,6.31,4.17,0,3.13-2.14,4.59-6.31,4.59Z"/>
            </g>
          </g>
          <g>
            <path class="cls-44" d="m264.11,341.81c0-6.7-5.43-12.14-12.13-12.14h-50.2c-6.7,0-12.14,5.43-12.14,12.14v73h-54.74c-2.26,0-4.1,1.83-4.1,4.1v1.94c0,2.26,1.83,4.1,4.1,4.1h125.11c2.26,0,4.09-1.83,4.09-4.1v-79.04Z"/>
            <path class="cls-22" d="m255.27,330.14c.07.51.11,1.03.11,1.56v79.04c0,2.26-1.83,4.1-4.09,4.1h-116.58c-2.17.11-3.9,1.88-3.9,4.07v1.94c0,2.26,1.83,4.1,4.1,4.1h125.11c2.26,0,4.09-1.83,4.09-4.1v-79.04c0-5.56-3.74-10.23-8.84-11.67Z"/>
            <path class="cls-19" d="m55.54,129.04h332.54c1.65,0,3.14.66,4.24,1.73,1.13,1.1,6.67,7.27,7.78,8.68.82,1.03,1.3,2.34,1.3,3.76v217.51c0,3.35-2.72,6.07-6.07,6.07H62.79c-.53,0-1.05-.07-1.55-.2-2.6-.69-10.13-9.25-11.12-11.23-.41-.82-.65-1.75-.65-2.73v-217.51c0-3.35,2.72-6.07,6.07-6.07Z"/>
            <path class="cls-44" d="m55.54,129.04h332.54c3.35,0,6.07,2.72,6.07,6.07v217.51c0,3.35-2.72,6.07-6.07,6.07H55.54c-3.35,0-6.07-2.72-6.07-6.07v-217.51c0-3.35,2.72-6.07,6.07-6.07Z"/>
            <path class="cls-41" d="m69.5,142.55h304.61c3.35,0,6.07,2.72,6.07,6.07v169.98c0,3.35-2.72,6.07-6.07,6.07H69.5c-3.35,0-6.07-2.72-6.07-6.07v-169.99c0-3.35,2.72-6.07,6.07-6.07Z"/>
            <g>
              <g>
                <path class="cls-39" d="m170.15,168.25c0,1.92-1.56,3.47-3.47,3.47h-85.71c-1.92,0-3.48-1.56-3.48-3.47h0c0-1.92,1.56-3.47,3.48-3.47h85.71c1.92,0,3.47,1.56,3.47,3.47h0Z"/>
                <path class="cls-4" d="m138.22,168.25c0,1.92-1.56,3.47-3.47,3.47h-53.77c-1.92,0-3.48-1.56-3.48-3.47h0c0-1.92,1.56-3.47,3.48-3.47h53.77c1.92,0,3.47,1.56,3.47,3.47h0Z"/>
                <path class="cls-4" d="m194.62,168.25c0,1.92-1.56,3.47-3.47,3.47h-14.43c-1.92,0-3.47-1.56-3.47-3.47h0c0-1.92,1.56-3.47,3.47-3.47h14.43c1.92,0,3.47,1.56,3.47,3.47h0Z"/>
                <path class="cls-39" d="m170.15,185.31c0,1.92-1.56,3.48-3.47,3.48h-85.71c-1.92,0-3.48-1.56-3.48-3.48h0c0-1.92,1.56-3.47,3.48-3.47h85.71c1.92,0,3.47,1.56,3.47,3.47h0Z"/>
                <path class="cls-4" d="m128.78,185.31c0,1.92-1.55,3.48-3.47,3.48h-44.34c-1.92,0-3.48-1.56-3.48-3.48h0c0-1.92,1.56-3.47,3.48-3.47h44.34c1.92,0,3.47,1.56,3.47,3.47h0Z"/>
                <path class="cls-4" d="m194.62,185.31c0,1.92-1.56,3.48-3.47,3.48h-14.43c-1.92,0-3.47-1.56-3.47-3.48h0c0-1.92,1.56-3.47,3.47-3.47h14.43c1.92,0,3.47,1.56,3.47,3.47h0Z"/>
                <path class="cls-39" d="m170.15,202.37c0,1.92-1.56,3.47-3.47,3.47h-85.71c-1.92,0-3.48-1.56-3.48-3.47h0c0-1.92,1.56-3.47,3.48-3.47h85.71c1.92,0,3.47,1.56,3.47,3.47h0Z"/>
                <path class="cls-4" d="m152.61,202.37c0,1.92-1.56,3.47-3.47,3.47h-68.17c-1.92,0-3.48-1.56-3.48-3.47h0c0-1.92,1.56-3.47,3.48-3.47h68.17c1.92,0,3.47,1.56,3.47,3.47h0Z"/>
                <path class="cls-4" d="m194.62,202.37c0,1.92-1.56,3.47-3.47,3.47h-14.43c-1.92,0-3.47-1.56-3.47-3.47h0c0-1.92,1.56-3.47,3.47-3.47h14.43c1.92,0,3.47,1.56,3.47,3.47h0Z"/>
                <path class="cls-39" d="m170.15,219.42c0,1.92-1.56,3.47-3.47,3.47h-85.71c-1.92,0-3.48-1.56-3.48-3.47h0c0-1.92,1.56-3.47,3.48-3.47h85.71c1.92,0,3.47,1.56,3.47,3.47h0Z"/>
                <path class="cls-4" d="m116.79,219.42c0,1.92-1.56,3.47-3.47,3.47h-32.34c-1.92,0-3.48-1.56-3.48-3.47h0c0-1.92,1.56-3.47,3.48-3.47h32.34c1.92,0,3.47,1.56,3.47,3.47h0Z"/>
                <path class="cls-4" d="m194.62,219.42c0,1.92-1.56,3.47-3.47,3.47h-14.43c-1.92,0-3.47-1.56-3.47-3.47h0c0-1.92,1.56-3.47,3.47-3.47h14.43c1.92,0,3.47,1.56,3.47,3.47h0Z"/>
              </g>
              <g>
                <path class="cls-4" d="m320.77,263.37c-7.16,1.31-12.74-2.19-19.94,1.18-7.52,3.84-11.93,11.23-16.01,18.15-2.92,4.24-5.56,10.06-10.59,11.81-3.91,1.13-7.85-.21-11.58-.35-6.05.2-12.47,5.1-17.25,10.31v1.48c0,3.35,2.72,6.07,6.07,6.07h102.35v-68.58c-15.38-.09-21.6,17.42-33.06,19.93Z"/>
                <path class="cls-42" d="m353.83,312.62h-102.35c-3.68,0-6.67-3-6.67-6.68v-71.3c0-.34.27-.61.61-.61s.61.27.61.61v71.3c0,3.01,2.45,5.46,5.46,5.46h102.35c.33,0,.61.27.61.61s-.27.61-.61.61Z"/>
                <path class="cls-29" d="m327.13,277.63c-7.28,0-12.14-4.45-19.82-2.43-8.09,2.43-13.75,8.9-19.01,14.97-3.64,3.64-7.28,8.9-12.54,9.71-4.05.4-7.69-1.62-11.33-2.43-6.28-.94-13.46,3.66-19.01,8.41v.08c0,3.35,2.72,6.07,6.07,6.07h102.35v-49.76c-10.11,0-14.97,14.97-26.7,15.38Z"/>
                <g class="cls-51">
                  <path class="cls-42" d="m353.83,312.62h-102.35c-3.68,0-6.67-3-6.67-6.68v-71.3c0-.34.27-.61.61-.61s.61.27.61.61v71.3c0,3.01,2.45,5.46,5.46,5.46h102.35c.33,0,.61.27.61.61s-.27.61-.61.61Z"/>
                </g>
              </g>
              <g>
                <g class="cls-52">
                  <path class="cls-42" d="m221.67,246.71H79.08c-.41,0-.75-.33-.75-.75s.33-.75.75-.75h142.59c.41,0,.75.33.75.75s-.33.75-.75.75Z"/>
                  <path class="cls-42" d="m221.67,254.93H79.08c-.41,0-.75-.33-.75-.75s.33-.75.75-.75h142.59c.41,0,.75.33.75.75s-.33.75-.75.75Z"/>
                  <path class="cls-42" d="m221.67,263.16H79.08c-.41,0-.75-.33-.75-.75s.33-.75.75-.75h142.59c.41,0,.75.34.75.75s-.33.75-.75.75Z"/>
                  <path class="cls-42" d="m221.67,271.39H79.08c-.41,0-.75-.34-.75-.75s.33-.75.75-.75h142.59c.41,0,.75.33.75.75s-.33.75-.75.75Z"/>
                  <path class="cls-42" d="m221.67,279.62H79.08c-.41,0-.75-.34-.75-.75s.33-.74.75-.74h142.59c.41,0,.75.33.75.74s-.33.75-.75.75Z"/>
                  <path class="cls-42" d="m221.67,287.85H79.08c-.41,0-.75-.34-.75-.75s.33-.75.75-.75h142.59c.41,0,.75.33.75.75s-.33.75-.75.75Z"/>
                  <path class="cls-42" d="m221.67,296.07H79.08c-.41,0-.75-.33-.75-.75s.33-.75.75-.75h142.59c.41,0,.75.33.75.75s-.33.75-.75.75Z"/>
                  <path class="cls-42" d="m221.67,304.3H79.08c-.41,0-.75-.33-.75-.75s.33-.75.75-.75h142.59c.41,0,.75.33.75.75s-.33.75-.75.75Z"/>
                  <path class="cls-42" d="m221.67,312.53H79.08c-.41,0-.75-.33-.75-.75s.33-.75.75-.75h142.59c.41,0,.75.34.75.75s-.33.75-.75.75Z"/>
                </g>
                <g>
                  <g>
                    <rect class="cls-42" x="79.08" y="299.87" width="15.69" height="12.66"/>
                    <rect class="cls-42" x="97.13" y="274.11" width="15.69" height="38.42"/>
                    <rect class="cls-42" x="115.19" y="284.3" width="15.7" height="28.23"/>
                    <rect class="cls-42" x="133.24" y="260.93" width="15.7" height="51.6"/>
                    <rect class="cls-42" x="169.35" y="274.11" width="15.69" height="38.42"/>
                    <rect class="cls-42" x="187.41" y="284.3" width="15.7" height="28.23"/>
                    <rect class="cls-42" x="205.46" y="260.93" width="15.7" height="51.6"/>
                    <rect class="cls-42" x="151.3" y="243.98" width="15.7" height="68.55"/>
                  </g>
                  <g class="cls-53">
                    <rect class="cls-44" x="79.08" y="299.87" width="15.69" height="12.66"/>
                    <rect class="cls-44" x="97.13" y="274.11" width="15.69" height="38.42"/>
                    <rect class="cls-44" x="115.19" y="284.3" width="15.7" height="28.23"/>
                    <rect class="cls-44" x="133.24" y="260.93" width="15.7" height="51.6"/>
                    <rect class="cls-44" x="169.35" y="274.11" width="15.69" height="38.42"/>
                    <rect class="cls-44" x="187.41" y="284.3" width="15.7" height="28.23"/>
                    <rect class="cls-44" x="205.46" y="260.93" width="15.7" height="51.6"/>
                    <rect class="cls-44" x="151.3" y="243.98" width="15.7" height="68.55"/>
                  </g>
                </g>
              </g>
              <g>
                <path class="cls-39" d="m249.68,168.32c-9.77-6.49-22.95-3.83-29.44,5.94-6.49,9.77-3.83,22.95,5.94,29.44,9.77,6.49,22.95,3.83,29.45-5.94,6.49-9.77,3.83-22.95-5.94-29.44Zm-19.31,29.06c-6.28-4.18-7.99-12.65-3.82-18.93,4.17-6.28,12.65-7.99,18.93-3.82,6.28,4.17,7.99,12.65,3.82,18.93-4.17,6.28-12.65,7.99-18.93,3.82Z"/>
                <path class="cls-39" d="m289.95,164.77c-11.73,0-21.24,9.51-21.24,21.24s9.51,21.24,21.24,21.24,21.24-9.51,21.24-21.24-9.51-21.24-21.24-21.24Zm0,34.89c-7.54,0-13.65-6.11-13.65-13.65s6.12-13.65,13.65-13.65,13.65,6.11,13.65,13.65-6.11,13.65-13.65,13.65Z"/>
                <g class="cls-51">
                  <path class="cls-42" d="m341.98,164.77c-11.73,0-21.24,9.51-21.24,21.24s9.51,21.24,21.24,21.24,21.24-9.51,21.24-21.24-9.51-21.24-21.24-21.24Zm0,34.89c-7.54,0-13.65-6.11-13.65-13.65s6.11-13.65,13.65-13.65,13.65,6.11,13.65,13.65-6.11,13.65-13.65,13.65Z"/>
                </g>
                <path class="cls-4" d="m230.37,197.39c-6.28-4.18-7.99-12.65-3.82-18.93,3.24-4.88,9.07-6.98,14.46-5.73l-.29-7.75c-7.79-1.03-15.85,2.3-20.49,9.28-6.49,9.77-3.83,22.95,5.94,29.44,4.94,3.28,10.75,4.22,16.13,3.08l-.29-7.75c-3.79,1.19-8.07.72-11.64-1.65Z"/>
                <path class="cls-4" d="m303.61,186.01c0,7.54-6.11,13.65-13.65,13.65s-13.65-6.11-13.65-13.65c0-5.99,3.86-11.06,9.22-12.91l-2.46-7.17c-8.34,2.86-14.35,10.76-14.35,20.07,0,11.73,9.51,21.24,21.24,21.24s21.24-9.51,21.24-21.24c0-1.07-.11-2.1-.26-3.13l-7.5,1.12c.1.66.17,1.33.17,2.01Z"/>
                <path class="cls-4" d="m341.98,199.67c-7.54,0-13.65-6.11-13.65-13.65s6.11-13.65,13.65-13.65c1.68,0,3.29.32,4.77.88l2.4-7.19c-2.24-.81-4.65-1.27-7.18-1.27-11.73,0-21.24,9.51-21.24,21.24s9.51,21.24,21.24,21.24c1.79,0,3.53-.25,5.19-.67l-1.99-7.31c-1.03.25-2.1.39-3.2.39Z"/>
              </g>
            </g>
            <path class="cls-49" d="m212.99,142.55L63.43,308.21v10.39c0,3.35,2.72,6.07,6.07,6.07h65.01l164.41-182.12h-85.94Z"/>
            <polygon class="cls-49" points="354.44 142.55 192.25 324.67 212.5 324.67 376.91 142.55 354.44 142.55"/>
          </g>
          <g>
            <g>
              <path class="cls-25" d="m52.3,68.9l-8.35-4.28v-22.26c2.1-.31,3.71-2.11,3.71-4.3,0-2.4-1.95-4.35-4.35-4.35s-4.35,1.95-4.35,4.35c0,2.19,1.61,3.99,3.71,4.3v22.65c0,.24.13.46.35.57l8.35,4.28v14.25c0,.35.28.64.64.64s.64-.29.64-.64v-14.64c0-.24-.13-.46-.35-.57Z"/>
              <path class="cls-21" d="m67.58,67.41l-8.35-4.28v-7.41c2.1-.31,3.71-2.11,3.71-4.3,0-2.4-1.95-4.35-4.35-4.35s-4.35,1.95-4.35,4.35c0,2.19,1.61,3.99,3.71,4.3v7.8c0,.24.13.46.35.57l8.35,4.28v14.25c0,.35.28.64.64.64s.64-.29.64-.64v-14.64c0-.24-.13-.46-.35-.57Z"/>
              <path class="cls-24" d="m97.6,84.75c.35,0,.64-.29.64-.64v-14.25l8.35-4.28c.21-.11.35-.33.35-.57v-22.65c2.1-.31,3.71-2.11,3.71-4.3,0-2.4-1.95-4.35-4.35-4.35s-4.35,1.95-4.35,4.35c0,2.19,1.62,3.99,3.71,4.3v22.26l-8.35,4.28c-.21.11-.35.33-.35.57v14.64c0,.35.29.64.64.64Z"/>
              <path class="cls-20" d="m116.95,68.41v22.02h-11.88c-.35,0-.64.29-.64.64s.28.64.64.64h12.52c.35,0,.64-.29.64-.64v-22.65c2.1-.31,3.71-2.11,3.71-4.3,0-2.4-1.95-4.35-4.35-4.35s-4.35,1.95-4.35,4.35c0,2.19,1.61,3.99,3.71,4.3Z"/>
              <path class="cls-27" d="m31.39,68.41v22.65c0,.35.29.64.64.64h12.52c.35,0,.64-.29.64-.64s-.28-.64-.64-.64h-11.88v-22.02c2.1-.31,3.71-2.11,3.71-4.3,0-2.4-1.95-4.35-4.35-4.35s-4.35,1.95-4.35,4.35c0,2.19,1.61,3.99,3.71,4.3Z"/>
              <path class="cls-14" d="m91.02,47.08c-2.4,0-4.35,1.95-4.35,4.35,0,2.19,1.61,3.99,3.71,4.3v7.41l-8.35,4.28c-.21.11-.35.33-.35.57v14.64c0,.35.29.64.64.64s.64-.29.64-.64v-14.25l8.35-4.28c.21-.11.35-.33.35-.57v-7.8c2.1-.31,3.71-2.11,3.71-4.3,0-2.4-1.95-4.35-4.35-4.35Z"/>
              <path class="cls-28" d="m52.01,124.26c-.35,0-.64.28-.64.64v14.25l-8.35,4.28c-.21.11-.35.33-.35.57v22.65c-2.1.31-3.71,2.11-3.71,4.3,0,2.4,1.95,4.35,4.35,4.35s4.35-1.95,4.35-4.35c0-2.19-1.61-3.99-3.71-4.3v-22.26l8.35-4.28c.21-.11.35-.33.35-.57v-14.64c0-.35-.28-.64-.64-.64Z"/>
              <path class="cls-26" d="m67.29,125.74c-.35,0-.64.29-.64.64v14.25l-8.35,4.28c-.21.11-.35.33-.35.57v7.8c-2.1.31-3.71,2.11-3.71,4.3,0,2.4,1.95,4.35,4.35,4.35s4.35-1.95,4.35-4.35c0-2.19-1.61-3.99-3.71-4.3v-7.41l8.35-4.28c.21-.11.35-.33.35-.57v-14.64c0-.35-.29-.64-.64-.64Z"/>
              <path class="cls-13" d="m106.94,166.65v-22.65c0-.24-.13-.46-.35-.57l-8.35-4.28v-14.25c0-.35-.28-.64-.64-.64s-.64.28-.64.64v14.64c0,.24.13.46.35.57l8.35,4.28v22.26c-2.1.31-3.71,2.11-3.71,4.3,0,2.4,1.95,4.35,4.35,4.35s4.35-1.95,4.35-4.35c0-2.19-1.61-3.99-3.71-4.3Z"/>
              <path class="cls-7" d="m118.22,140.6v-22.65c0-.35-.28-.64-.64-.64h-12.52c-.35,0-.64.29-.64.64s.28.64.64.64h11.88v22.02c-2.1.31-3.71,2.11-3.71,4.3,0,2.4,1.95,4.35,4.35,4.35s4.35-1.95,4.35-4.35c0-2.19-1.61-3.99-3.71-4.3Z"/>
              <path class="cls-9" d="m32.67,140.6v-22.02h11.88c.35,0,.64-.29.64-.64s-.28-.64-.64-.64h-12.52c-.35,0-.64.29-.64.64v22.65c-2.1.31-3.71,2.11-3.71,4.3,0,2.4,1.95,4.35,4.35,4.35s4.35-1.95,4.35-4.35c0-2.19-1.61-3.99-3.71-4.3Z"/>
              <path class="cls-10" d="m91.66,153.28v-7.8c0-.24-.13-.46-.35-.57l-8.35-4.28v-14.25c0-.35-.28-.64-.64-.64s-.64.29-.64.64v14.64c0,.24.13.46.35.57l8.35,4.28v7.41c-2.1.31-3.71,2.11-3.71,4.3,0,2.4,1.95,4.35,4.35,4.35s4.35-1.95,4.35-4.35c0-2.19-1.61-3.99-3.71-4.3Z"/>
            </g>
            <g>
              <path class="cls-46" d="m91.46,74.78c-4.93-2.77-10.6-4.35-16.66-4.35-18.82,0-34.08,15.26-34.08,34.08,0,13.74,8.14,25.58,19.86,30.97,4.92,2.77,10.6,4.35,16.65,4.35,18.82,0,34.08-15.26,34.08-34.08,0-13.74-8.14-25.58-19.86-30.97Z"/>
              <path class="cls-45" d="m108.88,104.5c0,18.82-15.26,34.08-34.08,34.08s-34.08-15.26-34.08-34.08,15.26-34.08,34.08-34.08,34.08,15.26,34.08,34.08Z"/>
              <path class="cls-47" d="m99.99,104.5c0,13.91-11.28,25.19-25.19,25.19s-25.19-11.28-25.19-25.19,11.28-25.19,25.19-25.19,25.19,11.28,25.19,25.19Z"/>
              <path class="cls-46" d="m76.11,80.56c6.42,0,12.27,2.4,16.72,6.36-4.57-4.69-10.96-7.6-18.02-7.6-13.91,0-25.19,11.28-25.19,25.19,0,7.49,3.27,14.22,8.47,18.83-4.43-4.54-7.16-10.74-7.16-17.59,0-13.91,11.28-25.19,25.19-25.19Z"/>
              <path class="cls-47" d="m86.16,110.5c0-3.56-2.09-5.57-4.79-6.27v-.16c2.17-.82,3.48-3.4,3.48-5.78,0-4.18-2.87-5.96-6.93-6.47v-5.04h-2.29v4.88c-.2,0-.4-.01-.61-.01h-3.43v-4.87h-2.29v4.87h-3.41v26.7h3.41v3.86h2.29v-3.86h4.05v3.86h2.29v-3.98c4.74-.54,8.24-2.99,8.24-7.75Zm-14.25-14.17h2.87c2.82,0,4.17.78,4.17,2.87,0,1.93-1.27,3.15-4.22,3.15h-2.82v-6.02Zm3.4,17.37h-3.4v-6.88h3.4c3.32,0,4.96.94,4.96,3.28,0,2.46-1.68,3.6-4.96,3.6Z"/>
            </g>
          </g>
          <g>
            <polygon class="cls-48" points="225.43 52.38 186.94 76.22 225.43 144.88 263.94 76.22 225.43 52.38"/>
            <polygon class="cls-43" points="225.43 144.88 263.94 76.22 225.43 52.38 225.43 144.88"/>
            <polygon class="cls-1" points="225.43 100.06 186.94 76.22 225.43 52.38 263.94 76.22 225.43 100.06"/>
            <polygon class="cls-48" points="225.43 89.56 186.94 65.72 225.43 0 263.94 65.72 225.43 89.56"/>
            <polygon class="cls-43" points="225.43 0 263.94 65.72 225.43 89.56 225.43 0"/>
          </g>
          <g>
            <g>
              <path class="cls-46" d="m344.8,402.81c0-4.28-21.79-7.75-48.67-7.75s-48.67,3.47-48.67,7.75v13.35c0,4.28,21.79,7.75,48.67,7.75s48.67-3.47,48.67-7.75v-13.35Z"/>
              <g>
                <path class="cls-40" d="m296.13,395.07c-2.81,0-5.56.04-8.25.11v28.62c2.68.07,5.43.11,8.25.11,6.51,0,12.72-.21,18.39-.57v-27.7c-5.67-.37-11.88-.57-18.39-.57Z"/>
                <path class="cls-40" d="m321.82,396.23v26.51c1.7-.17,3.32-.35,4.87-.55v-25.41c-1.55-.2-3.17-.38-4.87-.55Z"/>
              </g>
              <path class="cls-45" d="m344.8,402.81c0,4.28-21.79,7.75-48.67,7.75s-48.67-3.47-48.67-7.75,21.79-7.75,48.67-7.75,48.67,3.47,48.67,7.75Z"/>
              <path class="cls-47" d="m331.99,402.46c0,2.95-16.06,5.35-35.86,5.35s-35.86-2.4-35.86-5.35,16.06-5.35,35.86-5.35,35.86,2.4,35.86,5.35Z"/>
              <path class="cls-46" d="m331.99,402.46c0-2.96-16.06-5.35-35.86-5.35s-34.68,2.23-35.79,5.03c5.3-1.97,18.2-3.36,33.27-3.36,19.81,0,35.86,2.4,35.86,5.35,0,.11-.03.21-.07.32,1.67-.62,2.59-1.29,2.59-2Z"/>
            </g>
            <g>
              <path class="cls-46" d="m341.46,386.49c0-4.28-21.79-7.75-48.67-7.75s-48.67,3.47-48.67,7.75v13.35c0,4.28,21.79,7.75,48.67,7.75s48.67-3.47,48.67-7.75v-13.35Z"/>
              <g>
                <path class="cls-40" d="m292.79,378.75c-2.81,0-5.56.04-8.25.11v28.62c2.68.07,5.43.11,8.25.11,6.51,0,12.72-.21,18.39-.57v-27.7c-5.67-.37-11.88-.57-18.39-.57Z"/>
                <path class="cls-40" d="m318.49,379.91v26.51c1.7-.17,3.32-.35,4.87-.55v-25.41c-1.55-.2-3.17-.38-4.87-.55Z"/>
              </g>
              <path class="cls-45" d="m341.46,386.49c0,4.28-21.79,7.75-48.67,7.75s-48.67-3.47-48.67-7.75,21.79-7.75,48.67-7.75,48.67,3.47,48.67,7.75Z"/>
              <path class="cls-47" d="m328.66,386.14c0,2.96-16.06,5.35-35.86,5.35s-35.86-2.4-35.86-5.35,16.06-5.35,35.86-5.35,35.86,2.4,35.86,5.35Z"/>
              <path class="cls-46" d="m328.66,386.14c0-2.96-16.06-5.35-35.86-5.35s-34.68,2.23-35.79,5.03c5.3-1.97,18.2-3.36,33.27-3.36,19.81,0,35.86,2.4,35.86,5.35,0,.11-.03.21-.07.32,1.67-.62,2.59-1.29,2.59-2Z"/>
            </g>
            <g>
              <path class="cls-46" d="m344.51,370.86c0-4.28-21.79-7.75-48.67-7.75s-48.67,3.47-48.67,7.75v13.35c0,4.28,21.79,7.75,48.67,7.75s48.67-3.47,48.67-7.75v-13.35Z"/>
              <g>
                <path class="cls-40" d="m295.84,363.12c-2.81,0-5.56.04-8.25.11v28.62c2.68.07,5.43.11,8.25.11,6.51,0,12.72-.21,18.39-.57v-27.7c-5.67-.37-11.88-.57-18.39-.57Z"/>
                <path class="cls-40" d="m321.54,364.28v26.51c1.7-.17,3.32-.35,4.87-.55v-25.41c-1.55-.2-3.17-.38-4.87-.55Z"/>
              </g>
              <path class="cls-45" d="m344.51,370.86c0,4.28-21.79,7.75-48.67,7.75s-48.67-3.47-48.67-7.75,21.79-7.75,48.67-7.75,48.67,3.47,48.67,7.75Z"/>
              <path class="cls-47" d="m331.71,370.51c0,2.95-16.06,5.35-35.86,5.35s-35.86-2.4-35.86-5.35,16.06-5.35,35.86-5.35,35.86,2.4,35.86,5.35Z"/>
              <path class="cls-46" d="m331.71,370.51c0-2.96-16.06-5.35-35.86-5.35s-34.68,2.23-35.79,5.03c5.3-1.97,18.2-3.36,33.27-3.36,19.81,0,35.86,2.4,35.86,5.35,0,.11-.03.21-.07.32,1.67-.62,2.59-1.29,2.59-2Z"/>
            </g>
            <g>
              <path class="cls-46" d="m429.63,408.68c0-4.28-21.79-7.75-48.67-7.75s-48.67,3.47-48.67,7.75v13.35c0,4.28,21.79,7.75,48.67,7.75s48.67-3.47,48.67-7.75v-13.35Z"/>
              <g>
                <path class="cls-40" d="m380.96,400.93c-2.81,0-5.57.04-8.25.11v28.62c2.68.07,5.44.11,8.25.11,6.51,0,12.71-.21,18.39-.57v-27.7c-5.68-.37-11.88-.57-18.39-.57Z"/>
                <path class="cls-40" d="m406.65,402.1v26.51c1.7-.17,3.32-.35,4.87-.55v-25.41c-1.55-.2-3.17-.38-4.87-.55Z"/>
              </g>
              <path class="cls-45" d="m429.63,408.68c0,4.28-21.79,7.75-48.67,7.75s-48.67-3.47-48.67-7.75,21.79-7.75,48.67-7.75,48.67,3.47,48.67,7.75Z"/>
              <path class="cls-47" d="m416.82,408.32c0,2.96-16.05,5.35-35.86,5.35s-35.86-2.4-35.86-5.35,16.06-5.35,35.86-5.35,35.86,2.4,35.86,5.35Z"/>
              <path class="cls-46" d="m416.82,408.32c0-2.96-16.05-5.35-35.86-5.35s-34.68,2.23-35.79,5.03c5.31-1.97,18.2-3.36,33.27-3.36,19.81,0,35.86,2.4,35.86,5.35,0,.11-.03.21-.07.32,1.67-.62,2.59-1.29,2.59-2Z"/>
            </g>
            <g>
              <path class="cls-46" d="m429.26,392.92c0-4.28-21.79-7.75-48.67-7.75s-48.67,3.47-48.67,7.75v13.35c0,4.28,21.79,7.75,48.67,7.75s48.67-3.47,48.67-7.75v-13.35Z"/>
              <g>
                <path class="cls-40" d="m380.59,385.17c-2.81,0-5.56.04-8.25.11v28.62c2.68.07,5.43.11,8.25.11,6.51,0,12.72-.21,18.39-.57v-27.7c-5.67-.37-11.88-.57-18.39-.57Z"/>
                <path class="cls-40" d="m406.29,386.34v26.51c1.7-.17,3.32-.35,4.87-.55v-25.41c-1.55-.2-3.17-.38-4.87-.55Z"/>
              </g>
              <path class="cls-45" d="m429.26,392.92c0,4.28-21.79,7.75-48.67,7.75s-48.67-3.47-48.67-7.75,21.79-7.75,48.67-7.75,48.67,3.47,48.67,7.75Z"/>
              <path class="cls-47" d="m416.46,392.56c0,2.96-16.06,5.35-35.86,5.35s-35.86-2.4-35.86-5.35,16.06-5.35,35.86-5.35,35.86,2.4,35.86,5.35Z"/>
              <path class="cls-46" d="m416.46,392.56c0-2.96-16.06-5.35-35.86-5.35s-34.68,2.23-35.79,5.03c5.3-1.97,18.2-3.36,33.27-3.36,19.81,0,35.86,2.4,35.86,5.35,0,.11-.03.21-.07.32,1.67-.62,2.59-1.29,2.59-2Z"/>
            </g>
            <g>
              <path class="cls-46" d="m423.16,378.5c0-4.28-21.79-7.75-48.67-7.75s-48.67,3.47-48.67,7.75v13.35c0,4.28,21.79,7.75,48.67,7.75s48.67-3.47,48.67-7.75v-13.35Z"/>
              <g>
                <path class="cls-40" d="m374.49,370.75c-2.81,0-5.56.04-8.25.11v28.62c2.68.07,5.43.11,8.25.11,6.51,0,12.72-.21,18.39-.57v-27.7c-5.67-.37-11.88-.57-18.39-.57Z"/>
                <path class="cls-40" d="m400.19,371.91v26.51c1.7-.17,3.32-.35,4.87-.55v-25.41c-1.55-.2-3.17-.38-4.87-.55Z"/>
              </g>
              <path class="cls-45" d="m423.16,378.5c0,4.28-21.79,7.75-48.67,7.75s-48.67-3.47-48.67-7.75,21.79-7.75,48.67-7.75,48.67,3.47,48.67,7.75Z"/>
              <path class="cls-47" d="m410.36,378.14c0,2.96-16.06,5.35-35.86,5.35s-35.86-2.4-35.86-5.35,16.06-5.35,35.86-5.35,35.86,2.4,35.86,5.35Z"/>
              <path class="cls-46" d="m410.36,378.14c0-2.96-16.06-5.35-35.86-5.35s-34.68,2.23-35.79,5.03c5.3-1.97,18.2-3.36,33.27-3.36,19.81,0,35.86,2.4,35.86,5.35,0,.11-.03.21-.07.32,1.67-.62,2.59-1.29,2.59-2Z"/>
            </g>
            <g>
              <path class="cls-46" d="m434.33,362.17c0-4.28-21.79-7.75-48.67-7.75s-48.67,3.47-48.67,7.75v13.35c0,4.28,21.79,7.75,48.67,7.75s48.67-3.47,48.67-7.75v-13.35Z"/>
              <g>
                <path class="cls-40" d="m385.67,354.43c-2.81,0-5.57.04-8.25.11v28.62c2.68.07,5.44.11,8.25.11,6.51,0,12.71-.21,18.39-.57v-27.7c-5.68-.37-11.88-.57-18.39-.57Z"/>
                <path class="cls-40" d="m411.36,355.59v26.51c1.7-.17,3.32-.35,4.87-.55v-25.41c-1.55-.2-3.17-.38-4.87-.55Z"/>
              </g>
              <path class="cls-45" d="m434.33,362.17c0,4.28-21.79,7.75-48.67,7.75s-48.67-3.47-48.67-7.75,21.79-7.75,48.67-7.75,48.67,3.47,48.67,7.75Z"/>
              <path class="cls-47" d="m421.53,361.82c0,2.96-16.05,5.35-35.86,5.35s-35.86-2.4-35.86-5.35,16.06-5.35,35.86-5.35,35.86,2.4,35.86,5.35Z"/>
              <path class="cls-46" d="m421.53,361.82c0-2.96-16.05-5.35-35.86-5.35s-34.68,2.23-35.79,5.03c5.31-1.97,18.2-3.36,33.27-3.36,19.81,0,35.86,2.4,35.86,5.35,0,.11-.03.21-.07.32,1.67-.62,2.59-1.29,2.59-2Z"/>
            </g>
            <g>
              <path class="cls-46" d="m421.01,347.75c0-4.28-21.79-7.75-48.67-7.75s-48.67,3.47-48.67,7.75v13.35c0,4.28,21.79,7.75,48.67,7.75s48.67-3.47,48.67-7.75v-13.35Z"/>
              <g>
                <path class="cls-40" d="m372.35,340c-2.81,0-5.56.04-8.25.11v28.62c2.68.07,5.43.11,8.25.11,6.51,0,12.72-.21,18.39-.57v-27.7c-5.67-.37-11.88-.57-18.39-.57Z"/>
                <path class="cls-40" d="m398.04,341.17v26.51c1.7-.17,3.32-.35,4.87-.55v-25.41c-1.55-.2-3.17-.38-4.87-.55Z"/>
              </g>
              <path class="cls-45" d="m421.01,347.75c0,4.28-21.79,7.75-48.67,7.75s-48.67-3.47-48.67-7.75,21.79-7.75,48.67-7.75,48.67,3.47,48.67,7.75Z"/>
              <path class="cls-47" d="m408.21,347.39c0,2.96-16.06,5.35-35.86,5.35s-35.86-2.4-35.86-5.35,16.06-5.35,35.86-5.35,35.86,2.4,35.86,5.35Z"/>
              <path class="cls-46" d="m408.21,347.39c0-2.96-16.06-5.35-35.86-5.35s-34.68,2.23-35.79,5.03c5.3-1.97,18.2-3.36,33.27-3.36,19.81,0,35.86,2.4,35.86,5.35,0,.11-.03.21-.07.32,1.67-.62,2.59-1.29,2.59-2Z"/>
            </g>
            <g>
              <path class="cls-46" d="m102.36,345.72c-5.82-6.69-13.39-12.04-22.34-15.24-27.84-9.95-58.47,4.55-68.42,32.39-7.26,20.33-1.48,42.14,13.01,56.31,5.82,6.69,13.39,12.04,22.34,15.24,27.84,9.95,58.47-4.55,68.42-32.39,7.27-20.33,1.48-42.14-13.01-56.31Z"/>
              <path class="cls-45" d="m112.41,398.9c-9.95,27.84-40.58,42.34-68.42,32.39-27.84-9.95-42.34-40.58-32.39-68.42,9.95-27.84,40.58-42.34,68.42-32.39,27.84,9.95,42.34,40.58,32.39,68.42Z"/>
              <path class="cls-47" d="m99.26,394.2c-7.35,20.57-29.99,31.29-50.57,23.94-20.58-7.35-31.29-29.99-23.94-50.57,7.35-20.58,30-31.29,50.57-23.94,20.58,7.35,31.29,30,23.94,50.57Z"/>
              <path class="cls-46" d="m76.59,346.15c9.49,3.39,16.88,10.04,21.37,18.24-4.29-9.35-12.19-17.03-22.64-20.77-20.57-7.35-43.21,3.37-50.57,23.94-3.96,11.08-2.67,22.76,2.57,32.33-4.15-9.06-4.92-19.68-1.3-29.8,7.35-20.58,29.99-31.29,50.57-23.94Z"/>
              <g class="cls-52">
                <path class="cls-47" d="m52.55,399.94c-3.43-1.71-7.12-4.8-9.04-8.44l6.03-4.62c2.27,3.41,4.51,5.58,7.43,6.62,3.4,1.22,5.42.36,6.42-2.43,2.23-6.25-13.84-11.86-9.93-22.79,2.13-5.95,7.12-8.82,13.24-7.94l2.24-6.25,5.89,2.11-2.19,6.14c3.69,1.93,5.79,4.88,7.27,8.21l-6.32,3.5c-1.47-2.79-2.99-4.49-5.54-5.4-2.91-1.04-4.91-.46-5.89,2.28-2.06,5.77,14.15,11.01,10,22.61-2.08,5.83-6.91,9.18-13.64,8.28l-2.26,6.32-5.89-2.11,2.17-6.07Z"/>
              </g>
            </g>
          </g>
          <g class="cls-50">
            <path class="cls-8" d="m449.61,274.43c.04-4.27-2.44-6.7-5.67-7.56v-.2c2.61-.96,4.21-4.03,4.24-6.88.05-5.01-3.37-7.17-8.23-7.83l.06-6.04-2.74-.03-.06,5.85c-.24,0-.48-.02-.73-.02l-4.12-.04.06-5.84-2.74-.03-.06,5.84-4.09-.04-.31,32,4.09.04-.04,4.62,2.74.03.04-4.62,4.85.05-.04,4.62,2.74.03.04-4.76c5.68-.59,9.91-3.48,9.97-9.19Zm-16.91-17.15l3.44.03c3.38.03,4.99.98,4.97,3.48-.02,2.31-1.55,3.77-5.09,3.73l-3.38-.03.07-7.21Zm3.87,20.85l-4.07-.04.08-8.24,4.07.04c3.98.04,5.93,1.18,5.9,3.98-.03,2.95-2.05,4.3-5.98,4.26Z"/>
            <path class="cls-6" d="m190.15,23.33c0-3.15-1.85-4.93-4.24-5.55v-.14c1.92-.73,3.08-3.01,3.08-5.11,0-3.7-2.54-5.27-6.14-5.72V2.34h-2.03v4.32c-.18,0-.36,0-.54,0h-3.04V2.34h-2.02v4.31h-3.02v23.64h3.02v3.42h2.02v-3.42h3.58v3.42h2.03v-3.52c4.19-.48,7.3-2.64,7.3-6.86Zm-12.62-12.55h2.54c2.5,0,3.7.69,3.7,2.54,0,1.71-1.12,2.79-3.73,2.79h-2.5v-5.33Zm3.01,15.38h-3.01v-6.09h3.01c2.94,0,4.39.83,4.39,2.9,0,2.18-1.49,3.19-4.39,3.19Z"/>
            <path class="cls-11" d="m14.96,267.95c-3.82.2-8.56-.69-12.01-2.92l2.99-6.99c3.65,1.86,6.67,2.65,9.72,2.13,3.56-.61,4.9-2.35,4.4-5.27-1.12-6.54-17.88-3.54-19.84-14.99-1.07-6.23,1.88-11.18,7.64-13.41l-1.12-6.55,6.17-1.06,1.1,6.42c4.17-.13,7.44,1.41,10.36,3.59l-3.79,6.15c-2.65-1.71-4.8-2.45-7.48-1.99-3.05.52-4.5,2.01-4.01,4.88,1.03,6.03,17.73,2.65,19.81,14.79,1.04,6.1-1.52,11.38-7.83,13.9l1.13,6.61-6.17,1.06-1.09-6.36Z"/>
            <path class="cls-12" d="m262.63,463.07c-1.99-.24-4.36-1.11-5.95-2.57l2.16-3.34c1.72,1.28,3.21,1.96,4.83,1.96,1.89,0,2.74-.78,2.74-2.33,0-3.48-8.92-3.41-8.92-9.5,0-3.31,1.96-5.61,5.13-6.25v-3.48h3.28v3.41c2.16.3,3.72,1.38,5.04,2.77l-2.5,2.84c-1.22-1.12-2.27-1.69-3.69-1.69-1.62,0-2.5.64-2.5,2.16,0,3.21,8.93,2.94,8.93,9.39,0,3.25-1.79,5.75-5.27,6.49v3.51h-3.28v-3.38Z"/>
          </g>
        </g>
      </g>
    </g>
  </g>
</svg>