<?xml version="1.0" encoding="UTF-8"?>
<svg xmlns="http://www.w3.org/2000/svg" xmlns:xlink="http://www.w3.org/1999/xlink" viewBox="0 0 2912.13 2898.11">
  <defs>
    <style>
      .cls-1 {
        opacity: .48;
      }

      .cls-1, .cls-2, .cls-3, .cls-4, .cls-5, .cls-6, .cls-7, .cls-8, .cls-9, .cls-10, .cls-11, .cls-12, .cls-13, .cls-14, .cls-15, .cls-16, .cls-17, .cls-18, .cls-19, .cls-20, .cls-21, .cls-22, .cls-23, .cls-24, .cls-25, .cls-26, .cls-27, .cls-28, .cls-29, .cls-30, .cls-31, .cls-32, .cls-33 {
        stroke-width: 0px;
      }

      .cls-1, .cls-34 {
        mix-blend-mode: soft-light;
      }

      .cls-1, .cls-32 {
        fill: #fff;
      }

      .cls-35, .cls-2 {
        fill: url(#linear-gradient);
      }

      .cls-36 {
        clip-path: url(#clippath);
      }

      .cls-3 {
        fill: url(#linear-gradient-10);
      }

      .cls-3, .cls-4, .cls-5, .cls-20 {
        opacity: .3;
      }

      .cls-3, .cls-4, .cls-5, .cls-20, .cls-21 {
        mix-blend-mode: multiply;
      }

      .cls-4 {
        fill: url(#linear-gradient-18);
      }

      .cls-5 {
        fill: url(#linear-gradient-24);
      }

      .cls-6 {
        fill: url(#linear-gradient-25);
      }

      .cls-7 {
        fill: url(#linear-gradient-11);
      }

      .cls-8 {
        fill: url(#linear-gradient-13);
      }

      .cls-9 {
        fill: url(#linear-gradient-17);
      }

      .cls-10 {
        fill: url(#linear-gradient-16);
      }

      .cls-11 {
        fill: url(#linear-gradient-19);
      }

      .cls-12 {
        fill: url(#linear-gradient-15);
      }

      .cls-13 {
        fill: url(#linear-gradient-23);
      }

      .cls-14 {
        fill: url(#linear-gradient-21);
      }

      .cls-15 {
        fill: url(#linear-gradient-14);
      }

      .cls-16 {
        fill: url(#linear-gradient-22);
      }

      .cls-17 {
        fill: url(#linear-gradient-20);
      }

      .cls-18 {
        fill: url(#linear-gradient-27);
      }

      .cls-19 {
        fill: url(#linear-gradient-26);
      }

      .cls-37 {
        clip-path: url(#clippath-1);
      }

      .cls-20 {
        fill: #97a6b7;
      }

      .cls-21 {
        fill: url(#linear-gradient-12);
        opacity: .4;
      }

      .cls-38, .cls-23 {
        fill: url(#linear-gradient-2);
      }

      .cls-22 {
        fill: url(#linear-gradient-4);
      }

      .cls-24 {
        fill: url(#linear-gradient-3);
      }

      .cls-25 {
        fill: url(#linear-gradient-8);
      }

      .cls-26 {
        fill: url(#linear-gradient-9);
      }

      .cls-27 {
        fill: url(#linear-gradient-7);
      }

      .cls-28 {
        fill: url(#linear-gradient-5);
      }

      .cls-29 {
        fill: url(#linear-gradient-6);
      }

      .cls-39 {
        isolation: isolate;
      }

      .cls-30 {
        fill: #d8dee8;
      }

      .cls-31 {
        fill: #bfc8d6;
      }

      .cls-33 {
        fill: #f4f7fa;
      }
    </style>
    <linearGradient id="linear-gradient" x1="2275.95" y1="758.03" x2="1775.02" y2="1564.68" gradientUnits="userSpaceOnUse">
      <stop offset="0" stop-color="#e38ddd"/>
      <stop offset="1" stop-color="#9571f6"/>
    </linearGradient>
    <clipPath id="clippath">
      <path class="cls-2" d="m1731.05,2152.14c-38.17-104.89-78.75-265.58-43.05-446.56,41-207.82,145.1-252.47,232.71-476.01,125.05-319.1-35.16-542.23,101.65-642.92,66.71-49.1,173.98-52.57,241.62-7.58,192.98,128.36,159.97,715.37-132.09,953.37-132.09,107.64-250.62,99.16-347.95,236.09-86,121-73.98,276.61-52.88,383.6Z"/>
    </clipPath>
    <linearGradient id="linear-gradient-2" x1="2366.36" y1="1056.04" x2="1901.45" y2="2443.15" gradientUnits="userSpaceOnUse">
      <stop offset="0" stop-color="#aa80f9"/>
      <stop offset="1" stop-color="#6165d7"/>
    </linearGradient>
    <clipPath id="clippath-1">
      <path class="cls-23" d="m1395.32,2381.61c-19.46-98.13-33.76-251.9,42.13-392.26,132.41-244.86,390.31-173.28,626.49-438.63,190.49-214.01,123.21-373.46,337.23-518.49,35.82-24.27,224.95-157.6,371.07-85.61,82.34,40.57,114.5,128.22,120.54,144.68,91.26,248.71-152.2,650.45-480.16,841.11-188.43,109.55-251.37,77.73-584.93,209.13-196,77.21-341.95,173.23-432.38,240.06Z"/>
    </clipPath>
    <linearGradient id="linear-gradient-3" x1="1525.23" y1="1138.93" x2="81.32" y2="2325.01" gradientTransform="translate(1356.86 432.83) rotate(17.15)" xlink:href="#linear-gradient"/>
    <linearGradient id="linear-gradient-4" x1="118.36" y1="2584.37" x2="2910.47" y2="2584.37" gradientUnits="userSpaceOnUse">
      <stop offset=".49" stop-color="#ebeff2"/>
      <stop offset="1" stop-color="#fff"/>
    </linearGradient>
    <linearGradient id="linear-gradient-5" x1="1223.72" y1="1255.4" x2="442.01" y2="1506.27" gradientUnits="userSpaceOnUse">
      <stop offset="0" stop-color="#fcb148"/>
      <stop offset=".05" stop-color="#fdb946"/>
      <stop offset=".14" stop-color="#fec144"/>
      <stop offset=".32" stop-color="#ffc444"/>
      <stop offset=".48" stop-color="#fdb946"/>
      <stop offset=".78" stop-color="#f99c4c"/>
      <stop offset=".87" stop-color="#f8924f"/>
      <stop offset="1" stop-color="#f8924f"/>
    </linearGradient>
    <linearGradient id="linear-gradient-6" x1="1856.08" y1="477.29" x2="1158.22" y2="2016.9" gradientUnits="userSpaceOnUse">
      <stop offset="0" stop-color="#ffdb44"/>
      <stop offset="1" stop-color="#feef06"/>
    </linearGradient>
    <linearGradient id="linear-gradient-7" x1="1727.71" y1="2102.95" x2="1593.05" y2="1367.34" xlink:href="#linear-gradient-5"/>
    <linearGradient id="linear-gradient-8" x1="1442.21" y1="912.29" x2="1997.14" y2="2090.29" xlink:href="#linear-gradient-5"/>
    <linearGradient id="linear-gradient-9" x1="1420.11" y1="658.79" x2="1699.14" y2="1704.57" xlink:href="#linear-gradient-6"/>
    <linearGradient id="linear-gradient-10" x1="1278.96" y1="988.52" x2="1832.76" y2="2164.15" xlink:href="#linear-gradient-5"/>
    <linearGradient id="linear-gradient-11" x1="739.78" y1="1368.17" x2="1663.44" y2="102.3" gradientUnits="userSpaceOnUse">
      <stop offset="0" stop-color="#6165d7"/>
      <stop offset="1" stop-color="#aa80f9"/>
    </linearGradient>
    <linearGradient id="linear-gradient-12" x1="1485.34" y1="745.85" x2="1819.34" y2="288.09" xlink:href="#linear-gradient-11"/>
    <linearGradient id="linear-gradient-13" x1="-1161.86" y1="1447.05" x2="-1146.31" y2="1537.74" gradientTransform="translate(-497.9) rotate(-180) scale(1 -1)" gradientUnits="userSpaceOnUse">
      <stop offset="0" stop-color="#ffc444"/>
      <stop offset="1" stop-color="#f36f56"/>
    </linearGradient>
    <linearGradient id="linear-gradient-14" x1="1256.51" y1="937.24" x2="1272.07" y2="1027.95" gradientTransform="translate(-372.18 47.85) rotate(22.97)" xlink:href="#linear-gradient-13"/>
    <linearGradient id="linear-gradient-15" x1="948.83" y1="1254.86" x2="1071.01" y2="1967.26" gradientTransform="translate(-191.01 57.7) rotate(16.01)" gradientUnits="userSpaceOnUse">
      <stop offset="0" stop-color="#ff9085"/>
      <stop offset="1" stop-color="#fb6fbb"/>
    </linearGradient>
    <linearGradient id="linear-gradient-16" x1="-209.27" y1="2913.42" x2="-209.27" y2="2578.46" gradientTransform="translate(751.06 7.07) rotate(2.02)" xlink:href="#linear-gradient-13"/>
    <linearGradient id="linear-gradient-17" x1="-240.54" y1="2269.87" x2="-267.8" y2="2883.25" gradientTransform="translate(751.06 7.07) rotate(2.02)" gradientUnits="userSpaceOnUse">
      <stop offset="0" stop-color="#311944"/>
      <stop offset="1" stop-color="#893976"/>
    </linearGradient>
    <linearGradient id="linear-gradient-18" x1="-240.54" y1="2269.87" x2="-267.8" y2="2883.25" xlink:href="#linear-gradient-17"/>
    <linearGradient id="linear-gradient-19" x1="-181.58" y1="2915.14" x2="-237.62" y2="2730.37" gradientTransform="translate(751.06 7.07) rotate(2.02)" xlink:href="#linear-gradient-15"/>
    <linearGradient id="linear-gradient-20" x1="2242.45" y1="887.58" x2="2242.45" y2="590.72" gradientTransform="translate(-388.26 343.08) rotate(49.3)" xlink:href="#linear-gradient-13"/>
    <linearGradient id="linear-gradient-21" x1="2263.09" y1="898.81" x2="2207.05" y2="714.02" gradientTransform="translate(-388.26 343.08) rotate(49.3)" xlink:href="#linear-gradient-15"/>
    <linearGradient id="linear-gradient-22" x1="-700.56" y1="2388.72" x2="-1272.28" y2="2362.73" gradientTransform="translate(-497.9) rotate(-180) scale(1 -1)" xlink:href="#linear-gradient-17"/>
    <linearGradient id="linear-gradient-23" x1="-927.72" y1="1490.15" x2="-785.55" y2="2319.14" gradientTransform="translate(-497.9) rotate(-180) scale(1 -1)" xlink:href="#linear-gradient-15"/>
    <linearGradient id="linear-gradient-24" x1="1704.13" y1="1963.18" x2="1980.95" y2="2532.41" gradientTransform="translate(2730.14 252.67) rotate(-167.97) scale(1 -1)" xlink:href="#linear-gradient-15"/>
    <linearGradient id="linear-gradient-25" x1="-174.1" y1="1679.38" x2="-238.03" y2="1782.79" gradientTransform="translate(751.06 7.07) rotate(2.02)" xlink:href="#linear-gradient-13"/>
    <linearGradient id="linear-gradient-26" x1="-1166.88" y1="1587.15" x2="-1044.7" y2="2299.53" gradientTransform="translate(-497.9) rotate(-180) scale(1 -1)" xlink:href="#linear-gradient-15"/>
    <linearGradient id="linear-gradient-27" x1="-529.17" y1="2112.54" x2="-270.71" y2="1560.28" gradientTransform="translate(751.06 7.07) rotate(2.02)" gradientUnits="userSpaceOnUse">
      <stop offset="0" stop-color="#444b8c"/>
      <stop offset="1" stop-color="#26264f"/>
    </linearGradient>
  </defs>
  <g class="cls-39">
    <g id="Layer_2" data-name="Layer 2">
      <g id="Illustration">
        <g>
          <path class="cls-33" d="m1401.78,41.48c-294.41,117.06-322.6,416.3-587.68,441.98-230.97,22.38-318.77-194.23-480.83-155.42C86.38,387.16-68.83,975.73,30.32,1459.69c102.38,499.72,532.54,1164.03,1245.18,1209.37,800.09,50.9,1405.48-713.45,1442.44-1384.22,4-72.54,27.6-680.33-437.06-1039.38-23.22-17.94-481.11-362.24-879.1-203.99Z"/>
          <g>
            <g>
              <path class="cls-35" d="m1731.05,2152.14c-38.17-104.89-78.75-265.58-43.05-446.56,41-207.82,145.1-252.47,232.71-476.01,125.05-319.1-35.16-542.23,101.65-642.92,66.71-49.1,173.98-52.57,241.62-7.58,192.98,128.36,159.97,715.37-132.09,953.37-132.09,107.64-250.62,99.16-347.95,236.09-86,121-73.98,276.61-52.88,383.6Z"/>
              <g class="cls-36">
                <g class="cls-34">
                  <path class="cls-32" d="m1701.34,1886.12l-3.48-.77c9.96-45.14,23.87-89.62,41.34-132.22,40.19-97.98,86.18-152.55,144.39-221.64,37.81-44.87,80.67-95.73,129.73-168.2,91.76-135.56,120.05-183.03,144.27-258.67,47.96-149.8,35.62-282.34,24-348.01-16.49-93.16-50.74-181.22-101.8-261.73l3.01-1.91c51.31,80.91,85.73,169.4,102.3,263.02,11.68,66,24.08,199.19-24.11,349.71-24.35,76.07-52.73,123.69-144.71,259.58-49.16,72.63-92.08,123.56-129.95,168.5-58.02,68.85-103.85,123.22-143.82,220.69-17.4,42.41-31.24,86.7-41.16,131.64Z"/>
                  <path class="cls-32" d="m2183.31,999.87l-.15-2.93c-5.41-108.96-77.37-177.3-136.78-215.45-64.5-41.42-128.49-57.18-129.13-57.34l.84-3.46c.64.16,65.22,16.06,130.22,57.8,59.57,38.25,131.6,106.55,138.25,215.27,11.25-7.13,58.19-38.77,99.63-94.55,43.53-58.6,89.73-156.62,62.61-290.85l3.49-.7c27.39,135.58-19.32,234.59-63.32,293.79-47.66,64.11-102.57,96.62-103.12,96.94l-2.53,1.48Z"/>
                  <path class="cls-32" d="m2167.49,1350.63c-72.47,0-126.84-22.24-127.82-22.65l-1.38-.58.33-1.46c24.67-108.02-2.25-186.14-29.18-232.65-29.16-50.36-64.51-75.48-64.86-75.73l2.04-2.92c.36.25,36.35,25.83,65.9,76.86,27.12,46.85,54.25,125.37,29.91,233.74,16.81,6.52,182.28,66.3,316.29-45.06l2.27,2.74c-63.8,53.02-134.63,67.71-193.5,67.71Z"/>
                  <path class="cls-32" d="m2047.1,1559.85c-27.82,0-51.14-3.4-69.72-7.83-51.9-12.36-79.09-35.24-79.35-35.47l-.97-.83.47-1.19c43.99-110.25-27.96-286.12-28.69-287.89l3.29-1.36c.73,1.77,72.7,177.69,29.19,289.34,11.19,8.66,117.03,84.12,307.73,7.46l1.33,3.3c-64.79,26.05-119.58,34.46-163.29,34.46Z"/>
                </g>
              </g>
            </g>
            <g>
              <path class="cls-38" d="m1395.32,2381.61c-19.46-98.13-33.76-251.9,42.13-392.26,132.41-244.86,390.31-173.28,626.49-438.63,190.49-214.01,123.21-373.46,337.23-518.49,35.82-24.27,224.95-157.6,371.07-85.61,82.34,40.57,114.5,128.22,120.54,144.68,91.26,248.71-152.2,650.45-480.16,841.11-188.43,109.55-251.37,77.73-584.93,209.13-196,77.21-341.95,173.23-432.38,240.06Z"/>
              <g class="cls-37">
                <g class="cls-34">
                  <path class="cls-32" d="m1370.26,2501.18l-3.51-.62c41.55-237.36,129.59-398.76,261.69-479.71,64.66-39.62,116.91-47.24,172.23-55.29,59.5-8.67,121.02-17.63,200.94-69.52,77.68-50.43,104.6-97.46,138.69-157,30.66-53.55,68.81-120.2,156.35-210.14,76.73-78.84,133.24-116.39,183.1-149.53,54.01-35.89,96.67-64.25,144.95-131.89,78.87-110.49,117.46-250.17,114.72-415.15l3.56-.06c2.76,165.76-36.06,306.15-115.38,417.28-48.67,68.18-91.57,96.69-145.88,132.79-49.71,33.04-106.05,70.48-182.52,149.05-87.23,89.62-125.26,156.05-155.81,209.43-34.33,59.96-61.44,107.32-139.84,158.22-80.58,52.32-142.49,61.33-202.37,70.06-54.94,8-106.84,15.56-170.88,54.8-131.18,80.39-218.67,240.97-260.04,477.29Z"/>
                  <path class="cls-32" d="m2456.66,1397.14l.67-2.29c.98-3.32,96.37-334.03-28.54-465.47l2.58-2.45c36.48,38.39,76.96,119.02,62.61,285.13-7.77,89.99-28.63,167.39-32.59,181.51,179.52-.89,310.71-73.02,389.28-133.52,85.55-65.88,128.91-132.57,129.33-133.23l3,1.92c-.43.67-44.04,67.79-130.04,134.04-79.37,61.14-212.14,134.08-393.93,134.35h-2.38Z"/>
                  <path class="cls-32" d="m2476.14,1675.65c-18.08,0-35.21-.61-51.22-1.64-125.81-8.07-212.07-42.83-212.93-43.18l-1.42-.58.36-1.49c41.68-172.16-7.67-413.67-8.17-416.09l3.49-.73c.5,2.42,49.72,243.31,8.51,416.15,11.68,4.51,94.06,34.92,210.52,42.37,115.54,7.4,289.25-6.96,460.58-117.27l1.93,2.99c-148.45,95.57-298.65,119.46-411.65,119.46Z"/>
                  <path class="cls-32" d="m2328.86,2078.73c-299.07,0-473.68-117.48-475.52-118.74l-1.54-1.06,1.14-1.49c124.51-162.3,65.68-422.07,65.08-424.68l3.47-.81c.61,2.61,59.45,262.39-64.56,426.13,19.28,12.48,214.08,132.57,533.96,115.42l.19,3.56c-21.28,1.14-42.04,1.67-62.2,1.67Z"/>
                </g>
              </g>
            </g>
            <path class="cls-24" d="m1269.99,2383.14c53.6-41.19,141.58-101.13,261-147.81,212.41-83.03,312.3-41.25,400.35-134.98,91.14-97.03,27.2-187.68,136.56-296.27,9.2-9.13,126.71-122.82,237.51-85.43,77.51,26.16,110.11,112.21,125.41,152.59,59.38,156.71,35.52,399.14-129.71,523.62-156.65,118.02-361.26,70.7-426.24,55.22-113.99-27.16-142.18-70.35-257.96-94.53-140.8-29.41-265.57-.3-346.92,27.59Z"/>
          </g>
          <g>
            <g>
              <path class="cls-31" d="m2910.47,2563.78l-2792.11-24.13v71.41c0,19.38,12.18,35.86,28.67,38.8l789.53,140.62c9.37,1.67,18.87,2.11,28.33,1.32l1915.24-160.33c17.1-1.43,30.34-17.96,30.34-37.88v-29.81Z"/>
              <g>
                <path class="cls-31" d="m1882.97,2449.34l-1774.61,130.64c-31.76,2.34-57.57-22.5-57.57-55.49v-1321.5c0-32.98,25.82-59.72,57.57-59.72h1774.61c26.16,0,47.31,24.17,47.31,53.99v1194.61c0,29.82-21.15,55.55-47.31,57.47Z"/>
                <path class="cls-32" d="m1911.26,2449.34l-1774.61,130.64c-31.76,2.34-57.58-22.5-57.58-55.49v-1321.5c0-32.98,25.82-59.72,57.58-59.72h1774.61c26.16,0,47.31,24.17,47.31,53.99v1194.61c0,29.82-21.15,55.55-47.31,57.47Z"/>
                <path class="cls-30" d="m1855.98,2365.12l-1652.86,113.48c-25.84,1.77-46.84-18.61-46.84-45.54v-1156.98c0-26.93,21-48.85,46.84-48.96l1652.86-7.13c21.58-.09,39.04,19.71,39.04,44.24v1053.8c0,24.53-17.46,45.61-39.04,47.09Z"/>
                <path class="cls-32" d="m1086.63,1179.41c0,12.28-9.13,22.26-20.41,22.3-11.29.04-20.46-9.91-20.46-22.22s9.16-22.29,20.46-22.3c11.28,0,20.41,9.94,20.41,22.22Z"/>
                <path class="cls-1" d="m136.64,2579.98l1765.63-129.98,8.98-.66c12-.88,22.92-6.82,31.26-15.82-127.06-6.95-205.97-52.04-256.88-98.63-102.23-93.56-84.5-185.83-194.75-247.34-137.51-76.73-245.63,20.5-349.97-75.43-63.26-58.16-32.2-101.53-110.04-188.43-86.21-96.26-142.34-63.9-228.99-150.53-109.55-109.54-54.76-194.77-149.13-273.42-114.48-95.41-237.95-7.1-346.92-98.6-47-39.47-72.8-96.84-86.26-157.86h-82.91c-31.76,0-57.58,26.74-57.58,59.72v1321.5c0,32.98,25.81,57.82,57.57,55.49Z"/>
              </g>
              <path class="cls-22" d="m1994.87,2442.1l-1876.52,137.51,818.2,145.73c9.37,1.67,18.87,2.11,28.33,1.32l1945.59-162.87-885.74-120.75c-9.91-1.35-19.9-1.66-29.85-.93Z"/>
              <polygon class="cls-30" points="392.17 2580.79 1954.43 2464.6 2437.93 2529.99 889.13 2654.18 392.17 2580.79"/>
            </g>
            <g>
              <path class="cls-20" d="m1333.93,1584.21c-53.55-171.91-225.72-271.17-384.57-221.7-158.85,49.48-244.21,228.95-190.67,400.86,53.55,171.91,225.72,271.17,384.57,221.7,158.85-49.48,244.21-228.95,190.67-400.86Zm-249,209.9l1.09,46.91-45.07,1.04-1.02-43.7c-30.85-.66-60.94-8.24-78.65-17.96l12.55-54.13c19.57,10.12,46.93,19.16,76.83,18.46,26.22-.61,43.92-11.15,43.49-29.55-.41-17.48-15.38-28.18-49.68-38.89-49.6-15.41-83.71-37.63-84.75-82.25-.94-40.47,26.84-72.87,75.83-83.68l-1.01-43.7,45.08-1.04.94,40.48c30.85.66,51.7,6.62,67.05,13.62l-12.13,52.29c-12.08-4.78-33.48-14.87-66.6-14.1-29.9.69-39.25,13.8-38.95,26.68.35,15.18,16.68,24.46,56.11,38.27,55.19,18.05,77.85,42.83,78.81,84.22.95,40.94-27.21,76.57-79.9,87.01Z"/>
              <path class="cls-20" d="m1360.1,2215.12c0,21.75-17.21,40.35-39.15,41.56l-543.26,29.86c-25.88,1.42-47.44-16.74-47.44-40.58v-89.92c0-23.84,21.79-43.8,47.67-44.59l542.69-16.54c21.94-.67,39.49,16.42,39.49,38.17v82.04Z"/>
            </g>
          </g>
          <g>
            <path class="cls-28" d="m2123.63,1227.04c0,362.64-283.57,647.92-646,636.79-377.18-11.58-694.4-337.33-694.4-727.15s317.22-672.8,694.4-633.52c362.43,37.74,646,361.25,646,723.89Z"/>
            <path class="cls-29" d="m2221.57,1195.77c0,362.64-283.57,647.92-646,636.79-377.18-11.58-694.4-337.34-694.4-727.15s317.22-672.8,694.4-633.53c362.43,37.74,646,361.25,646,723.89Z"/>
            <path class="cls-27" d="m2193.12,1193.85c0,346.67-271.32,618.93-617.55,607.71-359.67-11.65-661.64-322.53-661.64-693.95s301.98-641.59,661.64-604.74c346.23,35.47,617.55,344.31,617.55,690.98Z"/>
            <path class="cls-25" d="m2172.75,1192.48c0,335.24-262.54,598.19-597.17,586.95-347.17-11.66-638.31-311.91-638.31-670.24s291.13-619.33,638.31-584.18c334.64,33.89,597.17,332.23,597.17,667.47Z"/>
            <path class="cls-26" d="m1572.15,639.05h0c17.81,1.69,32.22,17.73,32.22,35.81v61.72c35.61,3.98,71.26,10.17,106.97,18.56,26.33,6.19,52.48,13.55,78.46,22.09,15.56,5.12,26.17,20.83,24.58,37.04l-7.58,77.4c-2.01,20.53-22.31,32.59-41.42,24.07-17.11-7.63-34.65-14.17-52.63-19.61-31.37-9.49-64.46-15.68-99.28-18.55l-9.1-.75v176.77c92.9,25.99,161.12,60.95,205.2,104.93,43.88,43.77,65.74,98.31,65.74,163.79,0,70.81-24.17,127.52-72.7,170.28-48.79,42.99-117.19,67.17-205.65,72.41v68.13c0,18.09-14.42,32.19-32.25,31.48l-.57-.02c-17.86-.71-32.36-16-32.36-34.16v-67.2l-14.36-.65c-41.47-1.87-81.19-6.1-119.14-12.7-28.11-4.89-55.55-11.2-82.33-18.93-16.2-4.68-27.31-20.11-25.83-36.68l8.92-99.49c1.93-21.51,23.53-34.02,43.98-25.96,23.84,9.4,47.98,17.33,72.41,23.77,38.07,10.04,76.66,16.48,115.76,19.34l.57-196.63c-89.17-22.06-155.93-54.74-199.79-98.03-44.07-43.49-66.18-99.15-66.18-166.82s23.98-124.09,71.74-162.03c47.53-37.75,115.09-56.53,202.25-56.48v-63.1c0-18.15,14.49-31.48,32.33-29.79Zm-32.33,235.96c-27.56,2.01-49.05,9.57-64.43,22.72-15.41,13.16-23.12,30.86-23.12,53.06,0,21.04,7.13,38.62,21.39,52.73,14.23,14.09,36.3,25.35,66.16,33.75v-162.26Zm57.15,356.05v180.31c29.96.06,52.93-7.09,68.97-21.44,16.01-14.32,24-34.55,24-60.7,0-23.84-7.43-43.62-22.31-59.35-14.9-15.75-38.43-28.69-70.66-38.83Z"/>
            <path class="cls-3" d="m1467.51,1274.57c20.18-199.27,203.32-283.63,179.42-466.94-14.73-112.98-100.36-208.19-195.88-282.53-289.73,30.38-513.78,270.29-513.78,584.08,0,358.33,291.13,658.59,638.31,670.24,33.71,1.13,66.63-.62,98.64-4.82-137.88-137.2-224.04-328.84-206.71-500.04Z"/>
          </g>
          <g>
            <path class="cls-7" d="m2092.56,778.6v2.83c-24.77-33.83-69.14-80.82-95.71-108.03-.5-1.2-1.33-2.41-1.82-3.61-14.83-35.56-34.83-74.06-60.94-112.49-25.94-38.53-58.9-76.47-97.33-111.39-4.6-4.53-9.92-8.53-14.84-12.81-2.51-2.09-5.05-4.25-7.6-6.33l-3.73-3.18c-1.31-1.06-2.66-2.02-3.97-3.04-5.27-4-10.55-8.03-15.86-12.1l-3.96-3.04-4.17-2.83c-2.76-1.91-5.52-3.82-8.28-5.7-10.9-7.89-22.65-14.72-34.11-21.94-5.84-3.5-11.96-6.72-17.9-10.05-2.94-1.66-5.95-3.36-8.95-4.99-3.08-1.52-6.19-3.08-9.23-4.6-49.11-24.8-102.69-42.74-157.64-52.62-6.86-1.13-13.73-2.27-20.67-3.4-6.9-.95-13.91-1.56-20.77-2.37l-10.4-1.17-10.44-.57-10.44-.64c-3.47-.18-6.9-.53-10.4-.46-6.94-.04-13.87-.11-20.84-.14-1.7,0-3.54-.11-5.13,0l-4.64.25-9.27.5-9.2.46c-.81.04-1.38.04-2.44.11l-9.45.71-12.63.88-9.45.71-1.59.11-.57.04s-3.29,0,2.23.11l-20.42,3.01c-3.36.53-6.76.85-10.12,1.59l-10.01,2.02-10.01,1.98-4.99.99c-1.66.32-3.29.81-4.92,1.2-6.55,1.66-13.09,3.29-19.6,4.99-3.29.71-6.47,1.84-9.66,2.8l-9.55,3.01-9.55,2.87-9.34,3.43c-6.23,2.34-12.46,4.39-18.51,6.86-6.01,2.55-12.06,5.1-18.05,7.68-47.59,21.16-90.37,48.51-126.78,79.76l-6.86,5.73-6.51,6.12c-4.32,4.03-8.78,7.89-12.88,12.03-.18.14-.32.35-.49.5-8,8.28-16.1,16.06-23.28,24.63-1.91,2.09-3.79,4.21-5.63,6.33l-2.83,3.11-2.62,3.33c-3.5,4.32-6.97,8.67-10.44,12.95-.85,1.06-1.77,2.09-2.62,3.18l-2.37,3.33c-1.63,2.23-3.22,4.46-4.81,6.62-3.11,4.46-6.51,8.56-9.31,13.16-23.64,35.38-41.65,70.77-53.89,104.53-12.35,33.69-19.67,65.28-23.88,93.2-.46,3.5-.92,6.94-1.38,10.33-.39,3.36-1.06,6.65-1.2,9.94-.53,6.58-1.06,12.84-1.59,18.82-.35,6.09-.35,11.93-.6,17.41-.11,2.76-.28,5.45-.32,8.03.11,2.65.18,5.24.21,7.71.07,4.99.14,9.7.21,14.08-.03,1.24.18,1.88.25,2.72.11.81.21,1.63.32,2.41.14,1.56.35,1.34.5,2.76.11,1.2.25,1.77.35,1.77h232.94l-141.54,156.93-329.04,359.86L218.95,814.73h247.45c.35,0,.74-4.25,1.13-7.57.96-7.18,1.98-14.19,3.11-22.72.64-4.25,1.2-8.21,1.88-12.77.35-2.23.67-4.35,1.03-6.69.32-2.3.64-4.78,1.1-6.79,1.73-8.56,3.54-17.59,5.45-27.21,1.03-4.78,2.02-9.66,3.08-14.68,1.13-5.02,2.48-10.12,3.82-15.36,2.69-10.44,5.31-21.41,8.56-32.7,3.47-11.22,7.08-22.86,10.79-34.96,1.81-6.09,4.18-12.07,6.37-18.26,2.23-6.09,4.53-12.35,6.86-18.72,19.21-50.42,45.43-105.34,80.5-160.54,34.93-55.23,79.4-110.26,132.2-161.28,6.4-6.55,13.48-12.53,20.31-18.79,3.47-3.08,6.9-6.19,10.37-9.31l5.27-4.67,5.38-4.46c7.25-5.91,14.58-11.89,21.87-17.87l5.52-4.46,5.73-4.25c3.86-2.87,7.68-5.7,11.54-8.53,15.11-11.57,31.35-22.01,47.49-32.77,8.14-5.24,16.56-10.12,24.95-15.18,4.14-2.48,8.35-4.95,12.56-7.5,4.32-2.34,8.63-4.67,12.95-7.01,68.86-37.72,144.94-66.35,223.91-83.47,9.87-1.95,19.82-3.93,29.72-5.87,9.91-1.84,19.99-3.11,29.97-4.64l15-2.12,15.11-1.49,15.07-1.45c5.03-.46,10.01-1.03,15.07-1.2,10.05-.46,20.13-1.66,30.22-2.12,2.48-.11,5.02-1.06,7.54-1.06h7.57l15.04.85,15.04.5c5.02,0,10.05.67,15.04.92l29.9,1.8c6.79.11,2.33.18,4.07.21l.78.11,1.59.18,3.11.42,6.3.78,12.53,1.56,6.3.78,3.11.39,3.86.53,15.85,2.34,15.85,2.41,7.86,1.24c2.58.42,4.88.99,7.36,1.49,9.66,2.05,19.32,4.14,28.98,6.16,4.81.96,9.55,2.34,14.3,3.57l14.26,3.79,14.15,3.79,13.98,4.42c9.27,3.01,18.58,5.84,27.67,9.09,9.09,3.4,18.12,6.79,27.14,10.19,71.58,28.45,136.9,66.42,193.06,110.61,3.54,2.72,7.04,5.48,10.54,8.21,3.43,2.83,6.8,5.7,10.16,8.6,6.72,5.73,13.48,11.25,19.96,17.13,12.77,12,25.51,23.5,37.15,35.95,2.97,3.04,5.87,6.12,8.85,9.13l4.35,4.53,4.18,4.71c5.55,6.3,11.04,12.56,16.45,18.75l4.07,4.67,3.89,4.81c2.51,3.22,5.1,6.4,7.61,9.59,5.02,6.4,10.3,12.49,14.83,19.11,25.65,34.64,47.38,69.74,65.36,104.35,8.78,16.81,16.6,33.54,23.5,50.07,21.34,50.46,35.03,98.48,43.66,141.26.96,5.38,1.98,10.65,2.94,15.85.92,5.17,2.02,10.23,2.62,15.29,1.34,10.08,2.69,19.74,3.93,29.05,1.06,9.34,1.63,18.33,2.41,26.86.32,4.25.74,8.39.99,12.49.14,4.03.99,8,1.17,11.89.21,7.71,1.45,15.11,1.45,21.94Z"/>
            <path class="cls-21" d="m2092.56,778.6v2.83c-24.77-33.83-69.14-80.82-95.71-108.03-.5-1.2-1.33-2.41-1.82-3.61-14.83-35.56-34.83-74.06-60.94-112.49-25.94-38.53-58.9-76.47-97.33-111.39-4.6-4.53-9.92-8.53-14.84-12.81-2.51-2.09-5.05-4.25-7.6-6.33l-3.73-3.18c-1.31-1.06-2.66-2.02-3.97-3.04-5.27-4-10.55-8.03-15.86-12.1l-3.96-3.04-4.17-2.83c-2.76-1.91-5.52-3.82-8.28-5.7-10.9-7.89-22.65-14.72-34.11-21.94-5.84-3.5-11.96-6.72-17.9-10.05-2.94-1.66-5.95-3.36-8.95-4.99-3.08-1.52-6.19-3.08-9.23-4.6-49.11-24.8-102.69-42.74-157.64-52.62-6.86-1.13-13.73-2.27-20.67-3.4-6.9-.95-13.91-1.56-20.77-2.37l-10.4-1.17-10.44-.57-10.44-.64c-3.47-.18-6.9-.53-10.4-.46-6.94-.04-13.87-.11-20.84-.14-1.7,0-3.54-.11-5.13,0l-4.64.25-9.27.5-9.2.46c-.81.04-1.38.04-2.44.11l-9.45.71-12.63.88-9.45.71-1.59.11-.57.04s-3.29,0,2.23.11l-20.42,3.01c-3.36.53-6.76.85-10.12,1.59l-10.01,2.02-10.01,1.98-4.99.99c-1.66.32-3.29.81-4.92,1.2-6.55,1.66-13.09,3.29-19.6,4.99-3.29.71-6.47,1.84-9.66,2.8l-9.55,3.01-9.55,2.87-9.34,3.43c-6.23,2.34-12.46,4.39-18.51,6.86-6.01,2.55-12.06,5.1-18.05,7.68-47.59,21.16-90.37,48.51-126.78,79.76l-6.86,5.73-6.51,6.12c-4.32,4.03-8.78,7.89-12.88,12.03-.18.14-.32.35-.49.5,104.56-129.47,273.95-213.58,465.1-213.58s368.85,88.28,472.67,223.14c8.78,16.81,16.6,33.54,23.5,50.07,21.34,50.46,35.03,98.48,43.66,141.26.96,5.38,1.98,10.65,2.94,15.85.92,5.17,2.02,10.23,2.62,15.29,1.34,10.08,2.69,19.74,3.93,29.05,1.06,9.34,1.63,18.33,2.41,26.86.32,4.25.74,8.39.99,12.49.14,4.03.99,8,1.17,11.89.21,7.71,1.45,15.11,1.45,21.94Z"/>
          </g>
          <g>
            <path class="cls-8" d="m691.32,1483.08c-5.2-4.18-12.09-11-16.04-21.14-4.23-10.88-1.25-15.72-6.56-22.51-6.73-8.61-20.51-12.32-29.95-8.11-1.99.89-4.42,2.13-5.94,4.7-4.2,7.09,5.12,19.38,12.57,25.92,5.6,4.92,7.92,4.56,13.85,8.75,5.8,4.09,13.09,11.14,18.96,24.06l13.12-11.67Z"/>
            <path class="cls-15" d="m379.74,1423.57c6.42-1.82,15.42-5.41,23.02-13.21,8.14-8.36,7.29-13.98,14.82-18.17,9.56-5.31,23.69-3.34,30.74,4.22,1.49,1.59,3.24,3.68,3.64,6.65,1.1,8.17-12.28,15.84-21.68,18.96-7.08,2.35-9.07,1.11-16.17,2.65-6.93,1.5-16.4,5.15-26.84,14.76l-7.53-15.86Z"/>
            <path class="cls-12" d="m409.52,1433.67c4.14,19.7-17.16,37.23-32.52,54.44-30.82,34.52-63.08,96.11-51.23,148.97,6.47,28.87,27.21,60.09,56.49,74.89,31.52,15.93,50.4,1.44,83.19,20.35,2.42,1.39,43.88,25.98,45.08,59.15,1.49,40.92-58.68,84.46-110.19,87.79-94.2,6.09-207.69-119.17-202.41-243.47,5.76-135.32,151.16-242.73,192.99-224.52,6.59,2.87,16.27,11.32,18.6,22.4Z"/>
            <polygon class="cls-10" points="451.44 2834.88 454.82 2869.16 438.85 2866.27 428.12 2834.06 451.44 2834.88"/>
            <path class="cls-9" d="m354.15,2201.41c1.66,60.88,9.25,112.97,18.25,155.51,9.68,45.75,15.32,53.66,18.34,85.3,6.57,68.85-15.62,78.7-19.69,156.52-4.5,85.93,18.35,154.22,27.33,180.27,7.85,22.77,16.07,41.17,22.25,53.94,7.88,6.87,19.92,4.23,32.62,1.65,4.68-77.94,10.51-151.28,15.19-229.22,15.09-117.24,30.18-234.48,45.27-351.73-53.19-17.41-106.37-34.82-159.56-52.23Z"/>
            <path class="cls-4" d="m453.25,2834.59c4.68-77.94,10.51-151.28,15.19-229.22,15.09-117.24,30.18-234.48,45.27-351.73-53.19-17.41-106.37-34.82-159.56-52.23.11,4.03.31,7.92.47,11.88,74.62,64.8,89.22,116.13,88.49,151.15-.88,42.47-24.11,63.52-19.57,125.09,3.24,44.02,16.48,51.78,16.47,91.51,0,51.16-21.96,79.92-32.66,109.48-10.33,28.57-14.01,69.04,5.95,126.6,2.62,5.94,5.1,11.26,7.31,15.83,7.88,6.87,19.92,4.23,32.62,1.65Z"/>
            <path class="cls-11" d="m445.45,2880.86c-7.56-9.37-14.5-8.68-15.76-15.04-.99-4.99,2.18-11.02,6.82-13.24,6.52-3.11,14.23,2.13,15.97,3.32,11.83,8.05,8.3,20.18,19.49,25.71,2.25,1.11,5.84,2.32,9.56,5.96,1.58,1.55,5.5,5.38,4.51,7.94-1.15,2.96-8.28,2.71-15.05,2.46-8.13-.29-12.2-.43-16.06-2.96-5.35-3.5-3.65-6.93-9.49-14.16Z"/>
            <polygon class="cls-17" points="461.51 2587.56 431.65 2599.25 422.94 2585.55 446.29 2569.86 461.51 2587.56"/>
            <path class="cls-14" d="m415.92,2606.49c1.76-11.91-3.46-16.54.35-21.78,3-4.12,9.58-5.87,14.35-3.97,6.71,2.68,8.08,11.9,8.4,13.98,2.11,14.15-9.2,19.79-5.66,31.76.71,2.41,2.25,5.86,2.11,11.07-.06,2.21-.22,7.69-2.78,8.7-2.95,1.17-7.6-4.24-12.02-9.39-5.3-6.17-7.96-9.26-8.72-13.81-1.06-6.31,2.61-7.38,3.97-16.57Z"/>
            <path class="cls-16" d="m590.7,2147.29c55.63,113.43,74.51,208.01,81.66,269.77,4.59,39.71,4.15,64.27-7.29,88.95-40.95,88.33-183.88,94.17-205.61,94.78-7.14-14.63-14.29-29.27-21.43-43.9,13.15-24.39,36.1-58.25,75.39-82.96,30.22-19,42.03-14.94,49.58-27.71,30.27-51.24-133.13-162.2-108.72-236.07,8.44-25.55,40.95-51.47,136.43-62.86Z"/>
            <path class="cls-13" d="m470.16,1739.55c60.11,10.32,105.87,21.07,126.3,52.55,21.58,33.25-12.73,58.28-22.06,131.24-14.28,111.7,49.94,153.42,31.46,265.89-3.02,18.35-7.59,34.69-12.52,48.64-8.66,24.53-25.47,45.18-47.49,59.02-16.51,10.38-36.59,20.83-60.15,29.07-60.95,21.32-91.02,8.93-173.02,13.61-134.13,7.66-154.22,46.57-214.82,22.65-61.25-24.18-105.58-89.51-92.59-117.43,7.78-16.72,32.32-6.28,67.52-26.8,45.36-26.45,37.74-62.56,74.54-93.53,52.86-44.49,103.71.44,148.93-38.24,45.73-39.13,51.19-134.3,31.75-190.95-12.7-37-12.93-77.24-22.36-115.21-.78-3.15-1.4-8.19.56-13.89,7.5-21.82,47.43-26.01,77.61-28.89,46.03-4.4,81.39,1.42,86.34,2.27Z"/>
            <path class="cls-5" d="m104.89,2319.87c18.57-12.38,8.51-47.46,36.02-66.08,25.53-17.29,45.44,5.32,83.06-6.21,48.26-14.8,45.73-61.25,91.98-76.08,33.25-10.66,43.29,10.56,91.25,11.48,47.88.92,110.66-18.84,150.4-69.6,16.89-21.57,26.33-44.58,31.46-65.85,12.8,41.36,26.71,81.35,16.79,141.72-4.01,24.43-10.8,45.29-17.48,61.7-6.24,15.31-16.77,28.45-30.34,37.9-18.47,12.85-42.64,26.75-72.34,37.14-60.95,21.32-91.02,8.93-173.02,13.61-134.13,7.66-154.22,46.57-214.82,22.65-39.14-15.45-71.29-47.69-86.06-76.26,53.01,38.56,79.62,42.88,93.1,33.9Z"/>
            <path class="cls-6" d="m504.88,1635.52s16.56,31.1,17.61,52.92c1.05,21.82-23.58,20.23-23.58,20.23l.92,13.76c.79,11.75,8.42,21.94,19.47,26l9.72,3.57s-63.42,13.58-98.05-10.89l9.98-.98c14.13-1.38,25.33-12.54,26.77-26.66l.6-5.89s-11-68.01,36.55-72.07Z"/>
            <path class="cls-19" d="m661.06,1489.28c-9.41,17.79,6.23,40.51,16.25,61.29,20.1,41.68,34.13,109.78,8.16,157.32-14.18,25.97-42.73,50.26-74.96,56.41-34.69,6.62-48.84-12.52-85.57-3.38-2.71.67-49.34,12.87-59.65,44.42-12.71,38.93,33.11,97.37,81.7,114.78,88.86,31.84,232.51-57.27,261.71-178.21,31.79-131.66-78.35-275-123.58-269.04-7.12.94-18.76,6.39-24.06,16.4Z"/>
            <path class="cls-18" d="m494.97,1666.44c-3.28-.27-5.99-4.43-8.23-3.19-2.36,1.29-2.09,7.35-.05,11.61,1.68,3.49,4.42,5.46,5.94,6.38-2.53,3.5-5.76,8.95-7.1,16.07-2.97,15.76,5.41,28.44,8.89,35.86,15.71,33.44-8.73,86.32-35.55,113.02-21.8,21.7-31.97,12.98-44.98,30.7-25.33,34.5,9.63,72.42-3.47,118.86-19.92,70.61-131.41,91.62-136.04,92.43-1.82.32-3.04.52-4.94.82-50.02,7.95-125.82,19.99-179.21-21.06-39.94-30.71-58.26-84.17-55.24-131.26.79-12.39,4.55-59.4,42.86-97.77,6.08-6.09,42.09-42.07,90.74-42.51,25.77-.23,30.97,8.85,50.67,3.23,26.98-7.69,43.6-32.22,53.91-47.43,18.97-27.99,11.26-33.97,24.9-47.73,26.74-26.97,58.1-5.79,86.66-29.59,28.15-23.46,11.17-55.29,38.34-75.6,28.03-20.94,81.65-13.63,93.08,11.31,9.82,21.43-11.15,56.68-21.2,55.85Z"/>
          </g>
        </g>
      </g>
    </g>
  </g>
</svg>