<?xml version="1.0" encoding="UTF-8"?>
<svg xmlns="http://www.w3.org/2000/svg" xmlns:xlink="http://www.w3.org/1999/xlink" viewBox="0 0 386.61 429">
  <defs>
    <style>
      .cls-1 {
        opacity: .87;
      }

      .cls-1, .cls-2 {
        fill: #9721c3;
      }

      .cls-1, .cls-2, .cls-3, .cls-4, .cls-5, .cls-6, .cls-7, .cls-8, .cls-9, .cls-10, .cls-11, .cls-12, .cls-13, .cls-14, .cls-15, .cls-16, .cls-17, .cls-18, .cls-19, .cls-20, .cls-21, .cls-22, .cls-23, .cls-24, .cls-25, .cls-26, .cls-27, .cls-28, .cls-29, .cls-30, .cls-31, .cls-32, .cls-33, .cls-34, .cls-35, .cls-36, .cls-37, .cls-38, .cls-39, .cls-40, .cls-41, .cls-42, .cls-43, .cls-44, .cls-45, .cls-46, .cls-47, .cls-48, .cls-49, .cls-50, .cls-51, .cls-52, .cls-53, .cls-54, .cls-55, .cls-56, .cls-57, .cls-58, .cls-59, .cls-60, .cls-61, .cls-62, .cls-63, .cls-64, .cls-65, .cls-66, .cls-67, .cls-68, .cls-69, .cls-70, .cls-71, .cls-72, .cls-73, .cls-74, .cls-75, .cls-76, .cls-77, .cls-78, .cls-79, .cls-80, .cls-81, .cls-82, .cls-83, .cls-84, .cls-85, .cls-86, .cls-87, .cls-88, .cls-89, .cls-90, .cls-91, .cls-92, .cls-93, .cls-94, .cls-95, .cls-96, .cls-97, .cls-98, .cls-99, .cls-100, .cls-101, .cls-102, .cls-103, .cls-104, .cls-105, .cls-106, .cls-107, .cls-108, .cls-109, .cls-110, .cls-111, .cls-112, .cls-113, .cls-114, .cls-115, .cls-116, .cls-117, .cls-118, .cls-119, .cls-120, .cls-121, .cls-122, .cls-123, .cls-124, .cls-125, .cls-126, .cls-127, .cls-128, .cls-129, .cls-130, .cls-131, .cls-132, .cls-133, .cls-134, .cls-135, .cls-136, .cls-137, .cls-138, .cls-139, .cls-140, .cls-141, .cls-142, .cls-143, .cls-144, .cls-145, .cls-146, .cls-147, .cls-148, .cls-149, .cls-150, .cls-151, .cls-152 {
        stroke-width: 0px;
      }

      .cls-1, .cls-2, .cls-3, .cls-4, .cls-5, .cls-6, .cls-7, .cls-8, .cls-9, .cls-10, .cls-11, .cls-12, .cls-13, .cls-14, .cls-15, .cls-16, .cls-17, .cls-19, .cls-20, .cls-21, .cls-94, .cls-95, .cls-96, .cls-97, .cls-98, .cls-99, .cls-100, .cls-101, .cls-102, .cls-103, .cls-104, .cls-105, .cls-106, .cls-107, .cls-108, .cls-109, .cls-110, .cls-111, .cls-112, .cls-113, .cls-114, .cls-115, .cls-116, .cls-117, .cls-118, .cls-119, .cls-120, .cls-121, .cls-129, .cls-130, .cls-131, .cls-132, .cls-133, .cls-134, .cls-136, .cls-137, .cls-138, .cls-139, .cls-149, .cls-150, .cls-151, .cls-152 {
        mix-blend-mode: multiply;
      }

      .cls-2 {
        opacity: .87;
      }

      .cls-3 {
        opacity: .32;
      }

      .cls-3, .cls-4 {
        fill: #d9ade9;
      }

      .cls-4 {
        opacity: .32;
      }

      .cls-5 {
        fill: #8800ba;
      }

      .cls-6 {
        opacity: .16;
      }

      .cls-6, .cls-7 {
        fill: #ecd6f4;
      }

      .cls-7 {
        opacity: .16;
      }

      .cls-8 {
        opacity: .61;
      }

      .cls-8, .cls-9 {
        fill: #b663d5;
      }

      .cls-9 {
        opacity: .61;
      }

      .cls-10 {
        opacity: .65;
      }

      .cls-10, .cls-11 {
        fill: #b25ad2;
      }

      .cls-11 {
        opacity: .65;
      }

      .cls-153 {
        mask: url(#mask);
      }

      .cls-154 {
        filter: url(#luminosity-noclip);
      }

      .cls-12 {
        opacity: .68;
      }

      .cls-12, .cls-13 {
        fill: #ae52d0;
      }

      .cls-13 {
        opacity: .68;
      }

      .cls-14 {
        opacity: .06;
      }

      .cls-14, .cls-15 {
        fill: #f7effb;
      }

      .cls-15 {
        opacity: .06;
      }

      .cls-16 {
        opacity: .35;
      }

      .cls-16, .cls-17 {
        fill: #d5a5e7;
      }

      .cls-17 {
        opacity: .35;
      }

      .cls-18 {
        fill: url(#linear-gradient-2);
        mix-blend-mode: overlay;
        opacity: .6;
      }

      .cls-19 {
        opacity: .71;
      }

      .cls-19, .cls-20 {
        fill: #ab4ace;
      }

      .cls-20 {
        opacity: .71;
      }

      .cls-21 {
        fill: url(#linear-gradient);
      }

      .cls-22 {
        fill: url(#linear-gradient-38);
      }

      .cls-23 {
        fill: url(#linear-gradient-33);
      }

      .cls-24 {
        fill: url(#linear-gradient-29);
      }

      .cls-25 {
        fill: url(#linear-gradient-32);
      }

      .cls-26 {
        fill: url(#linear-gradient-30);
      }

      .cls-27 {
        fill: url(#linear-gradient-31);
      }

      .cls-28 {
        fill: url(#linear-gradient-36);
      }

      .cls-29 {
        fill: url(#linear-gradient-39);
      }

      .cls-30 {
        fill: url(#linear-gradient-34);
      }

      .cls-31 {
        fill: url(#linear-gradient-37);
      }

      .cls-32 {
        fill: url(#linear-gradient-35);
      }

      .cls-33 {
        fill: url(#linear-gradient-28);
      }

      .cls-34 {
        fill: url(#linear-gradient-25);
      }

      .cls-35 {
        fill: url(#linear-gradient-11);
      }

      .cls-36 {
        fill: url(#linear-gradient-12);
      }

      .cls-37 {
        fill: url(#linear-gradient-13);
      }

      .cls-38 {
        fill: url(#linear-gradient-10);
      }

      .cls-39 {
        fill: url(#linear-gradient-17);
      }

      .cls-40 {
        fill: url(#linear-gradient-16);
      }

      .cls-41 {
        fill: url(#linear-gradient-19);
      }

      .cls-42 {
        fill: url(#linear-gradient-15);
      }

      .cls-43 {
        fill: url(#linear-gradient-23);
      }

      .cls-44 {
        fill: url(#linear-gradient-21);
      }

      .cls-45 {
        fill: url(#linear-gradient-18);
      }

      .cls-46 {
        fill: url(#linear-gradient-14);
      }

      .cls-47 {
        fill: url(#linear-gradient-22);
      }

      .cls-48 {
        fill: url(#linear-gradient-20);
      }

      .cls-49 {
        fill: url(#linear-gradient-27);
      }

      .cls-50 {
        fill: url(#linear-gradient-24);
      }

      .cls-51 {
        fill: url(#linear-gradient-26);
      }

      .cls-52 {
        fill: url(#linear-gradient-45);
      }

      .cls-53 {
        fill: url(#linear-gradient-46);
      }

      .cls-54 {
        fill: url(#linear-gradient-44);
      }

      .cls-55 {
        fill: url(#linear-gradient-48);
      }

      .cls-56 {
        fill: url(#linear-gradient-49);
      }

      .cls-57 {
        fill: url(#linear-gradient-47);
      }

      .cls-58 {
        fill: url(#linear-gradient-42);
      }

      .cls-59 {
        fill: url(#linear-gradient-43);
      }

      .cls-60 {
        fill: url(#linear-gradient-40);
      }

      .cls-61 {
        fill: url(#linear-gradient-41);
      }

      .cls-62 {
        fill: url(#linear-gradient-59);
      }

      .cls-63 {
        fill: url(#linear-gradient-57);
      }

      .cls-64 {
        fill: url(#linear-gradient-58);
      }

      .cls-65 {
        fill: url(#linear-gradient-55);
      }

      .cls-66 {
        fill: url(#linear-gradient-56);
      }

      .cls-67 {
        fill: url(#linear-gradient-53);
      }

      .cls-68 {
        fill: url(#linear-gradient-51);
      }

      .cls-69 {
        fill: url(#linear-gradient-52);
      }

      .cls-70 {
        fill: url(#linear-gradient-50);
      }

      .cls-71 {
        fill: url(#linear-gradient-54);
      }

      .cls-72 {
        fill: url(#linear-gradient-60);
      }

      .cls-73 {
        fill: url(#linear-gradient-61);
      }

      .cls-74 {
        fill: url(#linear-gradient-62);
      }

      .cls-75 {
        fill: url(#linear-gradient-65);
      }

      .cls-76 {
        fill: url(#linear-gradient-79);
      }

      .cls-77 {
        fill: url(#linear-gradient-78);
      }

      .cls-78 {
        fill: url(#linear-gradient-77);
      }

      .cls-79 {
        fill: url(#linear-gradient-75);
      }

      .cls-80 {
        fill: url(#linear-gradient-76);
      }

      .cls-81 {
        fill: url(#linear-gradient-74);
      }

      .cls-82 {
        fill: url(#linear-gradient-67);
      }

      .cls-83 {
        fill: url(#linear-gradient-68);
      }

      .cls-84 {
        fill: url(#linear-gradient-66);
      }

      .cls-85 {
        fill: url(#linear-gradient-63);
      }

      .cls-86 {
        fill: url(#linear-gradient-69);
      }

      .cls-87 {
        fill: url(#linear-gradient-64);
      }

      .cls-88 {
        fill: url(#linear-gradient-71);
      }

      .cls-89 {
        fill: url(#linear-gradient-72);
      }

      .cls-90 {
        fill: url(#linear-gradient-70);
      }

      .cls-91 {
        fill: url(#linear-gradient-73);
      }

      .cls-92 {
        fill: url(#linear-gradient-80);
      }

      .cls-93 {
        fill: url(#linear-gradient-81);
      }

      .cls-94 {
        opacity: .74;
      }

      .cls-94, .cls-95 {
        fill: #a742cc;
      }

      .cls-95 {
        opacity: .74;
      }

      .cls-96 {
        opacity: .13;
      }

      .cls-96, .cls-97 {
        fill: #f0def6;
      }

      .cls-97 {
        opacity: .13;
      }

      .cls-98 {
        opacity: .55;
      }

      .cls-98, .cls-99 {
        fill: #be73d9;
      }

      .cls-99 {
        opacity: .55;
      }

      .cls-100 {
        opacity: .26;
      }

      .cls-100, .cls-101 {
        fill: #e0bded;
      }

      .cls-101 {
        opacity: .26;
      }

      .cls-102 {
        opacity: .58;
      }

      .cls-102, .cls-103 {
        fill: #ba6bd7;
      }

      .cls-103 {
        opacity: .58;
      }

      .cls-104 {
        opacity: .29;
      }

      .cls-104, .cls-105 {
        fill: #dcb5eb;
      }

      .cls-105 {
        opacity: .29;
      }

      .cls-106 {
        opacity: .9;
      }

      .cls-106, .cls-107 {
        fill: #9419c1;
      }

      .cls-107 {
        opacity: .9;
      }

      .cls-108 {
        opacity: .23;
      }

      .cls-108, .cls-109 {
        fill: #e4c5ef;
      }

      .cls-109 {
        opacity: .23;
      }

      .cls-110 {
        opacity: .45;
      }

      .cls-110, .cls-111 {
        fill: #c98ce0;
      }

      .cls-111 {
        opacity: .45;
      }

      .cls-112 {
        opacity: .52;
      }

      .cls-112, .cls-113 {
        fill: #c27bdb;
      }

      .cls-113 {
        opacity: .52;
      }

      .cls-114 {
        opacity: .94;
      }

      .cls-114, .cls-115 {
        fill: #9010be;
      }

      .cls-115 {
        opacity: .94;
      }

      .cls-155 {
        opacity: .9;
      }

      .cls-156 {
        opacity: .8;
      }

      .cls-116 {
        opacity: .1;
      }

      .cls-116, .cls-117 {
        fill: #f3e6f8;
      }

      .cls-117 {
        opacity: .1;
      }

      .cls-118 {
        opacity: .97;
      }

      .cls-118, .cls-119 {
        fill: #8c08bc;
      }

      .cls-119 {
        opacity: .97;
      }

      .cls-120 {
        opacity: .48;
      }

      .cls-120, .cls-121 {
        fill: #c584de;
      }

      .cls-121 {
        opacity: .48;
      }

      .cls-122 {
        fill: url(#linear-gradient-4);
      }

      .cls-123 {
        fill: url(#linear-gradient-3);
      }

      .cls-124 {
        fill: url(#linear-gradient-8);
      }

      .cls-125 {
        fill: url(#linear-gradient-9);
      }

      .cls-126 {
        fill: url(#linear-gradient-7);
      }

      .cls-127 {
        fill: url(#linear-gradient-5);
      }

      .cls-128 {
        fill: url(#linear-gradient-6);
      }

      .cls-129 {
        opacity: .19;
      }

      .cls-129, .cls-130 {
        fill: #e8cef2;
      }

      .cls-157 {
        isolation: isolate;
      }

      .cls-130 {
        opacity: .19;
      }

      .cls-131 {
        opacity: .39;
      }

      .cls-131, .cls-132 {
        fill: #d19ce4;
      }

      .cls-132 {
        opacity: .39;
      }

      .cls-133 {
        opacity: .81;
      }

      .cls-133, .cls-134 {
        fill: #9f31c7;
      }

      .cls-134 {
        opacity: .81;
      }

      .cls-135 {
        opacity: 0;
      }

      .cls-135, .cls-146 {
        fill: #fff;
      }

      .cls-136 {
        opacity: .03;
      }

      .cls-136, .cls-137 {
        fill: #fbf7fd;
      }

      .cls-137 {
        opacity: .03;
      }

      .cls-138 {
        opacity: .77;
      }

      .cls-138, .cls-139 {
        fill: #a33aca;
      }

      .cls-139 {
        opacity: .77;
      }

      .cls-158 {
        mask: url(#mask-1);
      }

      .cls-140 {
        fill: #7146ce;
      }

      .cls-141 {
        fill: #554fc6;
      }

      .cls-142 {
        fill: #3b3bc4;
      }

      .cls-143 {
        fill: #1800c2;
      }

      .cls-144 {
        fill: #dfd2ff;
      }

      .cls-145 {
        fill: #b590ff;
      }

      .cls-147 {
        fill: #efe1ee;
      }

      .cls-148 {
        fill: #f5e9e6;
      }

      .cls-149 {
        opacity: .84;
      }

      .cls-149, .cls-150 {
        fill: #9b29c5;
      }

      .cls-150 {
        opacity: .84;
      }

      .cls-151 {
        opacity: .42;
      }

      .cls-151, .cls-152 {
        fill: #cd94e2;
      }

      .cls-152 {
        opacity: .42;
      }
    </style>
    <filter id="luminosity-noclip" x="36.91" y="0" width="312.79" height="336.63" color-interpolation-filters="sRGB" filterUnits="userSpaceOnUse">
      <feFlood flood-color="#fff" result="bg"/>
      <feBlend in="SourceGraphic" in2="bg"/>
    </filter>
    <filter id="luminosity-noclip-2" x="36.91" y="-8417" width="312.79" height="32766" color-interpolation-filters="sRGB" filterUnits="userSpaceOnUse">
      <feFlood flood-color="#fff" result="bg"/>
      <feBlend in="SourceGraphic" in2="bg"/>
    </filter>
    <mask id="mask-1" x="36.91" y="-8417" width="312.79" height="32766" maskUnits="userSpaceOnUse"/>
    <linearGradient id="linear-gradient" x1="193.31" y1="5.99" x2="193.31" y2="363.36" gradientUnits="userSpaceOnUse">
      <stop offset="0" stop-color="#000"/>
      <stop offset="1" stop-color="#fff"/>
    </linearGradient>
    <mask id="mask" x="36.91" y="0" width="312.79" height="336.63" maskUnits="userSpaceOnUse">
      <g class="cls-154">
        <g class="cls-158">
          <path class="cls-21" d="m36.91,244.75h.01c.13,5.91,3.77,11.53,11.07,15.77l120.16,69.65c16.44,9.53,45.18,8.39,64.21-2.55l101.6-58.42c10.57-6.08,15.9-13.9,15.74-21.29h0s-.05-247.91-.05-247.91H36.96l-.05,244.75Z"/>
        </g>
      </g>
    </mask>
    <linearGradient id="linear-gradient-2" x1="193.31" y1="5.99" x2="193.31" y2="363.36" gradientUnits="userSpaceOnUse">
      <stop offset="0" stop-color="#9c74ff"/>
      <stop offset="1" stop-color="#ffff5e"/>
    </linearGradient>
    <linearGradient id="linear-gradient-3" x1="243.76" y1="266.21" x2="154" y2="266.21" gradientUnits="userSpaceOnUse">
      <stop offset="0" stop-color="#ba83ff"/>
      <stop offset="1" stop-color="#b0a4e2"/>
    </linearGradient>
    <linearGradient id="linear-gradient-4" x1="677.53" y1="528.7" x2="-81.82" y2="85.89" gradientUnits="userSpaceOnUse">
      <stop offset="0" stop-color="#9c74ff"/>
      <stop offset="1" stop-color="#fff6e2"/>
    </linearGradient>
    <linearGradient id="linear-gradient-5" x1="188.03" y1="156.82" x2="176.76" y2="156.82" gradientUnits="userSpaceOnUse">
      <stop offset="0" stop-color="#3d00e7"/>
      <stop offset="1" stop-color="#6031ff"/>
    </linearGradient>
    <linearGradient id="linear-gradient-6" x1="322.81" y1="192.5" x2="86.36" y2="20.75" gradientUnits="userSpaceOnUse">
      <stop offset="0" stop-color="#6318ff"/>
      <stop offset="1" stop-color="#fff6e2"/>
    </linearGradient>
    <linearGradient id="linear-gradient-7" x1="279.87" y1="160.76" x2="100.29" y2="30.31" gradientUnits="userSpaceOnUse">
      <stop offset="0" stop-color="#4500ff"/>
      <stop offset="1" stop-color="#6a31ff"/>
    </linearGradient>
    <linearGradient id="linear-gradient-8" x1="170.69" y1="194.47" x2="122.4" y2="159.87" gradientUnits="userSpaceOnUse">
      <stop offset="0" stop-color="#a43dff"/>
      <stop offset="1" stop-color="#ead6e2"/>
    </linearGradient>
    <linearGradient id="linear-gradient-9" x1="303.05" y1="41.25" x2="198.68" y2="-34.56" gradientTransform="translate(-36.61 91.37) rotate(31.24) skewX(49.11)" gradientUnits="userSpaceOnUse">
      <stop offset="0" stop-color="#bf9fff"/>
      <stop offset="1" stop-color="#fff6e2"/>
    </linearGradient>
    <linearGradient id="linear-gradient-10" x1="170.59" y1="182.07" x2="122.3" y2="147.47" xlink:href="#linear-gradient-8"/>
    <linearGradient id="linear-gradient-11" x1="309.6" y1="31.35" x2="205.24" y2="-44.46" xlink:href="#linear-gradient-9"/>
    <linearGradient id="linear-gradient-12" x1="170.67" y1="169.67" x2="122.38" y2="135.07" xlink:href="#linear-gradient-8"/>
    <linearGradient id="linear-gradient-13" x1="314.64" y1="20.06" x2="210.28" y2="-55.75" xlink:href="#linear-gradient-9"/>
    <linearGradient id="linear-gradient-14" x1="170.63" y1="157.23" x2="122.34" y2="122.64" xlink:href="#linear-gradient-8"/>
    <linearGradient id="linear-gradient-15" x1="321.3" y1="10.09" x2="216.94" y2="-65.71" xlink:href="#linear-gradient-9"/>
    <linearGradient id="linear-gradient-16" x1="170.71" y1="144.83" x2="122.42" y2="110.24" xlink:href="#linear-gradient-8"/>
    <linearGradient id="linear-gradient-17" x1="326.34" y1="-1.2" x2="221.98" y2="-77.01" xlink:href="#linear-gradient-9"/>
    <linearGradient id="linear-gradient-18" x1="170.71" y1="132.44" x2="122.42" y2="97.84" xlink:href="#linear-gradient-8"/>
    <linearGradient id="linear-gradient-19" x1="334.1" y1="-10.38" x2="229.74" y2="-86.19" xlink:href="#linear-gradient-9"/>
    <linearGradient id="linear-gradient-20" x1="182.95" y1="83.63" x2="176.49" y2="83.63" gradientUnits="userSpaceOnUse">
      <stop offset="0" stop-color="#3600f4"/>
      <stop offset="1" stop-color="#330ee0"/>
    </linearGradient>
    <linearGradient id="linear-gradient-21" x1="330.33" y1="385.26" x2="239.36" y2="319.18" gradientTransform="translate(-35.34 -142.21) rotate(-30) skewX(-30)" gradientUnits="userSpaceOnUse">
      <stop offset="0" stop-color="#6318ff"/>
      <stop offset="1" stop-color="#13ffe2"/>
    </linearGradient>
    <linearGradient id="linear-gradient-22" x1="305.99" y1="366.73" x2="273.16" y2="342.88" xlink:href="#linear-gradient-21"/>
    <linearGradient id="linear-gradient-23" x1="302.55" y1="376.6" x2="247.08" y2="336.31" xlink:href="#linear-gradient-21"/>
    <linearGradient id="linear-gradient-24" x1="320.18" y1="388.11" x2="253.44" y2="339.63" xlink:href="#linear-gradient-21"/>
    <linearGradient id="linear-gradient-25" x1="276" y1="368.39" x2="254.45" y2="352.74" xlink:href="#linear-gradient-21"/>
    <linearGradient id="linear-gradient-26" x1="330.33" y1="405.54" x2="239.36" y2="339.46" xlink:href="#linear-gradient-21"/>
    <linearGradient id="linear-gradient-27" x1="305.99" y1="387.04" x2="273.16" y2="363.19" xlink:href="#linear-gradient-21"/>
    <linearGradient id="linear-gradient-28" x1="302.55" y1="396.91" x2="247.08" y2="356.62" xlink:href="#linear-gradient-21"/>
    <linearGradient id="linear-gradient-29" x1="320.18" y1="408.42" x2="253.44" y2="359.94" xlink:href="#linear-gradient-21"/>
    <linearGradient id="linear-gradient-30" x1="276" y1="388.7" x2="254.45" y2="373.05" xlink:href="#linear-gradient-21"/>
    <linearGradient id="linear-gradient-31" x1="330.33" y1="425.49" x2="239.36" y2="359.41" xlink:href="#linear-gradient-21"/>
    <linearGradient id="linear-gradient-32" x1="305.99" y1="406.96" x2="273.16" y2="383.11" xlink:href="#linear-gradient-21"/>
    <linearGradient id="linear-gradient-33" x1="302.55" y1="416.84" x2="247.08" y2="376.54" xlink:href="#linear-gradient-21"/>
    <linearGradient id="linear-gradient-34" x1="320.18" y1="428.34" x2="253.44" y2="379.86" xlink:href="#linear-gradient-21"/>
    <linearGradient id="linear-gradient-35" x1="276" y1="408.63" x2="254.45" y2="392.97" xlink:href="#linear-gradient-21"/>
    <linearGradient id="linear-gradient-36" x1="330.33" y1="445.77" x2="239.36" y2="379.69" xlink:href="#linear-gradient-21"/>
    <linearGradient id="linear-gradient-37" x1="96.54" y1="222.02" x2="89.64" y2="222.02" gradientUnits="userSpaceOnUse">
      <stop offset="0" stop-color="#867ce2"/>
      <stop offset="1" stop-color="#b590ff"/>
    </linearGradient>
    <linearGradient id="linear-gradient-38" x1="193.07" y1="258.46" x2="51.72" y2="155.78" xlink:href="#linear-gradient-6"/>
    <linearGradient id="linear-gradient-39" x1="117.46" y1="242.51" x2="121.19" y2="239.16" gradientUnits="userSpaceOnUse">
      <stop offset="0" stop-color="#796de8"/>
      <stop offset="1" stop-color="#554fc6"/>
    </linearGradient>
    <linearGradient id="linear-gradient-40" x1="116.8" y1="229.94" x2="120.48" y2="226.64" xlink:href="#linear-gradient-39"/>
    <linearGradient id="linear-gradient-41" x1="277.98" y1="197.32" x2="271.07" y2="197.32" xlink:href="#linear-gradient-37"/>
    <linearGradient id="linear-gradient-42" x1="374.5" y1="216.62" x2="233.15" y2="113.94" xlink:href="#linear-gradient-6"/>
    <linearGradient id="linear-gradient-43" x1="307.23" y1="235.94" x2="312.43" y2="231.28" xlink:href="#linear-gradient-39"/>
    <linearGradient id="linear-gradient-44" x1="306.32" y1="218.46" x2="311.43" y2="213.87" xlink:href="#linear-gradient-39"/>
    <linearGradient id="linear-gradient-45" x1="128.25" y1="351.51" x2="118.56" y2="351.51" xlink:href="#linear-gradient-5"/>
    <linearGradient id="linear-gradient-46" x1="244.05" y1="393.85" x2="40.9" y2="246.28" xlink:href="#linear-gradient-6"/>
    <linearGradient id="linear-gradient-47" x1="207.15" y1="366.58" x2="52.86" y2="254.5" xlink:href="#linear-gradient-7"/>
    <linearGradient id="linear-gradient-48" x1="113.33" y1="374.23" x2="71.85" y2="344.51" xlink:href="#linear-gradient-8"/>
    <linearGradient id="linear-gradient-49" x1="128.36" y1="216.17" x2="38.69" y2="151.04" gradientTransform="translate(-36.61 91.37) rotate(31.24) skewX(49.11)" xlink:href="#linear-gradient-6"/>
    <linearGradient id="linear-gradient-50" x1="113.3" y1="363.55" x2="71.81" y2="333.82" xlink:href="#linear-gradient-8"/>
    <linearGradient id="linear-gradient-51" x1="134.08" y1="207.61" x2="44.42" y2="142.48" gradientTransform="translate(-36.61 91.37) rotate(31.24) skewX(49.11)" xlink:href="#linear-gradient-6"/>
    <linearGradient id="linear-gradient-52" x1="113.37" y1="352.9" x2="71.88" y2="323.17" xlink:href="#linear-gradient-8"/>
    <linearGradient id="linear-gradient-53" x1="138.41" y1="197.91" x2="48.74" y2="132.78" gradientTransform="translate(-36.61 91.37) rotate(31.24) skewX(49.11)" xlink:href="#linear-gradient-6"/>
    <linearGradient id="linear-gradient-54" x1="113.37" y1="342.24" x2="71.88" y2="312.52" xlink:href="#linear-gradient-8"/>
    <linearGradient id="linear-gradient-55" x1="145.08" y1="190.02" x2="55.41" y2="124.89" gradientTransform="translate(-36.61 91.37) rotate(31.24) skewX(49.11)" xlink:href="#linear-gradient-6"/>
    <linearGradient id="linear-gradient-56" x1="123.89" y1="300.31" x2="118.34" y2="300.31" xlink:href="#linear-gradient-20"/>
    <linearGradient id="linear-gradient-57" x1="251.11" y1="532.04" x2="172.95" y2="475.26" xlink:href="#linear-gradient-21"/>
    <linearGradient id="linear-gradient-58" x1="230.19" y1="516.11" x2="201.98" y2="495.63" xlink:href="#linear-gradient-21"/>
    <linearGradient id="linear-gradient-59" x1="227.23" y1="524.6" x2="179.58" y2="489.98" xlink:href="#linear-gradient-21"/>
    <linearGradient id="linear-gradient-60" x1="242.38" y1="534.49" x2="185.04" y2="492.83" xlink:href="#linear-gradient-21"/>
    <linearGradient id="linear-gradient-61" x1="204.43" y1="517.55" x2="185.91" y2="504.09" xlink:href="#linear-gradient-21"/>
    <linearGradient id="linear-gradient-62" x1="251.1" y1="549.46" x2="172.95" y2="492.69" xlink:href="#linear-gradient-21"/>
    <linearGradient id="linear-gradient-63" x1="230.19" y1="533.56" x2="201.98" y2="513.08" xlink:href="#linear-gradient-21"/>
    <linearGradient id="linear-gradient-64" x1="227.23" y1="542.05" x2="179.58" y2="507.43" xlink:href="#linear-gradient-21"/>
    <linearGradient id="linear-gradient-65" x1="242.38" y1="551.94" x2="185.04" y2="510.28" xlink:href="#linear-gradient-21"/>
    <linearGradient id="linear-gradient-66" x1="204.43" y1="535" x2="185.91" y2="521.54" xlink:href="#linear-gradient-21"/>
    <linearGradient id="linear-gradient-67" x1="251.1" y1="566.6" x2="172.95" y2="509.83" xlink:href="#linear-gradient-21"/>
    <linearGradient id="linear-gradient-68" x1="169.95" y1="394.27" x2="166.28" y2="394.27" xlink:href="#linear-gradient-37"/>
    <linearGradient id="linear-gradient-69" x1="221.23" y1="413.64" x2="146.13" y2="359.09" xlink:href="#linear-gradient-6"/>
    <linearGradient id="linear-gradient-70" x1="235.51" y1="243.99" x2="231.76" y2="236.05" xlink:href="#linear-gradient-5"/>
    <linearGradient id="linear-gradient-71" x1="237.09" y1="253.81" x2="186.06" y2="145.38" gradientUnits="userSpaceOnUse">
      <stop offset="0" stop-color="#1800c2"/>
      <stop offset="1" stop-color="#240ed6"/>
    </linearGradient>
    <linearGradient id="linear-gradient-72" x1="579.84" y1="192.36" x2="380.87" y2="-69.73" gradientTransform="translate(-127.27 49.77) rotate(29.95) skewX(49.11)" xlink:href="#linear-gradient-6"/>
    <linearGradient id="linear-gradient-73" x1="438.46" y1="-38.2" x2="434.11" y2="-43.93" gradientTransform="translate(-127.27 49.77) rotate(29.95) skewX(49.11)" xlink:href="#linear-gradient-6"/>
    <linearGradient id="linear-gradient-74" x1="212.99" y1="282.98" x2="207.67" y2="282.98" xlink:href="#linear-gradient-71"/>
    <linearGradient id="linear-gradient-75" x1="-126.18" y1="12.96" x2="-25.53" y2="78.12" gradientTransform="translate(335.04 306.23) rotate(29.94) skewX(-49.11)" xlink:href="#linear-gradient-5"/>
    <linearGradient id="linear-gradient-76" x1="121.16" y1="143.8" x2="-119.91" y2="-173.74" gradientTransform="translate(211.48 235.38) rotate(29.94) skewX(-30)" xlink:href="#linear-gradient-6"/>
    <linearGradient id="linear-gradient-77" x1="69.12" y1="99.51" x2="-19.17" y2="-16.78" gradientTransform="translate(211.48 235.38) rotate(29.94) skewX(-30)" xlink:href="#linear-gradient-6"/>
    <linearGradient id="linear-gradient-78" x1="191.38" y1="269.16" x2="194.01" y2="269.06" xlink:href="#linear-gradient-71"/>
    <linearGradient id="linear-gradient-79" x1="183.13" y1="285.56" x2="184.96" y2="285.56" xlink:href="#linear-gradient-71"/>
    <linearGradient id="linear-gradient-80" x1="86.06" y1="117.57" x2="30.63" y2="44.57" gradientTransform="translate(202.92 238.24) rotate(29.94) scale(.98 .97) skewX(-30)" xlink:href="#linear-gradient-6"/>
    <linearGradient id="linear-gradient-81" x1="222.57" y1="312.97" x2="224.16" y2="310.57" xlink:href="#linear-gradient-5"/>
  </defs>
  <g class="cls-157">
    <g id="Layer_2" data-name="Layer 2">
      <g id="content">
        <g>
          <g id="_9" data-name="9">
            <g class="cls-153">
              <path class="cls-18" d="m36.91,244.75h.01c.13,5.91,3.77,11.53,11.07,15.77l120.16,69.65c16.44,9.53,45.18,8.39,64.21-2.55l101.6-58.42c10.57-6.08,15.9-13.9,15.74-21.29h0s-.05-247.91-.05-247.91H36.96l-.05,244.75Z"/>
            </g>
            <g id="_8" data-name="8">
              <g>
                <path class="cls-135" d="m162.21,389.04L13.7,302.96c-20.32-11.78-17.73-32.28,5.78-45.8l125.58-72.21c23.51-13.52,59.04-14.93,79.36-3.15l148.51,86.09c20.32,11.78,17.73,32.28-5.78,45.8l-125.58,72.21c-23.51,13.52-59.04,14.93-79.36,3.15Z"/>
                <path class="cls-137" d="m162.48,388.12L15.3,302.8c-20.14-11.67-17.57-32,5.73-45.39l124.45-71.57c23.3-13.4,58.51-14.8,78.65-3.12l147.18,85.32c20.14,11.67,17.57,32-5.73,45.39l-124.45,71.57c-23.3,13.4-58.51,14.8-78.65,3.12Z"/>
                <path class="cls-14" d="m162.76,387.19L16.91,302.64c-19.96-11.57-17.42-31.71,5.67-44.98l123.33-70.92c23.09-13.28,57.98-14.66,77.94-3.09l145.86,84.55c19.96,11.57,17.42,31.71-5.67,44.98l-123.33,70.92c-23.09,13.28-57.98,14.66-77.94,3.09Z"/>
                <path class="cls-116" d="m163.04,386.27L18.51,302.49c-19.77-11.46-17.26-31.42,5.62-44.58l122.21-70.27c22.88-13.16,57.46-14.53,77.23-3.07l144.53,83.78c19.77,11.46,17.26,31.42-5.62,44.58l-122.21,70.27c-22.88,13.16-57.46,14.53-77.23,3.07Z"/>
                <path class="cls-96" d="m163.32,385.34L20.12,302.33c-19.59-11.36-17.1-31.13,5.57-44.17l121.09-69.63c22.67-13.04,56.93-14.4,76.52-3.04l143.2,83.01c19.59,11.36,17.1,31.13-5.57,44.17l-121.09,69.63c-22.67,13.04-56.93,14.4-76.52,3.04Z"/>
                <path class="cls-6" d="m163.6,384.42L21.72,302.17c-19.41-11.25-16.94-30.84,5.52-43.76l119.97-68.98c22.46-12.91,56.4-14.26,75.81-3.01l141.88,82.24c19.41,11.25,16.94,30.84-5.52,43.76l-119.97,68.98c-22.46,12.91-56.4,14.26-75.81,3.01Z"/>
                <path class="cls-129" d="m163.87,383.49L23.32,302.02c-19.23-11.15-16.78-30.55,5.47-43.35l118.84-68.34c22.25-12.79,55.87-14.13,75.1-2.98l140.55,81.47c19.23,11.15,16.78,30.55-5.47,43.35l-118.84,68.34c-22.25,12.79-55.87,14.13-75.1,2.98Z"/>
                <path class="cls-109" d="m164.15,382.56L24.93,301.86c-19.05-11.04-16.62-30.27,5.42-42.94l117.72-67.69c22.04-12.67,55.35-14,74.39-2.95l139.22,80.7c19.05,11.04,16.62,30.27-5.42,42.94l-117.72,67.69c-22.04,12.67-55.35,14-74.39,2.95Z"/>
                <path class="cls-100" d="m164.43,381.64L26.53,301.7c-18.87-10.94-16.46-29.98,5.36-42.53l116.6-67.05c21.83-12.55,54.82-13.86,73.68-2.93l137.89,79.93c18.87,10.94,16.46,29.98-5.36,42.53l-116.6,67.05c-21.83,12.55-54.82,13.86-73.68,2.93Z"/>
                <path class="cls-105" d="m164.71,380.71L28.14,301.55c-18.68-10.83-16.31-29.69,5.31-42.12l115.48-66.4c21.62-12.43,54.29-13.73,72.98-2.9l136.57,79.16c18.68,10.83,16.31,29.69-5.31,42.12l-115.48,66.4c-21.62,12.43-54.29,13.73-72.98,2.9Z"/>
                <path class="cls-4" d="m164.98,379.79L29.74,301.39c-18.5-10.73-16.15-29.4,5.26-41.71l114.36-65.76c21.41-12.31,53.76-13.6,72.27-2.87l135.24,78.4c18.5,10.73,16.15,29.4-5.26,41.71l-114.36,65.76c-21.41,12.31-53.76,13.6-72.27,2.87Z"/>
                <path class="cls-17" d="m165.26,378.86L31.35,301.23c-18.32-10.62-15.99-29.11,5.21-41.3l113.23-65.11c21.2-12.19,53.24-13.46,71.56-2.84l133.91,77.63c18.32,10.62,15.99,29.11-5.21,41.3l-113.23,65.11c-21.2,12.19-53.24,13.46-71.56,2.84Z"/>
                <path class="cls-132" d="m165.54,377.93l-132.59-76.86c-18.14-10.52-15.83-28.82,5.16-40.89l112.11-64.47c20.99-12.07,52.71-13.33,70.85-2.81l132.59,76.86c18.14,10.52,15.83,28.82-5.16,40.89l-112.11,64.47c-20.99,12.07-52.71,13.33-70.85,2.81Z"/>
                <path class="cls-152" d="m165.82,377.01l-131.26-76.09c-17.96-10.41-15.67-28.54,5.11-40.48l110.99-63.82c20.78-11.95,52.18-13.2,70.14-2.79l131.26,76.09c17.96,10.41,15.67,28.54-5.11,40.48l-110.99,63.82c-20.78,11.95-52.18,13.2-70.14,2.79Z"/>
                <path class="cls-110" d="m166.1,376.08l-129.93-75.32c-17.78-10.3-15.51-28.25,5.05-40.07l109.87-63.18c20.57-11.83,51.65-13.06,69.43-2.76l129.93,75.32c17.78,10.3,15.51,28.25-5.05,40.07l-109.87,63.18c-20.57,11.83-51.65,13.06-69.43,2.76Z"/>
                <path class="cls-121" d="m166.37,375.16l-128.61-74.55c-17.6-10.2-15.36-27.96,5-39.66l108.75-62.53c20.36-11.71,51.13-12.93,68.72-2.73l128.61,74.55c17.6,10.2,15.36,27.96-5,39.66l-108.75,62.53c-20.36,11.71-51.13,12.93-68.72,2.73Z"/>
                <path class="cls-112" d="m166.65,374.23l-127.28-73.78c-17.41-10.09-15.2-27.67,4.95-39.26l107.62-61.89c20.15-11.59,50.6-12.8,68.01-2.7l127.28,73.78c17.41,10.09,15.2,27.67-4.95,39.26l-107.62,61.89c-20.15,11.59-50.6,12.8-68.01,2.7Z"/>
                <path class="cls-99" d="m166.93,373.31l-125.95-73.01c-17.23-9.99-15.04-27.38,4.9-38.85l106.5-61.24c19.94-11.47,50.07-12.66,67.3-2.67l125.95,73.01c17.23,9.99,15.04,27.38-4.9,38.85l-106.5,61.24c-19.94,11.47-50.07,12.66-67.3,2.67Z"/>
                <path class="cls-103" d="m167.21,372.38l-124.63-72.24c-17.05-9.88-14.88-27.09,4.85-38.44l105.38-60.6c19.73-11.34,49.54-12.53,66.59-2.64l124.63,72.24c17.05,9.88,14.88,27.09-4.85,38.44l-105.38,60.6c-19.73,11.34-49.54,12.53-66.59,2.64Z"/>
                <path class="cls-9" d="m167.49,371.45l-123.3-71.47c-16.87-9.78-14.72-26.8,4.8-38.03l104.26-59.95c19.52-11.22,49.02-12.4,65.89-2.62l123.3,71.47c16.87,9.78,14.72,26.8-4.8,38.03l-104.26,59.95c-19.52,11.22-49.02,12.4-65.89,2.62Z"/>
                <path class="cls-11" d="m167.76,370.53l-121.97-70.7c-16.69-9.67-14.56-26.52,4.74-37.62l103.14-59.31c19.31-11.1,48.49-12.26,65.18-2.59l121.97,70.7c16.69,9.67,14.56,26.52-4.74,37.62l-103.14,59.31c-19.31,11.1-48.49,12.26-65.18,2.59Z"/>
                <path class="cls-13" d="m168.04,369.6l-120.65-69.93c-16.51-9.57-14.41-26.23,4.69-37.21l102.01-58.66c19.1-10.98,47.96-12.13,64.47-2.56l120.65,69.93c16.51,9.57,14.41,26.23-4.69,37.21l-102.01,58.66c-19.1,10.98-47.96,12.13-64.47,2.56Z"/>
                <path class="cls-19" d="m168.32,368.68l-119.32-69.17c-16.32-9.46-14.25-25.94,4.64-36.8l100.89-58.02c18.89-10.86,47.43-11.99,63.76-2.53l119.32,69.17c16.32,9.46,14.25,25.94-4.64,36.8l-100.89,58.02c-18.89,10.86-47.43,11.99-63.76,2.53Z"/>
                <path class="cls-94" d="m168.6,367.75l-117.99-68.4c-16.14-9.36-14.09-25.65,4.59-36.39l99.77-57.37c18.68-10.74,46.91-11.86,63.05-2.5l117.99,68.4c16.14,9.36,14.09,25.65-4.59,36.39l-99.77,57.37c-18.68,10.74-46.91,11.86-63.05,2.5Z"/>
                <path class="cls-139" d="m168.87,366.82l-116.67-67.63c-15.96-9.25-13.93-25.36,4.54-35.98l98.65-56.73c18.47-10.62,46.38-11.73,62.34-2.48l116.67,67.63c15.96,9.25,13.93,25.36-4.54,35.98l-98.65,56.73c-18.47,10.62-46.38,11.73-62.34,2.48Z"/>
                <path class="cls-133" d="m169.15,365.9l-115.34-66.86c-15.78-9.15-13.77-25.07,4.49-35.57l97.53-56.08c18.26-10.5,45.85-11.59,61.63-2.45l115.34,66.86c15.78,9.15,13.77,25.07-4.49,35.57l-97.53,56.08c-18.26,10.5-45.85,11.59-61.63,2.45Z"/>
                <path class="cls-150" d="m169.43,364.97l-114.01-66.09c-15.6-9.04-13.61-24.79,4.43-35.16l96.4-55.44c18.05-10.38,45.32-11.46,60.92-2.42l114.01,66.09c15.6,9.04,13.61,24.79-4.43,35.16l-96.4,55.44c-18.05,10.38-45.32,11.46-60.92,2.42Z"/>
                <path class="cls-2" d="m169.71,364.05l-112.68-65.32c-15.42-8.94-13.45-24.5,4.38-34.75l95.28-54.79c17.84-10.26,44.8-11.33,60.21-2.39l112.68,65.32c15.42,8.94,13.45,24.5-4.38,34.75l-95.28,54.79c-17.84,10.26-44.8,11.33-60.21,2.39Z"/>
                <path class="cls-107" d="m169.99,363.12l-111.36-64.55c-15.24-8.83-13.3-24.21,4.33-34.34l94.16-54.15c17.63-10.14,44.27-11.19,59.5-2.36l111.36,64.55c15.24,8.83,13.3,24.21-4.33,34.34l-94.16,54.15c-17.63,10.14-44.27,11.19-59.5,2.36Z"/>
                <path class="cls-115" d="m170.26,362.2l-110.03-63.78c-15.05-8.73-13.14-23.92,4.28-33.94l93.04-53.5c17.42-10.02,43.74-11.06,58.8-2.33l110.03,63.78c15.05,8.73,13.14,23.92-4.28,33.94l-93.04,53.5c-17.42,10.02-43.74,11.06-58.8,2.33Z"/>
                <path class="cls-118" d="m170.54,361.27l-108.7-63.01c-14.87-8.62-12.98-23.63,4.23-33.53l91.92-52.86c17.21-9.9,43.21-10.93,58.09-2.31l108.7,63.01c14.87,8.62,12.98,23.63-4.23,33.53l-91.92,52.86c-17.21,9.9-43.21,10.93-58.09,2.31Z"/>
                <path class="cls-5" d="m170.82,360.34l-107.38-62.24c-14.69-8.52-12.82-23.34,4.18-33.12l90.8-52.21c17-9.77,42.69-10.79,57.38-2.28l107.38,62.24c14.69,8.52,12.82,23.34-4.18,33.12l-90.8,52.21c-17,9.77-42.69,10.79-57.38,2.28Z"/>
              </g>
              <g>
                <path class="cls-123" d="m349.7,267.79l-.12-21.46-20.96-.11-110.15-63.85c-16.44-9.53-45.18-8.39-64.21,2.55l-101.6,58.42c-.83.48-1.62.97-2.39,1.47l-13.37-.07v19.89h.01c.13,5.91,3.77,11.53,11.07,15.77l120.16,69.65c16.44,9.53,45.18,8.39,64.21-2.55l101.6-58.42c10.57-6.08,15.9-13.9,15.74-21.29h0Z"/>
                <path class="cls-122" d="m168.15,330.17l-120.16-69.65c-16.44-9.53-14.35-26.12,4.67-37.06l101.6-58.42c19.02-10.94,47.77-12.08,64.21-2.55l120.16,69.65c16.44,9.53,14.35,26.12-4.67,37.06l-101.6,58.42c-19.02,10.94-47.77,12.08-64.21,2.55Z"/>
              </g>
            </g>
          </g>
          <g id="_7" data-name="7">
            <g>
              <path class="cls-127" d="m222.6,201.32v-110.74l-83.54-1.65v110.04c-.3.92.09,1.85,1.21,2.52l37.9,22.41c1.96,1.16,5.41,1.05,7.71-.24l34.83-19.62c1.36-.77,2.01-1.78,1.89-2.72Z"/>
              <path class="cls-128" d="m178.17,112.7l-37.9-22.41c-1.96-1.16-1.69-3.15.6-4.44l34.83-19.62c2.29-1.29,5.74-1.4,7.71-.24l37.9,22.41c1.96,1.16,1.69,3.15-.6,4.44l-34.83,19.62c-2.29,1.29-5.74,1.4-7.71.24Z"/>
            </g>
            <path class="cls-126" d="m179.38,103.24l-23.22-13.73c-1.2-.71-1.04-1.93.37-2.72l21.34-12.02c1.41-.79,3.52-.86,4.72-.15l23.22,13.73c1.2.71,1.04,1.93-.37,2.72l-21.34,12.02c-1.41.79-3.52.86-4.72.15Z"/>
            <g>
              <path class="cls-124" d="m171.65,190.54c.03-1.56-.9-3.39-2.08-4.09l-28.2-16.65c-.53-.32-1.02-.33-1.41-.13h0c-.06.03-.11.06-.17.1l-7.01,4.17,30.76,22.62,7.1-4.24c.16-.05.3-.14.43-.25h0c.34-.3.56-.82.58-1.53Z"/>
              <path class="cls-125" d="m162.27,196.37l-28.2-16.65c-1.18-.7-2.12-2.53-2.08-4.09h0c.03-1.56,1.02-2.25,2.21-1.55l28.2,16.65c1.18.7,2.12,2.53,2.08,4.09h0c-.03,1.56-1.02,2.25-2.21,1.55Z"/>
            </g>
            <g>
              <path class="cls-38" d="m171.55,178.14c.03-1.56-.9-3.39-2.08-4.09l-28.2-16.65c-.53-.32-1.02-.33-1.41-.13h0c-.06.03-.11.06-.17.1l-7.01,4.17,30.76,22.62,7.1-4.24c.16-.05.3-.14.43-.25h0c.34-.3.56-.82.58-1.53Z"/>
              <path class="cls-35" d="m162.16,183.97l-28.2-16.65c-1.18-.7-2.12-2.53-2.08-4.09h0c.03-1.56,1.02-2.25,2.21-1.55l28.2,16.65c1.18.7,2.12,2.53,2.08,4.09h0c-.03,1.56-1.02,2.25-2.21,1.55Z"/>
            </g>
            <g>
              <path class="cls-36" d="m171.63,165.75c.03-1.56-.9-3.39-2.08-4.09l-28.2-16.65c-.53-.32-1.02-.33-1.41-.13h0c-.06.03-.11.06-.17.1l-7.01,4.17,30.76,22.62,7.1-4.24c.16-.05.3-.14.43-.25h0c.34-.3.56-.82.58-1.53Z"/>
              <path class="cls-37" d="m162.25,171.57l-28.2-16.65c-1.18-.7-2.12-2.53-2.08-4.09h0c.03-1.56,1.02-2.25,2.21-1.55l28.2,16.65c1.18.7,2.12,2.53,2.08,4.09h0c-.03,1.56-1.02,2.25-2.21,1.55Z"/>
            </g>
            <g>
              <path class="cls-46" d="m171.59,153.31c.03-1.56-.9-3.39-2.08-4.09l-28.2-16.65c-.53-.32-1.02-.33-1.41-.13h0c-.06.03-.11.06-.17.1l-7.01,4.17,30.76,22.62,7.1-4.24c.16-.05.3-.14.43-.25h0c.34-.3.56-.82.58-1.53Z"/>
              <path class="cls-42" d="m162.21,159.13l-28.2-16.65c-1.18-.7-2.12-2.53-2.08-4.09h0c.03-1.56,1.02-2.25,2.21-1.55l28.2,16.65c1.18.7,2.12,2.53,2.08,4.09h0c-.03,1.56-1.02,2.25-2.21,1.55Z"/>
            </g>
            <g>
              <path class="cls-40" d="m171.67,140.91c.03-1.56-.9-3.39-2.08-4.09l-28.2-16.65c-.53-.32-1.02-.33-1.41-.13h0c-.06.03-.11.06-.17.1l-7.01,4.17,30.76,22.62,7.1-4.24c.16-.05.3-.14.43-.25h0c.34-.3.56-.82.58-1.53Z"/>
              <path class="cls-39" d="m162.29,146.73l-28.2-16.65c-1.18-.7-2.12-2.53-2.08-4.09h0c.03-1.56,1.02-2.25,2.21-1.55l28.2,16.65c1.18.7,2.12,2.53,2.08,4.09h0c-.03,1.56-1.02,2.25-2.21,1.55Z"/>
            </g>
            <g>
              <path class="cls-45" d="m171.67,128.51c.03-1.56-.9-3.39-2.08-4.09l-28.2-16.65c-.53-.32-1.02-.33-1.41-.13h0c-.06.03-.11.06-.17.1l-7.01,4.17,30.76,22.62,7.1-4.24c.16-.05.3-.14.43-.25h0c.34-.3.56-.82.58-1.53Z"/>
              <path class="cls-41" d="m162.29,134.34l-28.2-16.65c-1.18-.7-2.12-2.53-2.08-4.09h0c.03-1.56,1.02-2.25,2.21-1.55l28.2,16.65c1.18.7,2.12,2.53,2.08,4.09h0c-.03,1.56-1.02,2.25-2.21,1.55Z"/>
            </g>
            <path class="cls-48" d="m156.17,89.56l3.87,2.29,17.83-10.05c1.4-.79,3.52-.86,4.72-.15l19.35,11.44,3.5-1.97c1.41-.79,1.57-2.01.37-2.72l-23.22-13.73c-1.2-.71-3.32-.65-4.72.15l-21.34,12.02c-1.4.79-1.57,2.01-.37,2.72Z"/>
            <g>
              <g>
                <polygon class="cls-44" points="216.62 113.39 190.2 128.65 190.2 124.54 216.62 109.28 216.62 113.39"/>
                <polygon class="cls-47" points="216.62 121.29 208.52 125.97 208.52 121.86 216.62 117.18 216.62 121.29"/>
                <polygon class="cls-43" points="205.44 127.74 190.2 136.54 190.2 132.44 205.44 123.64 205.44 127.74"/>
                <polygon class="cls-50" points="216.62 128.88 197.82 139.76 197.82 135.66 216.62 124.77 216.62 128.88"/>
                <polygon class="cls-34" points="194.74 141.54 190.2 144.14 190.2 140.03 194.74 137.43 194.74 141.54"/>
                <polygon class="cls-51" points="216.62 136.81 190.2 152.07 190.2 147.96 216.62 132.71 216.62 136.81"/>
                <polygon class="cls-49" points="216.62 144.74 208.52 149.42 208.52 145.31 216.62 140.63 216.62 144.74"/>
                <polygon class="cls-33" points="205.44 151.2 190.2 160 190.2 155.89 205.44 147.09 205.44 151.2"/>
                <polygon class="cls-24" points="216.62 152.33 197.82 163.22 197.82 159.11 216.62 148.22 216.62 152.33"/>
                <polygon class="cls-26" points="194.74 164.99 190.2 167.59 190.2 163.48 194.74 160.89 194.74 164.99"/>
                <polygon class="cls-27" points="216.62 159.85 190.2 175.11 190.2 171 216.62 155.74 216.62 159.85"/>
              </g>
              <polygon class="cls-25" points="216.62 167.74 208.52 172.42 208.52 168.32 216.62 163.64 216.62 167.74"/>
              <polygon class="cls-23" points="205.44 174.2 190.2 183 190.2 178.89 205.44 170.09 205.44 174.2"/>
              <polygon class="cls-30" points="216.62 175.34 197.82 186.22 197.82 182.11 216.62 171.23 216.62 175.34"/>
              <polygon class="cls-32" points="194.74 188 190.2 190.59 190.2 186.49 194.74 183.89 194.74 188"/>
              <polygon class="cls-28" points="216.62 183.27 190.2 198.53 190.2 194.42 216.62 179.16 216.62 183.27"/>
            </g>
          </g>
          <g id="_6" data-name="6">
            <g>
              <path class="cls-31" d="m118.01,244.51v-57.99s-49.94-.98-49.94-.98v57.57c-.18.55.06,1.11.73,1.51l22.66,13.4c1.17.69,3.24.63,4.61-.14l20.82-11.73c.82-.46,1.2-1.07,1.13-1.63Z"/>
              <path class="cls-22" d="m91.45,199.75l-22.66-13.4c-1.17-.69-1.01-1.88.36-2.66l20.82-11.73c1.37-.77,3.43-.84,4.61-.14l22.66,13.4c1.17.69,1.01,1.88-.36,2.66l-20.82,11.73c-1.37.77-3.43.84-4.61.14Z"/>
            </g>
            <g>
              <polygon class="cls-142" points="112.5 258.19 105.2 254.05 105.21 249.75 112.5 253.89 112.5 258.19"/>
              <polygon class="cls-142" points="119.5 254.15 112.5 250.24 119.5 249.83 119.5 254.15"/>
              <polygon class="cls-29" points="113.96 239.31 113.95 247.74 121.7 245.04 126.52 237.27 122.08 233.63 113.96 239.31"/>
              <polygon class="cls-60" points="113.97 226.77 113.96 234.06 123.19 229.92 124.68 222.72 120.24 221.65 113.97 226.77"/>
              <polygon class="cls-144" points="101.9 220.14 105.23 218.23 112.52 222.36 109.19 224.28 101.9 220.14"/>
              <polygon class="cls-144" points="119.52 218.35 112.23 214.21 108.82 216.15 116.12 220.29 119.52 218.35"/>
              <polygon class="cls-144" points="125.29 216.61 118.33 212.61 116.12 214.96 123.6 218.06 125.29 216.61"/>
              <polygon class="cls-141" points="105.23 213.92 112.52 218.06 112.52 222.36 105.23 218.23 105.23 213.92"/>
              <polygon class="cls-141" points="112.23 209.89 119.52 214.03 119.52 218.35 112.23 214.21 112.23 209.89"/>
              <polygon class="cls-144" points="115.83 207.81 123.12 211.95 119.52 214.03 112.23 209.89 115.83 207.81"/>
              <polygon class="cls-144" points="108.83 211.85 116.12 215.99 112.52 218.06 105.23 213.92 108.83 211.85"/>
              <path class="cls-145" d="m119.5,254.15v-4.32c-.68.41-1.43.85-2.27,1.33l-1.13.65v4.3s-3.6,2.07-3.6,2.07v-4.3s-3.32,1.92-3.32,1.92l.02-31.52,3.32-1.92v-4.3s3.6-2.07,3.6-2.07v4.3s2.53-1.46,2.53-1.46c.3-.17.59-.33.87-.48v-4.32s3.6-2.07,3.6-2.07v4.69c.8-.24,1.53-.25,2.17-.03.73.24,1.34.76,1.82,1.58.48.82.72,1.91.72,3.27,0,1.48-.3,3-.9,4.58-.6,1.58-1.41,2.97-2.43,4.17,1.44-.27,2.55.04,3.32.94.77.9,1.16,2.26,1.16,4.08,0,1.43-.25,2.97-.75,4.61-.5,1.64-1.19,3.12-2.06,4.44-.84,1.27-1.87,2.36-3.08,3.26v4.52s-3.6,2.07-3.6,2.07Zm-5.54-14.84v8.43s4.41-2.55,4.41-2.55c1.72-.99,2.81-1.69,3.27-2.08.71-.58,1.29-1.33,1.73-2.26.45-.92.67-1.95.67-3.06,0-.95-.17-1.65-.51-2.11-.34-.46-.84-.65-1.49-.58-.65.07-2.06.74-4.23,1.99l-3.86,2.22Zm0-12.54v7.29s3.13-1.8,3.13-1.8c1.86-1.07,3.02-1.78,3.47-2.11.82-.6,1.46-1.35,1.93-2.24.47-.89.7-1.85.7-2.87,0-.97-.2-1.65-.6-2.03-.4-.38-1-.4-1.8-.07-.47.2-1.83.95-4.08,2.24l-2.74,1.58Z"/>
              <polygon class="cls-141" points="101.9 220.14 109.19 224.28 109.17 255.8 101.88 251.66 101.9 220.14"/>
            </g>
            <g>
              <path class="cls-148" d="m74.63,204.24l-3.35-1.94c-.23-.13-.41-.48-.41-.78v-5.43c0-.3.19-.44.41-.31l3.35,1.94c.23.13.41.48.41.78v5.43c0,.3-.19.44-.41.31Z"/>
              <path class="cls-148" d="m80.62,207.71l-3.35-1.94c-.23-.13-.41-.48-.41-.78v-5.43c0-.3.19-.44.41-.31l3.35,1.94c.23.13.41.48.41.78v5.43c0,.3-.19.44-.41.31Z"/>
              <path class="cls-148" d="m86.61,211.19l-3.35-1.94c-.23-.13-.41-.48-.41-.78v-5.43c0-.3.19-.44.41-.31l3.35,1.94c.23.13.41.48.41.78v5.43c0,.3-.19.44-.41.31Z"/>
              <path class="cls-148" d="m74.63,212.8l-3.35-1.94c-.23-.13-.41-.48-.41-.78v-5.43c0-.3.19-.44.41-.31l3.35,1.94c.23.13.41.48.41.78v5.43c0,.3-.19.44-.41.31Z"/>
              <path class="cls-148" d="m80.62,216.27l-3.35-1.94c-.23-.13-.41-.48-.41-.78v-5.43c0-.3.19-.44.41-.31l3.35,1.94c.23.13.41.48.41.78v5.43c0,.3-.19.44-.41.31Z"/>
              <path class="cls-148" d="m86.61,219.74l-3.35-1.94c-.23-.13-.41-.48-.41-.78v-5.43c0-.3.19-.44.41-.31l3.35,1.94c.23.13.41.48.41.78v5.43c0,.3-.19.44-.41.31Z"/>
              <path class="cls-148" d="m80.62,224.83l-3.35-1.94c-.23-.13-.41-.48-.41-.78v-5.43c0-.3.19-.44.41-.31l3.35,1.94c.23.13.41.48.41.78v5.43c0,.3-.19.44-.41.31Z"/>
              <path class="cls-148" d="m74.63,229.91l-3.35-1.94c-.23-.13-.41-.48-.41-.78v-5.43c0-.3.19-.44.41-.31l3.35,1.94c.23.13.41.48.41.78v5.43c0,.3-.19.44-.41.31Z"/>
              <path class="cls-148" d="m86.61,245.41l-3.35-1.94c-.23-.13-.41-.48-.41-.78v-5.43c0-.3.19-.44.41-.31l3.35,1.94c.23.13.41.48.41.78v5.43c0,.3-.19.44-.41.31Z"/>
            </g>
          </g>
          <g id="_5" data-name="5">
            <g>
              <path class="cls-61" d="m299.44,236.96v-92.28s-49.94-.98-49.94-.98v91.86c-.18.55.06,1.11.73,1.51l22.66,13.4c1.17.69,3.24.63,4.61-.14l20.82-11.73c.82-.46,1.2-1.07,1.13-1.63Z"/>
              <path class="cls-58" d="m272.88,157.91l-22.66-13.4c-1.17-.69-1.01-1.88.36-2.66l20.82-11.73c1.37-.77,3.43-.84,4.61-.14l22.66,13.4c1.17.69,1.01,1.88-.36,2.65l-20.82,11.73c-1.37.77-3.43.84-4.61.14Z"/>
            </g>
            <g>
              <polygon class="cls-142" points="300.33 257.76 290.18 252 290.18 246.02 300.33 251.77 300.33 257.76"/>
              <polygon class="cls-142" points="310.07 252.14 300.33 246.7 310.07 246.13 310.07 252.14"/>
              <polygon class="cls-59" points="302.36 231.49 302.35 243.22 313.13 239.47 319.83 228.66 313.66 223.59 302.36 231.49"/>
              <polygon class="cls-54" points="302.37 214.05 302.37 224.19 315.21 218.44 317.28 208.41 311.09 206.92 302.37 214.05"/>
              <polygon class="cls-144" points="285.59 204.83 290.21 202.16 300.36 207.92 295.73 210.58 285.59 204.83"/>
              <polygon class="cls-144" points="310.1 202.33 299.95 196.57 295.21 199.27 305.36 205.03 310.1 202.33"/>
              <polygon class="cls-144" points="318.13 199.91 308.44 194.35 305.36 197.61 315.78 201.93 318.13 199.91"/>
              <polygon class="cls-141" points="290.21 196.18 300.36 201.93 300.36 207.92 290.21 202.16 290.21 196.18"/>
              <polygon class="cls-141" points="299.95 190.56 310.1 196.32 310.1 202.33 299.95 196.57 299.95 190.56"/>
              <polygon class="cls-144" points="304.96 187.68 315.11 193.43 310.1 196.32 299.95 190.56 304.96 187.68"/>
              <polygon class="cls-144" points="295.22 193.29 305.36 199.05 300.36 201.93 290.21 196.18 295.22 193.29"/>
              <path class="cls-145" d="m310.07,252.14v-6.01c-.94.56-1.99,1.18-3.16,1.85l-1.57.91v5.98s-5.01,2.88-5.01,2.88v-5.98s-4.62,2.67-4.62,2.67l.03-43.86,4.62-2.67v-5.98s5.01-2.89,5.01-2.89v5.98s3.52-2.03,3.52-2.03c.42-.24.82-.46,1.21-.67v-6.01s5.01-2.89,5.01-2.89v6.52c1.12-.33,2.13-.34,3.02-.04,1.02.33,1.86,1.06,2.53,2.2.67,1.14,1.01,2.65,1.01,4.55,0,2.05-.42,4.18-1.25,6.37-.83,2.19-1.96,4.13-3.38,5.81,2-.38,3.54.06,4.62,1.31,1.08,1.25,1.61,3.15,1.61,5.68,0,1.99-.35,4.13-1.05,6.42-.7,2.29-1.65,4.35-2.86,6.18-1.17,1.77-2.6,3.28-4.29,4.54v6.28s-5.01,2.89-5.01,2.89Zm-7.7-20.65v11.73s6.14-3.55,6.14-3.55c2.39-1.38,3.91-2.35,4.56-2.9.99-.81,1.79-1.86,2.41-3.14.62-1.29.93-2.71.93-4.26,0-1.32-.24-2.29-.72-2.94-.48-.64-1.17-.91-2.08-.81-.9.1-2.87,1.03-5.89,2.77l-5.36,3.09Zm.01-17.44v10.14s4.35-2.51,4.35-2.51c2.59-1.49,4.2-2.47,4.83-2.93,1.14-.83,2.03-1.87,2.68-3.12.65-1.24.98-2.57.98-3.99,0-1.36-.28-2.3-.84-2.82-.56-.52-1.39-.56-2.5-.1-.66.28-2.55,1.32-5.68,3.12l-3.82,2.2Z"/>
              <polygon class="cls-141" points="285.59 204.83 295.73 210.58 295.7 254.44 285.56 248.68 285.59 204.83"/>
            </g>
            <g>
              <g>
                <g>
                  <path class="cls-148" d="m255.98,163.39l-3.35-1.94c-.23-.13-.41-.48-.41-.78v-5.43c0-.3.19-.44.41-.31l3.35,1.94c.23.13.41.48.41.78v5.43c0,.3-.19.44-.41.31Z"/>
                  <path class="cls-148" d="m261.97,166.86l-3.35-1.94c-.23-.13-.41-.48-.41-.78v-5.43c0-.3.19-.44.41-.31l3.35,1.94c.23.13.41.48.41.78v5.43c0,.3-.19.44-.41.31Z"/>
                  <path class="cls-148" d="m267.96,170.33l-3.35-1.94c-.23-.13-.41-.48-.41-.78v-5.43c0-.3.19-.44.41-.31l3.35,1.94c.23.13.41.48.41.78v5.43c0,.3-.19.44-.41.31Z"/>
                  <path class="cls-148" d="m255.98,171.95l-3.35-1.94c-.23-.13-.41-.48-.41-.78v-5.43c0-.3.19-.44.41-.31l3.35,1.94c.23.13.41.48.41.78v5.43c0,.3-.19.44-.41.31Z"/>
                  <path class="cls-148" d="m261.97,175.42l-3.35-1.94c-.23-.13-.41-.48-.41-.78v-5.43c0-.3.19-.44.41-.31l3.35,1.94c.23.13.41.48.41.78v5.43c0,.3-.19.44-.41.31Z"/>
                  <path class="cls-148" d="m267.96,178.89l-3.35-1.94c-.23-.13-.41-.48-.41-.78v-5.43c0-.3.19-.44.41-.31l3.35,1.94c.23.13.41.48.41.78v5.43c0,.3-.19.44-.41.31Z"/>
                </g>
                <path class="cls-148" d="m261.97,183.98l-3.35-1.94c-.23-.13-.41-.48-.41-.78v-5.43c0-.3.19-.44.41-.31l3.35,1.94c.23.13.41.48.41.78v5.43c0,.3-.19.44-.41.31Z"/>
              </g>
              <path class="cls-148" d="m267.96,196l-3.35-1.94c-.23-.13-.41-.48-.41-.78v-5.43c0-.3.19-.44.41-.31l3.35,1.94c.23.13.41.48.41.78v5.43c0,.3-.19.44-.41.31Z"/>
              <path class="cls-148" d="m255.98,206.17l-3.35-1.94c-.23-.13-.41-.48-.41-.78v-5.43c0-.3.19-.44.41-.31l3.35,1.94c.23.13.41.48.41.78v5.43c0,.3-.19.44-.41.31Z"/>
            </g>
          </g>
          <g id="_4" data-name="4">
            <g class="cls-155">
              <path class="cls-135" d="m111.88,419.1l-49.27-28.56c-6.74-3.91-5.88-10.71,1.92-15.2l41.66-23.96c7.8-4.49,19.59-4.95,26.33-1.05l49.27,28.56c6.74,3.91,5.88,10.71-1.92,15.2l-41.66,23.96c-7.8,4.49-19.59,4.95-26.33,1.05Z"/>
              <path class="cls-136" d="m112.07,418.48l-48.38-28.05c-6.62-3.84-5.78-10.52,1.88-14.92l40.91-23.53c7.66-4.4,19.23-4.86,25.85-1.03l48.39,28.05c6.62,3.84,5.78,10.52-1.88,14.92l-40.91,23.53c-7.66,4.4-19.23,4.86-25.85,1.03Z"/>
              <path class="cls-15" d="m112.25,417.86l-47.5-27.53c-6.5-3.77-5.67-10.33,1.85-14.65l40.16-23.1c7.52-4.32,18.88-4.77,25.38-1.01l47.5,27.53c6.5,3.77,5.67,10.33-1.85,14.65l-40.16,23.1c-7.52,4.32-18.88,4.77-25.38,1.01Z"/>
              <path class="cls-117" d="m112.44,417.24l-46.61-27.02c-6.38-3.7-5.57-10.13,1.81-14.38l39.41-22.67c7.38-4.24,18.53-4.69,24.91-.99l46.61,27.02c6.38,3.7,5.57,10.13-1.81,14.38l-39.41,22.66c-7.38,4.24-18.53,4.69-24.91.99Z"/>
              <path class="cls-97" d="m112.62,416.63l-45.73-26.51c-6.26-3.63-5.46-9.94,1.78-14.1l38.67-22.23c7.24-4.16,18.18-4.6,24.43-.97l45.73,26.51c6.26,3.63,5.46,9.94-1.78,14.1l-38.67,22.23c-7.24,4.16-18.18,4.6-24.43.97Z"/>
              <path class="cls-7" d="m112.81,416.01l-44.84-25.99c-6.14-3.56-5.35-9.75,1.74-13.83l37.92-21.8c7.1-4.08,17.83-4.51,23.96-.95l44.84,25.99c6.14,3.56,5.35,9.75-1.74,13.83l-37.92,21.8c-7.1,4.08-17.83,4.51-23.96.95Z"/>
              <path class="cls-130" d="m112.99,415.39l-43.96-25.48c-6.01-3.49-5.25-9.56,1.71-13.56l37.17-21.37c6.96-4,17.47-4.42,23.49-.93l43.96,25.48c6.01,3.49,5.25,9.56-1.71,13.56l-37.17,21.37c-6.96,4-17.47,4.42-23.49.93Z"/>
              <path class="cls-108" d="m113.18,414.77l-43.07-24.97c-5.89-3.42-5.14-9.36,1.68-13.28l36.42-20.94c6.82-3.92,17.12-4.33,23.01-.91l43.07,24.97c5.89,3.42,5.14,9.36-1.68,13.28l-36.42,20.94c-6.82,3.92-17.12,4.33-23.01.91Z"/>
              <path class="cls-101" d="m113.36,414.15l-42.18-24.45c-5.77-3.35-5.04-9.17,1.64-13.01l35.67-20.51c6.68-3.84,16.77-4.24,22.54-.9l42.18,24.45c5.77,3.35,5.04,9.17-1.64,13.01l-35.67,20.51c-6.68,3.84-16.77,4.24-22.54.9Z"/>
              <path class="cls-104" d="m113.55,413.54l-41.3-23.94c-5.65-3.28-4.93-8.98,1.61-12.74l34.92-20.08c6.54-3.76,16.42-4.15,22.07-.88l41.3,23.94c5.65,3.28,4.93,8.98-1.61,12.74l-34.92,20.08c-6.54,3.76-16.42,4.15-22.07.88Z"/>
              <path class="cls-3" d="m113.74,412.92l-40.41-23.43c-5.53-3.2-4.83-8.79,1.57-12.46l34.17-19.65c6.4-3.68,16.07-4.06,21.59-.86l40.41,23.43c5.53,3.2,4.83,8.79-1.57,12.46l-34.17,19.65c-6.4,3.68-16.07,4.06-21.59.86Z"/>
              <path class="cls-16" d="m113.92,412.3l-39.53-22.91c-5.41-3.13-4.72-8.59,1.54-12.19l33.42-19.22c6.26-3.6,15.71-3.97,21.12-.84l39.53,22.91c5.41,3.13,4.72,8.59-1.54,12.19l-33.42,19.22c-6.26,3.6-15.71,3.97-21.12.84Z"/>
              <path class="cls-131" d="m114.11,411.68l-38.64-22.4c-5.29-3.06-4.61-8.4,1.5-11.92l32.67-18.79c6.12-3.52,15.36-3.88,20.65-.82l38.64,22.4c5.29,3.06,4.61,8.4-1.5,11.92l-32.67,18.79c-6.12,3.52-15.36,3.88-20.65.82Z"/>
              <path class="cls-151" d="m114.29,411.06l-37.76-21.89c-5.17-2.99-4.51-8.21,1.47-11.64l31.92-18.36c5.98-3.44,15.01-3.8,20.17-.8l37.76,21.89c5.17,2.99,4.51,8.21-1.47,11.64l-31.92,18.36c-5.98,3.44-15.01,3.8-20.17.8Z"/>
              <path class="cls-111" d="m114.48,410.44l-36.87-21.37c-5.04-2.92-4.4-8.02,1.43-11.37l31.18-17.93c5.84-3.36,14.66-3.71,19.7-.78l36.87,21.37c5.04,2.92,4.4,8.02-1.43,11.37l-31.18,17.93c-5.84,3.36-14.66,3.71-19.7.78Z"/>
              <path class="cls-120" d="m114.66,409.83l-35.98-20.86c-4.92-2.85-4.3-7.82,1.4-11.1l30.43-17.5c5.7-3.28,14.3-3.62,19.23-.76l35.98,20.86c4.92,2.85,4.3,7.82-1.4,11.1l-30.43,17.5c-5.7,3.28-14.3,3.62-19.23.76Z"/>
              <path class="cls-113" d="m114.85,409.21l-35.1-20.35c-4.8-2.78-4.19-7.63,1.37-10.82l29.68-17.07c5.56-3.19,13.95-3.53,18.75-.74l35.1,20.35c4.8,2.78,4.19,7.63-1.37,10.82l-29.68,17.07c-5.56,3.19-13.95,3.53-18.75.74Z"/>
              <path class="cls-98" d="m115.03,408.59l-34.21-19.83c-4.68-2.71-4.08-7.44,1.33-10.55l28.93-16.63c5.42-3.11,13.6-3.44,18.28-.73l34.21,19.83c4.68,2.71,4.08,7.44-1.33,10.55l-28.93,16.63c-5.42,3.11-13.6,3.44-18.28.73Z"/>
              <path class="cls-102" d="m115.22,407.97l-33.33-19.32c-4.56-2.64-3.98-7.24,1.3-10.28l28.18-16.2c5.28-3.03,13.25-3.35,17.81-.71l33.33,19.32c4.56,2.64,3.98,7.24-1.3,10.28l-28.18,16.2c-5.28,3.03-13.25,3.35-17.81.71Z"/>
              <path class="cls-8" d="m115.4,407.35l-32.44-18.8c-4.44-2.57-3.87-7.05,1.26-10.01l27.43-15.77c5.14-2.95,12.9-3.26,17.33-.69l32.44,18.8c4.44,2.57,3.87,7.05-1.26,10.01l-27.43,15.77c-5.14,2.95-12.9,3.26-17.33.69Z"/>
              <path class="cls-10" d="m115.59,406.74l-31.55-18.29c-4.32-2.5-3.77-6.86,1.23-9.73l26.68-15.34c4.99-2.87,12.54-3.17,16.86-.67l31.55,18.29c4.32,2.5,3.77,6.86-1.23,9.73l-26.68,15.34c-5,2.87-12.54,3.17-16.86.67Z"/>
              <path class="cls-12" d="m115.78,406.12l-30.67-17.78c-4.2-2.43-3.66-6.67,1.19-9.46l25.93-14.91c4.85-2.79,12.19-3.08,16.39-.65l30.67,17.78c4.2,2.43,3.66,6.67-1.19,9.46l-25.93,14.91c-4.85,2.79-12.19,3.08-16.39.65Z"/>
              <path class="cls-20" d="m115.96,405.5l-29.78-17.26c-4.07-2.36-3.56-6.47,1.16-9.19l25.18-14.48c4.71-2.71,11.84-2.99,15.91-.63l29.78,17.26c4.07,2.36,3.56,6.47-1.16,9.19l-25.18,14.48c-4.71,2.71-11.84,2.99-15.91.63Z"/>
              <path class="cls-95" d="m116.15,404.88l-28.9-16.75c-3.95-2.29-3.45-6.28,1.12-8.91l24.43-14.05c4.57-2.63,11.49-2.9,15.44-.61l28.9,16.75c3.95,2.29,3.45,6.28-1.12,8.91l-24.43,14.05c-4.57,2.63-11.49,2.9-15.44.61Z"/>
              <path class="cls-138" d="m116.33,404.26l-28.01-16.24c-3.83-2.22-3.34-6.09,1.09-8.64l23.69-13.62c4.43-2.55,11.14-2.82,14.97-.59l28.01,16.24c3.83,2.22,3.34,6.09-1.09,8.64l-23.69,13.62c-4.43,2.55-11.14,2.82-14.97.59Z"/>
              <path class="cls-134" d="m116.52,403.65l-27.13-15.72c-3.71-2.15-3.24-5.9,1.06-8.37l22.94-13.19c4.29-2.47,10.78-2.73,14.49-.58l27.13,15.72c3.71,2.15,3.24,5.9-1.06,8.37l-22.94,13.19c-4.29,2.47-10.78,2.73-14.49.58Z"/>
              <path class="cls-149" d="m116.7,403.03l-26.24-15.21c-3.59-2.08-3.13-5.7,1.02-8.09l22.19-12.76c4.15-2.39,10.43-2.64,14.02-.56l26.24,15.21c3.59,2.08,3.13,5.7-1.02,8.09l-22.19,12.76c-4.15,2.39-10.43,2.64-14.02.56Z"/>
              <path class="cls-1" d="m116.89,402.41l-25.35-14.7c-3.47-2.01-3.03-5.51.99-7.82l21.44-12.33c4.01-2.31,10.08-2.55,13.55-.54l25.35,14.7c3.47,2.01,3.03,5.51-.99,7.82l-21.44,12.33c-4.01,2.31-10.08,2.55-13.55.54Z"/>
              <path class="cls-106" d="m117.07,401.79l-24.47-14.18c-3.35-1.94-2.92-5.32.95-7.55l20.69-11.9c3.87-2.23,9.73-2.46,13.07-.52l24.47,14.18c3.35,1.94,2.92,5.32-.95,7.55l-20.69,11.9c-3.87,2.23-9.73,2.46-13.07.52Z"/>
              <path class="cls-114" d="m117.26,401.17l-23.58-13.67c-3.23-1.87-2.82-5.13.92-7.27l19.94-11.47c3.73-2.15,9.37-2.37,12.6-.5l23.58,13.67c3.23,1.87,2.82,5.13-.92,7.27l-19.94,11.47c-3.73,2.15-9.37,2.37-12.6.5Z"/>
              <path class="cls-119" d="m117.45,400.56l-22.7-13.16c-3.11-1.8-2.71-4.93.88-7l19.19-11.04c3.59-2.07,9.02-2.28,12.13-.48l22.7,13.16c3.11,1.8,2.71,4.93-.88,7l-19.19,11.04c-3.59,2.07-9.02,2.28-12.13.48Z"/>
              <path class="cls-5" d="m117.63,399.94l-21.81-12.64c-2.98-1.73-2.6-4.74.85-6.73l18.44-10.6c3.45-1.99,8.67-2.19,11.65-.46l21.81,12.64c2.98,1.73,2.6,4.74-.85,6.73l-18.44,10.6c-3.45,1.99-8.67,2.19-11.65.46Z"/>
            </g>
            <g>
              <g>
                <path class="cls-52" d="m157.95,378.05v-71.77s-71.78-1.41-71.78-1.41v71.17c-.25.79.08,1.59,1.04,2.16l32.56,19.26c1.69,1,4.65.91,6.62-.21l29.92-16.86c1.17-.66,1.72-1.53,1.63-2.34Z"/>
                <path class="cls-53" d="m119.78,325.29l-32.56-19.26c-1.69-1-1.46-2.71.52-3.82l29.92-16.86c1.97-1.11,4.93-1.2,6.62-.2l32.56,19.26c1.69,1,1.46,2.71-.52,3.82l-29.92,16.86c-1.97,1.11-4.93,1.2-6.62.2Z"/>
              </g>
              <path class="cls-57" d="m120.82,317.16l-19.95-11.8c-1.03-.61-.89-1.66.32-2.34l18.33-10.33c1.21-.68,3.02-.74,4.06-.13l19.95,11.8c1.03.61.89,1.66-.32,2.34l-18.33,10.33c-1.21.68-3.02.74-4.06.13Z"/>
              <g>
                <path class="cls-55" d="m114.16,370.86c.03-1.34-.77-2.91-1.79-3.51l-24.23-14.31c-.46-.27-.88-.29-1.21-.11h0s-.1.05-.14.09l-6.02,3.58,26.43,19.44,6.1-3.64c.14-.04.26-.12.37-.22h0c.29-.26.48-.7.49-1.31Z"/>
                <path class="cls-56" d="m106.1,375.86l-24.23-14.31c-1.02-.6-1.82-2.17-1.79-3.51h0c.03-1.34.88-1.94,1.9-1.33l24.23,14.31c1.02.6,1.82,2.17,1.79,3.51h0c-.03,1.34-.88,1.94-1.9,1.33Z"/>
              </g>
              <g>
                <path class="cls-70" d="m114.12,360.18c.03-1.34-.77-2.91-1.79-3.51l-24.23-14.31c-.46-.27-.88-.29-1.21-.11h0s-.1.05-.14.09l-6.02,3.58,26.43,19.44,6.1-3.64c.14-.04.26-.12.37-.22h0c.29-.26.48-.7.49-1.31Z"/>
                <path class="cls-68" d="m106.06,365.18l-24.23-14.31c-1.02-.6-1.82-2.17-1.79-3.51h0c.03-1.34.88-1.94,1.9-1.33l24.23,14.31c1.02.6,1.82,2.17,1.79,3.51h0c-.03,1.34-.88,1.94-1.9,1.33Z"/>
              </g>
              <g>
                <path class="cls-69" d="m114.19,349.53c.03-1.34-.77-2.91-1.79-3.51l-24.23-14.31c-.46-.27-.88-.29-1.21-.11h0s-.1.05-.14.09l-6.02,3.58,26.43,19.44,6.1-3.64c.14-.04.26-.12.37-.22h0c.29-.26.48-.7.49-1.31Z"/>
                <path class="cls-67" d="m106.13,354.53l-24.23-14.31c-1.02-.6-1.82-2.17-1.79-3.51h0c.03-1.34.88-1.94,1.9-1.33l24.23,14.31c1.02.6,1.82,2.17,1.79,3.51h0c-.03,1.34-.88,1.94-1.9,1.33Z"/>
              </g>
              <g>
                <path class="cls-71" d="m114.19,338.87c.03-1.34-.77-2.91-1.79-3.51l-24.23-14.31c-.46-.27-.88-.29-1.21-.11h0s-.1.05-.14.09l-6.02,3.58,26.43,19.44,6.1-3.64c.14-.04.26-.12.37-.22h0c.29-.26.48-.7.49-1.31Z"/>
                <path class="cls-65" d="m106.13,343.88l-24.23-14.31c-1.02-.6-1.82-2.17-1.79-3.51h0c.03-1.34.88-1.94,1.9-1.33l24.23,14.31c1.02.6,1.82,2.17,1.79,3.51h0c-.03,1.34-.88,1.94-1.9,1.33Z"/>
              </g>
              <path class="cls-66" d="m100.87,305.4l3.33,1.97,15.32-8.63c1.21-.68,3.02-.74,4.06-.13l16.62,9.83,3.01-1.7c1.21-.68,1.35-1.73.32-2.34l-19.95-11.8c-1.03-.61-2.85-.55-4.06.13l-18.33,10.33c-1.21.68-1.35,1.73-.32,2.34Z"/>
              <g>
                <polygon class="cls-63" points="152.82 325.88 130.11 338.99 130.11 335.46 152.82 322.35 152.82 325.88"/>
                <polygon class="cls-64" points="152.82 332.66 145.85 336.68 145.85 333.16 152.82 329.13 152.82 332.66"/>
                <polygon class="cls-62" points="143.2 338.21 130.11 345.77 130.11 342.24 143.2 334.68 143.2 338.21"/>
                <polygon class="cls-72" points="152.82 339.19 136.66 348.54 136.66 345.01 152.82 335.66 152.82 339.19"/>
                <polygon class="cls-73" points="134.01 350.07 130.11 352.3 130.11 348.77 134.01 346.54 134.01 350.07"/>
                <polygon class="cls-74" points="152.82 346.01 130.11 359.11 130.11 355.59 152.82 342.48 152.82 346.01"/>
                <polygon class="cls-85" points="152.82 352.81 145.85 356.83 145.85 353.31 152.82 349.28 152.82 352.81"/>
                <polygon class="cls-87" points="143.2 358.36 130.11 365.92 130.11 362.39 143.2 354.83 143.2 358.36"/>
                <polygon class="cls-75" points="152.82 359.34 136.66 368.69 136.66 365.16 152.82 355.81 152.82 359.34"/>
                <polygon class="cls-84" points="134.01 370.22 130.11 372.45 130.11 368.92 134.01 366.69 134.01 370.22"/>
                <polygon class="cls-82" points="152.82 365.8 130.11 378.91 130.11 375.38 152.82 362.27 152.82 365.8"/>
              </g>
            </g>
          </g>
          <g id="_3" data-name="3">
            <g class="cls-156">
              <path class="cls-135" d="m162.51,427.57l-26.56-15.4c-3.63-2.11-3.17-5.77,1.03-8.19l22.46-12.91c4.2-2.42,10.56-2.67,14.19-.56l26.56,15.4c3.63,2.11,3.17,5.77-1.03,8.19l-22.46,12.91c-4.2,2.42-10.56,2.67-14.19.56Z"/>
              <path class="cls-136" d="m162.63,427.18l-26-15.07c-3.56-2.06-3.1-5.65,1.01-8.02l21.98-12.64c4.12-2.37,10.34-2.61,13.89-.55l26,15.07c3.56,2.06,3.1,5.65-1.01,8.02l-21.98,12.64c-4.12,2.37-10.34,2.61-13.89.55Z"/>
              <path class="cls-15" d="m162.74,426.79l-25.44-14.75c-3.48-2.02-3.04-5.53.99-7.85l21.51-12.37c4.03-2.32,10.11-2.56,13.59-.54l25.44,14.75c3.48,2.02,3.04,5.53-.99,7.85l-21.51,12.37c-4.03,2.32-10.11,2.56-13.59.54Z"/>
              <path class="cls-117" d="m162.86,426.4l-24.88-14.42c-3.4-1.97-2.97-5.41.97-7.67l21.04-12.1c3.94-2.26,9.89-2.5,13.29-.53l24.88,14.42c3.4,1.97,2.97,5.41-.97,7.67l-21.04,12.1c-3.94,2.26-9.89,2.5-13.29.53Z"/>
              <path class="cls-97" d="m162.98,426.01l-24.32-14.1c-3.33-1.93-2.9-5.29.95-7.5l20.56-11.82c3.85-2.21,9.67-2.44,12.99-.52l24.32,14.1c3.33,1.93,2.9,5.29-.95,7.5l-20.56,11.82c-3.85,2.21-9.67,2.44-12.99.52Z"/>
              <path class="cls-7" d="m163.1,425.61l-23.75-13.77c-3.25-1.88-2.84-5.16.92-7.33l20.09-11.55c3.76-2.16,9.44-2.39,12.69-.5l23.76,13.77c3.25,1.88,2.84,5.16-.92,7.33l-20.09,11.55c-3.76,2.16-9.44,2.39-12.69.5Z"/>
              <path class="cls-130" d="m163.21,425.22l-23.19-13.44c-3.17-1.84-2.77-5.04.9-7.15l19.61-11.28c3.67-2.11,9.22-2.33,12.39-.49l23.19,13.44c3.17,1.84,2.77,5.04-.9,7.15l-19.61,11.28c-3.67,2.11-9.22,2.33-12.39.49Z"/>
              <path class="cls-108" d="m163.33,424.83l-22.63-13.12c-3.1-1.8-2.7-4.92.88-6.98l19.14-11c3.58-2.06,9-2.28,12.09-.48l22.63,13.12c3.1,1.79,2.7,4.92-.88,6.98l-19.14,11c-3.58,2.06-9,2.28-12.09.48Z"/>
              <path class="cls-101" d="m163.45,424.44l-22.07-12.79c-3.02-1.75-2.64-4.8.86-6.81l18.66-10.73c3.49-2.01,8.77-2.22,11.79-.47l22.07,12.79c3.02,1.75,2.64,4.8-.86,6.81l-18.66,10.73c-3.49,2.01-8.77,2.22-11.79.47Z"/>
              <path class="cls-104" d="m163.57,424.05l-21.51-12.47c-2.94-1.71-2.57-4.68.84-6.63l18.19-10.46c3.41-1.96,8.55-2.16,11.49-.46l21.51,12.47c2.94,1.71,2.57,4.68-.84,6.63l-18.19,10.46c-3.41,1.96-8.55,2.16-11.49.46Z"/>
              <path class="cls-3" d="m163.68,423.66l-20.95-12.14c-2.87-1.66-2.5-4.55.81-6.46l17.71-10.19c3.32-1.91,8.33-2.11,11.19-.44l20.95,12.14c2.87,1.66,2.5,4.55-.81,6.46l-17.71,10.19c-3.32,1.91-8.33,2.11-11.19.44Z"/>
              <path class="cls-16" d="m163.8,423.26l-20.39-11.82c-2.79-1.62-2.43-4.43.79-6.29l17.24-9.91c3.23-1.86,8.11-2.05,10.89-.43l20.39,11.82c2.79,1.62,2.43,4.43-.79,6.29l-17.24,9.91c-3.23,1.86-8.11,2.05-10.89.43Z"/>
              <path class="cls-131" d="m163.92,422.87l-19.83-11.49c-2.71-1.57-2.37-4.31.77-6.11l16.77-9.64c3.14-1.8,7.88-1.99,10.59-.42l19.83,11.49c2.71,1.57,2.37,4.31-.77,6.12l-16.77,9.64c-3.14,1.8-7.88,1.99-10.59.42Z"/>
              <path class="cls-151" d="m164.04,422.48l-19.27-11.17c-2.64-1.53-2.3-4.19.75-5.94l16.29-9.37c3.05-1.75,7.66-1.94,10.29-.41l19.27,11.17c2.64,1.53,2.3,4.19-.75,5.94l-16.29,9.37c-3.05,1.75-7.66,1.94-10.29.41Z"/>
              <path class="cls-111" d="m164.15,422.09l-18.7-10.84c-2.56-1.48-2.23-4.07.73-5.77l15.82-9.09c2.96-1.7,7.44-1.88,9.99-.4l18.7,10.84c2.56,1.48,2.23,4.07-.73,5.77l-15.82,9.09c-2.96,1.7-7.44,1.88-10,.4Z"/>
              <path class="cls-120" d="m164.27,421.7l-18.14-10.52c-2.48-1.44-2.17-3.94.71-5.6l15.34-8.82c2.87-1.65,7.21-1.82,9.7-.39l18.14,10.52c2.48,1.44,2.17,3.94-.71,5.6l-15.34,8.82c-2.87,1.65-7.21,1.82-9.7.39Z"/>
              <path class="cls-113" d="m164.39,421.31l-17.58-10.19c-2.41-1.39-2.1-3.82.68-5.42l14.87-8.55c2.78-1.6,6.99-1.77,9.4-.37l17.58,10.19c2.41,1.39,2.1,3.82-.68,5.42l-14.87,8.55c-2.78,1.6-6.99,1.77-9.4.37Z"/>
              <path class="cls-98" d="m164.51,420.92l-17.02-9.87c-2.33-1.35-2.03-3.7.66-5.25l14.39-8.28c2.69-1.55,6.77-1.71,9.1-.36l17.02,9.87c2.33,1.35,2.03,3.7-.66,5.25l-14.39,8.28c-2.69,1.55-6.77,1.71-9.1.36Z"/>
              <path class="cls-102" d="m164.62,420.52l-16.46-9.54c-2.25-1.31-1.97-3.58.64-5.08l13.92-8c2.61-1.5,6.54-1.65,8.8-.35l16.46,9.54c2.25,1.31,1.97,3.58-.64,5.08l-13.92,8c-2.61,1.5-6.54,1.65-8.8.35Z"/>
              <path class="cls-8" d="m164.74,420.13l-15.9-9.22c-2.18-1.26-1.9-3.46.62-4.9l13.44-7.73c2.52-1.45,6.32-1.6,8.5-.34l15.9,9.22c2.18,1.26,1.9,3.46-.62,4.9l-13.44,7.73c-2.52,1.45-6.32,1.6-8.5.34Z"/>
              <path class="cls-10" d="m164.86,419.74l-15.34-8.89c-2.1-1.22-1.83-3.33.6-4.73l12.97-7.46c2.43-1.4,6.1-1.54,8.2-.33l15.34,8.89c2.1,1.22,1.83,3.33-.6,4.73l-12.97,7.46c-2.43,1.4-6.1,1.54-8.2.33Z"/>
              <path class="cls-12" d="m164.98,419.35l-14.78-8.57c-2.02-1.17-1.76-3.21.57-4.56l12.49-7.19c2.34-1.35,5.87-1.49,7.9-.31l14.78,8.57c2.02,1.17,1.76,3.21-.57,4.56l-12.49,7.19c-2.34,1.35-5.87,1.49-7.9.31Z"/>
              <path class="cls-20" d="m165.09,418.96l-14.22-8.24c-1.94-1.13-1.7-3.09.55-4.38l12.02-6.91c2.25-1.29,5.65-1.43,7.6-.3l14.22,8.24c1.94,1.13,1.7,3.09-.55,4.38l-12.02,6.91c-2.25,1.29-5.65,1.43-7.6.3Z"/>
              <path class="cls-95" d="m165.21,418.57l-13.65-7.92c-1.87-1.08-1.63-2.97.53-4.21l11.55-6.64c2.16-1.24,5.43-1.37,7.3-.29l13.65,7.92c1.87,1.08,1.63,2.97-.53,4.21l-11.55,6.64c-2.16,1.24-5.43,1.37-7.3.29Z"/>
              <path class="cls-138" d="m165.33,418.17l-13.09-7.59c-1.79-1.04-1.56-2.85.51-4.04l11.07-6.37c2.07-1.19,5.21-1.32,7-.28l13.09,7.59c1.79,1.04,1.56,2.85-.51,4.04l-11.07,6.37c-2.07,1.19-5.21,1.32-7,.28Z"/>
              <path class="cls-134" d="m165.45,417.78l-12.53-7.26c-1.71-.99-1.5-2.72.49-3.87l10.6-6.09c1.98-1.14,4.98-1.26,6.7-.27l12.53,7.26c1.71.99,1.5,2.72-.49,3.87l-10.6,6.09c-1.98,1.14-4.98,1.26-6.7.27Z"/>
              <path class="cls-149" d="m165.56,417.39l-11.97-6.94c-1.64-.95-1.43-2.6.47-3.69l10.12-5.82c1.89-1.09,4.76-1.2,6.4-.25l11.97,6.94c1.64.95,1.43,2.6-.47,3.69l-10.12,5.82c-1.9,1.09-4.76,1.2-6.4.25Z"/>
              <path class="cls-1" d="m165.68,417l-11.41-6.61c-1.56-.9-1.36-2.48.44-3.52l9.65-5.55c1.81-1.04,4.54-1.15,6.1-.24l11.41,6.61c1.56.9,1.36,2.48-.44,3.52l-9.65,5.55c-1.81,1.04-4.54,1.15-6.1.24Z"/>
              <path class="cls-106" d="m165.8,416.61l-10.85-6.29c-1.48-.86-1.3-2.36.42-3.35l9.17-5.28c1.72-.99,4.31-1.09,5.8-.23l10.85,6.29c1.48.86,1.3,2.36-.42,3.35l-9.17,5.28c-1.72.99-4.31,1.09-5.8.23Z"/>
              <path class="cls-114" d="m165.92,416.22l-10.29-5.96c-1.41-.82-1.23-2.24.4-3.17l8.7-5c1.63-.94,4.09-1.03,5.5-.22l10.29,5.96c1.41.82,1.23,2.24-.4,3.17l-8.7,5c-1.63.94-4.09,1.03-5.5.22Z"/>
              <path class="cls-119" d="m166.03,415.83l-9.73-5.64c-1.33-.77-1.16-2.11.38-3l8.22-4.73c1.54-.89,3.87-.98,5.2-.21l9.73,5.64c1.33.77,1.16,2.11-.38,3l-8.22,4.73c-1.54.89-3.87.98-5.2.21Z"/>
              <path class="cls-5" d="m166.15,415.43l-9.17-5.31c-1.25-.73-1.09-1.99.36-2.83l7.75-4.46c1.45-.83,3.64-.92,4.9-.19l9.17,5.31c1.25.73,1.09,1.99-.36,2.83l-7.75,4.46c-1.45.83-3.64.92-4.9.19Z"/>
            </g>
            <g>
              <path class="cls-83" d="m181.35,406.23v-30.81s-26.53-.52-26.53-.52v30.59c-.09.29.03.59.39.8l12.04,7.12c.62.37,1.72.33,2.45-.08l11.06-6.23c.43-.24.64-.57.6-.87Z"/>
              <path class="cls-86" d="m167.24,382.44l-12.04-7.12c-.62-.37-.54-1,.19-1.41l11.06-6.23c.73-.41,1.82-.44,2.45-.08l12.04,7.12c.62.37.54,1-.19,1.41l-11.06,6.23c-.73.41-1.82.44-2.45.08Z"/>
            </g>
            <path class="cls-148" d="m162.36,390.8l-3.35-1.94c-.23-.13-.41-.48-.41-.78v-5.43c0-.3.19-.44.41-.31l3.35,1.94c.23.13.41.48.41.78v5.43c0,.3-.19.44-.41.31Z"/>
          </g>
          <g id="_2" data-name="2">
            <g id="_2-2" data-name="2">
              <g>
                <g>
                  <path class="cls-90" d="m265.32,282.21l.1-56.92c0-1.67-1.02-3.62-2.28-4.34l-64.87-37.37c-.54-.31-1.03-.33-1.42-.13h0s-2.53,1.45-2.53,1.45l1.7,2.41.04,55.21c0,1.67,1.02,3.62,2.28,4.34l63.29,38.78.62-.26,2.36-1.35h0c.45-.3.74-.92.73-1.8Z"/>
                  <g>
                    <path class="cls-88" d="m260.81,285.57l-64.87-37.37c-1.26-.72-2.28-2.67-2.28-4.34l-.04-57.21c0-1.67,1.02-2.44,2.27-1.72l64.87,37.37c1.26.72,2.28,2.67,2.28,4.34l.04,55.53c0,1.67-1.02,4.13-2.27,3.4Z"/>
                    <path class="cls-89" d="m259.22,279.66l-61.76-35.58c-.55-.32-1-1.18-1.01-1.92l-.04-52.22c0-.74.45-1.08,1-.76l61.76,35.58c.55.32,1,1.18,1.01,1.92l.04,52.22c0,.74-.45,1.08-1,.76Z"/>
                    <path class="cls-91" d="m228.43,206.21l-.26-.15c-.32-.19-.59-.69-.59-1.12h0c0-.43.26-.63.58-.44l.26.15c.32.19.59.69.59,1.12h0c0,.43-.26.63-.58.44Z"/>
                  </g>
                </g>
                <g>
                  <path class="cls-81" d="m260.31,285.38l-3.67-.31-62.05-35.74c-1.26-.72-3.45-.63-4.9.21l-45.24,26.18-2.4-.2v2.43h0c-.03.48.24.95.84,1.29l64.87,37.37c1.26.72,3.45.63,4.9-.21l46.44-26.88c.79-.46,1.18-1.04,1.18-1.59h.01s0-2.56,0-2.56Z"/>
                  <path class="cls-79" d="m207.77,314.1l-64.87-37.37c-1.26-.72-1.1-1.99.35-2.83l46.44-26.88c1.45-.84,3.64-.93,4.9-.21l64.87,37.37c1.26.72,1.1,1.99-.35,2.83l-46.44,26.88c-1.45.84-3.64.93-4.9.21Z"/>
                  <path class="cls-80" d="m226.43,301.51l-61.76-35.57c-.55-.32-.49-.88.15-1.25l25.95-15.06c.64-.37,1.61-.41,2.16-.09l61.76,35.57c.55.32.49.88-.15,1.25l-25.95,15.06c-.64.37-1.61.41-2.16.09Z"/>
                  <path class="cls-78" d="m186.46,298.83l-17.1-9.85c-.3-.17-.26-.47.08-.67l13.84-8.03c.34-.2.86-.22,1.15-.05l17.1,9.85c.3.17.26.47-.08.67l-13.84,8.03c-.34.2-.86.22-1.15.05Z"/>
                  <path class="cls-77" d="m164.66,265.94l.31.18,25.8-14.96c.64-.37,1.61-.41,2.16-.09l61.45,35.4.16-.09c.64-.37.71-.93.15-1.25l-61.76-35.57c-.55-.32-1.52-.28-2.16.09l-25.95,15.06c-.64.37-.71.93-.15,1.25Z"/>
                  <path class="cls-76" d="m169.36,288.98l.49.28,13.43-7.79c.34-.2.86-.22,1.15-.05l16.61,9.57.41-.24c.34-.2.38-.5.08-.67l-17.1-9.85c-.3-.17-.81-.15-1.15.05l-13.84,8.03c-.34.2-.38.5-.08.67Z"/>
                  <path class="cls-92" d="m186.53,298.85l-16.41-9.45c-.28-.16-.45-.34-.36-.38l3.42-1.98c.08-.05.38.04.67.21l16.41,9.45c.28.16.45.34.36.38l-3.42,1.98c-.08.05-.38-.04-.67-.21Z"/>
                  <g>
                    <g>
                      <path class="cls-140" d="m190.79,255.6l-1.73-1c-.44-.25-.38-.69.12-.98l.7-.41c.5-.29,1.26-.32,1.7-.07l1.73,1c.44.25.38.69-.12.98l-.7.41c-.5.29-1.26.32-1.7.07Z"/>
                      <path class="cls-140" d="m195.11,258.08l-1.73-1c-.44-.25-.38-.69.12-.98l.7-.41c.5-.29,1.26-.32,1.7-.07l1.73,1c.44.25.38.69-.12.98l-.7.41c-.5.29-1.26.32-1.7.07Z"/>
                      <path class="cls-140" d="m199.43,260.57l-1.73-1c-.44-.25-.38-.69.12-.98l.7-.41c.5-.29,1.26-.32,1.7-.07l1.73,1c.44.25.38.69-.12.98l-.7.41c-.5.29-1.26.32-1.7.07Z"/>
                      <path class="cls-140" d="m203.75,263.06l-1.73-1c-.44-.25-.38-.69.12-.98l.7-.41c.5-.29,1.26-.32,1.7-.07l1.73,1c.44.25.38.69-.12.98l-.7.41c-.5.29-1.26.32-1.7.07Z"/>
                      <path class="cls-140" d="m208.07,265.55l-1.73-1c-.44-.25-.38-.69.12-.98l.7-.41c.5-.29,1.26-.32,1.7-.07l1.73,1c.44.25.38.69-.12.98l-.7.41c-.5.29-1.26.32-1.7.07Z"/>
                      <path class="cls-140" d="m212.39,268.03l-1.73-1c-.44-.25-.38-.69.12-.98l.7-.41c.5-.29,1.26-.32,1.7-.07l1.73,1c.44.25.38.69-.12.98l-.7.41c-.5.29-1.26.32-1.7.07Z"/>
                      <path class="cls-140" d="m216.71,270.52l-1.73-1c-.44-.25-.38-.69.12-.98l.7-.41c.5-.29,1.26-.32,1.7-.07l1.73,1c.44.25.38.69-.12.98l-.7.41c-.5.29-1.26.32-1.7.07Z"/>
                      <path class="cls-140" d="m221.03,273.01l-1.73-1c-.44-.25-.38-.69.12-.98l.7-.41c.5-.29,1.26-.32,1.7-.07l1.73,1c.44.25.38.69-.12.98l-.7.41c-.5.29-1.26.32-1.7.07Z"/>
                      <path class="cls-140" d="m225.35,275.5l-1.73-1c-.44-.25-.38-.69.12-.98l.7-.41c.5-.29,1.26-.32,1.7-.07l1.73,1c.44.25.38.69-.12.98l-.7.41c-.5.29-1.26.32-1.7.07Z"/>
                      <path class="cls-140" d="m229.67,277.98l-1.73-1c-.44-.25-.38-.69.12-.98l.7-.41c.5-.29,1.26-.32,1.7-.07l1.73,1c.44.25.38.69-.12.98l-.7.41c-.5.29-1.26.32-1.7.07Z"/>
                      <path class="cls-140" d="m234.12,280.55l-1.73-1c-.44-.25-.38-.69.12-.98l.7-.41c.5-.29,1.26-.32,1.7-.07l1.73,1c.44.25.38.69-.12.98l-.7.41c-.5.29-1.26.32-1.7.07Z"/>
                      <path class="cls-140" d="m238.44,283.04l-1.73-1c-.44-.25-.38-.69.12-.98l.7-.41c.5-.29,1.26-.32,1.7-.07l1.73,1c.44.25.38.69-.12.98l-.7.41c-.5.29-1.26.32-1.7.07Z"/>
                      <path class="cls-140" d="m242.76,285.52l-1.73-1c-.44-.25-.38-.69.12-.98l.7-.41c.5-.29,1.26-.32,1.7-.07l1.73,1c.44.25.38.69-.12.98l-.7.41c-.5.29-1.26.32-1.7.07Z"/>
                      <path class="cls-140" d="m247.07,288.01l-1.73-1c-.44-.25-.38-.69.12-.98l.7-.41c.5-.29,1.26-.32,1.7-.07l1.73,1c.44.25.38.69-.12.98l-.7.41c-.5.29-1.26.32-1.7.07Z"/>
                      <g>
                        <path class="cls-140" d="m185.83,258.52l-1.82-1.05c-.44-.25-.38-.69.12-.98l2.1-1.22c.5-.29,1.26-.32,1.7-.07l1.82,1.05c.44.25.38.69-.12.98l-2.1,1.22c-.5.29-1.26.32-1.7.07Z"/>
                        <path class="cls-140" d="m190.15,261.01l-1.82-1.05c-.44-.25-.38-.69.12-.98l2.1-1.22c.5-.29,1.26-.32,1.7-.07l1.82,1.05c.44.25.38.69-.12.98l-2.1,1.22c-.5.29-1.26.32-1.7.07Z"/>
                        <path class="cls-140" d="m194.51,263.52l-1.82-1.05c-.44-.25-.38-.69.12-.98l2.1-1.22c.5-.29,1.26-.32,1.7-.07l1.82,1.05c.44.25.38.69-.12.98l-2.1,1.22c-.5.29-1.26.32-1.7.07Z"/>
                        <path class="cls-140" d="m198.83,266.01l-1.82-1.05c-.44-.25-.38-.69.12-.98l2.1-1.22c.5-.29,1.26-.32,1.7-.07l1.82,1.05c.44.25.38.69-.12.98l-2.1,1.22c-.5.29-1.26.32-1.7.07Z"/>
                        <path class="cls-140" d="m203.15,268.49l-1.82-1.05c-.44-.25-.38-.69.12-.98l2.1-1.22c.5-.29,1.26-.32,1.7-.07l1.82,1.05c.44.25.38.69-.12.98l-2.1,1.22c-.5.29-1.26.32-1.7.07Z"/>
                        <path class="cls-140" d="m207.52,271.01l-1.82-1.05c-.44-.25-.38-.69.12-.98l2.1-1.22c.5-.29,1.26-.32,1.7-.07l1.82,1.05c.44.25.38.69-.12.98l-2.1,1.22c-.5.29-1.26.32-1.7.07Z"/>
                        <path class="cls-140" d="m211.83,273.49l-1.82-1.05c-.44-.25-.38-.69.12-.98l2.1-1.22c.5-.29,1.26-.32,1.7-.07l1.82,1.05c.44.25.38.69-.12.98l-2.1,1.22c-.5.29-1.26.32-1.7.07Z"/>
                        <path class="cls-140" d="m216.2,276.01l-1.82-1.05c-.44-.25-.38-.69.12-.98l2.1-1.22c.5-.29,1.26-.32,1.7-.07l1.82,1.05c.44.25.38.69-.12.98l-2.1,1.22c-.5.29-1.26.32-1.7.07Z"/>
                        <path class="cls-140" d="m220.52,278.5l-1.82-1.05c-.44-.25-.38-.69.12-.98l2.1-1.22c.5-.29,1.26-.32,1.7-.07l1.82,1.05c.44.25.38.69-.12.98l-2.1,1.22c-.5.29-1.26.32-1.7.07Z"/>
                        <path class="cls-140" d="m224.84,280.98l-1.82-1.05c-.44-.25-.38-.69.12-.98l2.1-1.22c.5-.29,1.26-.32,1.7-.07l1.82,1.05c.44.25.38.69-.12.98l-2.1,1.22c-.5.29-1.26.32-1.7.07Z"/>
                        <path class="cls-140" d="m229.2,283.5l-1.82-1.05c-.44-.25-.38-.69.12-.98l2.1-1.22c.5-.29,1.26-.32,1.7-.07l1.82,1.05c.44.25.38.69-.12.98l-2.1,1.22c-.5.29-1.26.32-1.7.07Z"/>
                        <path class="cls-140" d="m233.52,285.98l-1.82-1.05c-.44-.25-.38-.69.12-.98l2.1-1.22c.5-.29,1.26-.32,1.7-.07l1.82,1.05c.44.25.38.69-.12.98l-2.1,1.22c-.5.29-1.26.32-1.7.07Z"/>
                        <path class="cls-140" d="m237.84,288.47l-1.82-1.05c-.44-.25-.38-.69.12-.98l2.1-1.22c.5-.29,1.26-.32,1.7-.07l1.82,1.05c.44.25.38.69-.12.98l-2.1,1.22c-.5.29-1.26.32-1.7.07Z"/>
                        <path class="cls-140" d="m242.2,290.98l-1.82-1.05c-.44-.25-.38-.69.12-.98l2.1-1.22c.5-.29,1.26-.32,1.7-.07l1.82,1.05c.44.25.38.69-.12.98l-2.1,1.22c-.5.29-1.26.32-1.7.07Z"/>
                      </g>
                      <g>
                        <path class="cls-140" d="m180.85,261.47l-1.82-1.05c-.44-.25-.38-.69.12-.98l2.1-1.22c.5-.29,1.26-.32,1.7-.07l1.82,1.05c.44.25.38.69-.12.98l-2.1,1.22c-.5.29-1.26.32-1.7.07Z"/>
                        <path class="cls-140" d="m185.17,263.96l-1.82-1.05c-.44-.25-.38-.69.12-.98l2.1-1.22c.5-.29,1.26-.32,1.7-.07l1.82,1.05c.44.25.38.69-.12.98l-2.1,1.22c-.5.29-1.26.32-1.7.07Z"/>
                        <path class="cls-140" d="m189.53,266.47l-1.82-1.05c-.44-.25-.38-.69.12-.98l2.1-1.22c.5-.29,1.26-.32,1.7-.07l1.82,1.05c.44.25.38.69-.12.98l-2.1,1.22c-.5.29-1.26.32-1.7.07Z"/>
                        <path class="cls-140" d="m193.85,268.96l-1.82-1.05c-.44-.25-.38-.69.12-.98l2.1-1.22c.5-.29,1.26-.32,1.7-.07l1.82,1.05c.44.25.38.69-.12.98l-2.1,1.22c-.5.29-1.26.32-1.7.07Z"/>
                        <path class="cls-140" d="m198.17,271.45l-1.82-1.05c-.44-.25-.38-.69.12-.98l2.1-1.22c.5-.29,1.26-.32,1.7-.07l1.82,1.05c.44.25.38.69-.12.98l-2.1,1.22c-.5.29-1.26.32-1.7.07Z"/>
                        <path class="cls-140" d="m202.53,273.96l-1.82-1.05c-.44-.25-.38-.69.12-.98l2.1-1.22c.5-.29,1.26-.32,1.7-.07l1.82,1.05c.44.25.38.69-.12.98l-2.1,1.22c-.5.29-1.26.32-1.7.07Z"/>
                        <path class="cls-140" d="m206.85,276.45l-1.82-1.05c-.44-.25-.38-.69.12-.98l2.1-1.22c.5-.29,1.26-.32,1.7-.07l1.82,1.05c.44.25.38.69-.12.98l-2.1,1.22c-.5.29-1.26.32-1.7.07Z"/>
                        <path class="cls-140" d="m211.21,278.96l-1.82-1.05c-.44-.25-.38-.69.12-.98l2.1-1.22c.5-.29,1.26-.32,1.7-.07l1.82,1.05c.44.25.38.69-.12.98l-2.1,1.22c-.5.29-1.26.32-1.7.07Z"/>
                        <path class="cls-140" d="m215.53,281.45l-1.82-1.05c-.44-.25-.38-.69.12-.98l2.1-1.22c.5-.29,1.26-.32,1.7-.07l1.82,1.05c.44.25.38.69-.12.98l-2.1,1.22c-.5.29-1.26.32-1.7.07Z"/>
                        <path class="cls-140" d="m219.85,283.94l-1.82-1.05c-.44-.25-.38-.69.12-.98l2.1-1.22c.5-.29,1.26-.32,1.7-.07l1.82,1.05c.44.25.38.69-.12.98l-2.1,1.22c-.5.29-1.26.32-1.7.07Z"/>
                        <path class="cls-140" d="m224.21,286.45l-1.82-1.05c-.44-.25-.38-.69.12-.98l2.1-1.22c.5-.29,1.26-.32,1.7-.07l1.82,1.05c.44.25.38.69-.12.98l-2.1,1.22c-.5.29-1.26.32-1.7.07Z"/>
                        <path class="cls-140" d="m228.53,288.94l-1.82-1.05c-.44-.25-.38-.69.12-.98l2.1-1.22c.5-.29,1.26-.32,1.7-.07l1.82,1.05c.44.25.38.69-.12.98l-2.1,1.22c-.5.29-1.26.32-1.7.07Z"/>
                        <path class="cls-140" d="m232.85,291.42l-1.82-1.05c-.44-.25-.38-.69.12-.98l2.1-1.22c.5-.29,1.26-.32,1.7-.07l1.82,1.05c.44.25.38.69-.12.98l-2.1,1.22c-.5.29-1.26.32-1.7.07Z"/>
                        <path class="cls-140" d="m237.21,293.94l-1.82-1.05c-.44-.25-.38-.69.12-.98l2.1-1.22c.5-.29,1.26-.32,1.7-.07l1.82,1.05c.44.25.38.69-.12.98l-2.1,1.22c-.5.29-1.26.32-1.7.07Z"/>
                      </g>
                      <g>
                        <path class="cls-140" d="m179.91,266.88l-6.1-3.51c-.44-.25-.38-.69.12-.98l2.1-1.22c.5-.29,1.26-.32,1.7-.07l6.1,3.51c.44.25.38.69-.12.98l-2.1,1.22c-.5.29-1.26.32-1.7.07Z"/>
                        <path class="cls-140" d="m184.32,269.42l-1.82-1.05c-.44-.25-.38-.69.12-.98l2.1-1.22c.5-.29,1.26-.32,1.7-.07l1.82,1.05c.44.25.38.69-.12.98l-2.1,1.22c-.5.29-1.26.32-1.7.07Z"/>
                        <path class="cls-140" d="m188.64,271.9l-1.82-1.05c-.44-.25-.38-.69.12-.98l2.1-1.22c.5-.29,1.26-.32,1.7-.07l1.82,1.05c.44.25.38.69-.12.98l-2.1,1.22c-.5.29-1.26.32-1.7.07Z"/>
                        <path class="cls-140" d="m192.96,274.39l-1.82-1.05c-.44-.25-.38-.69.12-.98l2.1-1.22c.5-.29,1.26-.32,1.7-.07l1.82,1.05c.44.25.38.69-.12.98l-2.1,1.22c-.5.29-1.26.32-1.7.07Z"/>
                        <path class="cls-140" d="m197.32,276.91l-1.82-1.05c-.44-.25-.38-.69.12-.98l2.1-1.22c.5-.29,1.26-.32,1.7-.07l1.82,1.05c.44.25.38.69-.12.98l-2.1,1.22c-.5.29-1.26.32-1.7.07Z"/>
                        <path class="cls-140" d="m201.64,279.39l-1.82-1.05c-.44-.25-.38-.69.12-.98l2.1-1.22c.5-.29,1.26-.32,1.7-.07l1.82,1.05c.44.25.38.69-.12.98l-2.1,1.22c-.5.29-1.26.32-1.7.07Z"/>
                        <path class="cls-140" d="m206.01,281.91l-1.82-1.05c-.44-.25-.38-.69.12-.98l2.1-1.22c.5-.29,1.26-.32,1.7-.07l1.82,1.05c.44.25.38.69-.12.98l-2.1,1.22c-.5.29-1.26.32-1.7.07Z"/>
                        <path class="cls-140" d="m210.32,284.39l-1.82-1.05c-.44-.25-.38-.69.12-.98l2.1-1.22c.5-.29,1.26-.32,1.7-.07l1.82,1.05c.44.25.38.69-.12.98l-2.1,1.22c-.5.29-1.26.32-1.7.07Z"/>
                        <path class="cls-140" d="m214.64,286.88l-1.82-1.05c-.44-.25-.38-.69.12-.98l2.1-1.22c.5-.29,1.26-.32,1.7-.07l1.82,1.05c.44.25.38.69-.12.98l-2.1,1.22c-.5.29-1.26.32-1.7.07Z"/>
                        <path class="cls-140" d="m219.01,289.39l-1.82-1.05c-.44-.25-.38-.69.12-.98l2.1-1.22c.5-.29,1.26-.32,1.7-.07l1.82,1.05c.44.25.38.69-.12.98l-2.1,1.22c-.5.29-1.26.32-1.7.07Z"/>
                        <path class="cls-140" d="m223.33,291.88l-1.82-1.05c-.44-.25-.38-.69.12-.98l2.1-1.22c.5-.29,1.26-.32,1.7-.07l1.82,1.05c.44.25.38.69-.12.98l-2.1,1.22c-.5.29-1.26.32-1.7.07Z"/>
                        <path class="cls-140" d="m227.64,294.37l-1.82-1.05c-.44-.25-.38-.69.12-.98l2.1-1.22c.5-.29,1.26-.32,1.7-.07l1.82,1.05c.44.25.38.69-.12.98l-2.1,1.22c-.5.29-1.26.32-1.7.07Z"/>
                        <path class="cls-140" d="m226.96,299.8l-1.82-1.05c-.44-.25-.38-.69.12-.98l7.14-4.14c.5-.29,1.26-.32,1.7-.07l1.82,1.05c.44.25.38.69-.12.98l-7.14,4.14c-.5.29-1.26.32-1.7.07Z"/>
                      </g>
                      <g>
                        <path class="cls-140" d="m170.6,267.34l-1.82-1.05c-.44-.25-.38-.69.12-.98l2.1-1.22c.5-.29,1.26-.32,1.7-.07l1.82,1.05c.44.25.38.69-.12.98l-2.1,1.22c-.5.29-1.26.32-1.7.07Z"/>
                        <path class="cls-140" d="m174.92,269.82l-1.82-1.05c-.44-.25-.38-.69.12-.98l2.1-1.22c.5-.29,1.26-.32,1.7-.07l1.82,1.05c.44.25.38.69-.12.98l-2.1,1.22c-.5.29-1.26.32-1.7.07Z"/>
                        <path class="cls-140" d="m179.28,272.34l-1.82-1.05c-.44-.25-.38-.69.12-.98l2.1-1.22c.5-.29,1.26-.32,1.7-.07l1.82,1.05c.44.25.38.69-.12.98l-2.1,1.22c-.5.29-1.26.32-1.7.07Z"/>
                        <path class="cls-140" d="m183.6,274.82l-1.82-1.05c-.44-.25-.38-.69.12-.98l2.1-1.22c.5-.29,1.26-.32,1.7-.07l1.82,1.05c.44.25.38.69-.12.98l-2.1,1.22c-.5.29-1.26.32-1.7.07Z"/>
                        <path class="cls-140" d="m200.96,284.83l-14.87-8.56c-.44-.25-.38-.69.12-.98l2.1-1.22c.5-.29,1.26-.32,1.7-.07l14.87,8.56c.44.25.38.69-.12.98l-2.1,1.22c-.5.29-1.26.32-1.7.07Z"/>
                        <path class="cls-140" d="m205.28,287.31l-1.82-1.05c-.44-.25-.38-.69.12-.98l2.1-1.22c.5-.29,1.26-.32,1.7-.07l1.82,1.05c.44.25.38.69-.12.98l-2.1,1.22c-.5.29-1.26.32-1.7.07Z"/>
                        <path class="cls-140" d="m209.6,289.8l-1.82-1.05c-.44-.25-.38-.69.12-.98l2.1-1.22c.5-.29,1.26-.32,1.7-.07l1.82,1.05c.44.25.38.69-.12.98l-2.1,1.22c-.5.29-1.26.32-1.7.07Z"/>
                        <path class="cls-140" d="m213.96,292.31l-1.82-1.05c-.44-.25-.38-.69.12-.98l2.1-1.22c.5-.29,1.26-.32,1.7-.07l1.82,1.05c.44.25.38.69-.12.98l-2.1,1.22c-.5.29-1.26.32-1.7.07Z"/>
                        <path class="cls-140" d="m218.28,294.8l-1.82-1.05c-.44-.25-.38-.69.12-.98l2.1-1.22c.5-.29,1.26-.32,1.7-.07l1.82,1.05c.44.25.38.69-.12.98l-2.1,1.22c-.5.29-1.26.32-1.7.07Z"/>
                        <path class="cls-140" d="m222.6,297.29l-1.82-1.05c-.44-.25-.38-.69.12-.98l2.1-1.22c.5-.29,1.26-.32,1.7-.07l1.82,1.05c.44.25.38.69-.12.98l-2.1,1.22c-.5.29-1.26.32-1.7.07Z"/>
                      </g>
                    </g>
                    <g>
                      <path class="cls-147" d="m190.72,254.91l-1.73-1c-.44-.25-.38-.69.12-.98l.7-.41c.5-.29,1.26-.32,1.7-.07l1.73,1c.44.25.38.69-.12.98l-.7.41c-.5.29-1.26.32-1.7.07Z"/>
                      <path class="cls-147" d="m195.04,257.39l-1.73-1c-.44-.25-.38-.69.12-.98l.7-.41c.5-.29,1.26-.32,1.7-.07l1.73,1c.44.25.38.69-.12.98l-.7.41c-.5.29-1.26.32-1.7.07Z"/>
                      <path class="cls-147" d="m199.36,259.88l-1.73-1c-.44-.25-.38-.69.12-.98l.7-.41c.5-.29,1.26-.32,1.7-.07l1.73,1c.44.25.38.69-.12.98l-.7.41c-.5.29-1.26.32-1.7.07Z"/>
                      <path class="cls-147" d="m203.68,262.37l-1.73-1c-.44-.25-.38-.69.12-.98l.7-.41c.5-.29,1.26-.32,1.7-.07l1.73,1c.44.25.38.69-.12.98l-.7.41c-.5.29-1.26.32-1.7.07Z"/>
                      <path class="cls-147" d="m207.99,264.86l-1.73-1c-.44-.25-.38-.69.12-.98l.7-.41c.5-.29,1.26-.32,1.7-.07l1.73,1c.44.25.38.69-.12.98l-.7.41c-.5.29-1.26.32-1.7.07Z"/>
                      <path class="cls-147" d="m212.31,267.34l-1.73-1c-.44-.25-.38-.69.12-.98l.7-.41c.5-.29,1.26-.32,1.7-.07l1.73,1c.44.25.38.69-.12.98l-.7.41c-.5.29-1.26.32-1.7.07Z"/>
                      <path class="cls-147" d="m216.63,269.83l-1.73-1c-.44-.25-.38-.69.12-.98l.7-.41c.5-.29,1.26-.32,1.7-.07l1.73,1c.44.25.38.69-.12.98l-.7.41c-.5.29-1.26.32-1.7.07Z"/>
                      <path class="cls-147" d="m220.95,272.32l-1.73-1c-.44-.25-.38-.69.12-.98l.7-.41c.5-.29,1.26-.32,1.7-.07l1.73,1c.44.25.38.69-.12.98l-.7.41c-.5.29-1.26.32-1.7.07Z"/>
                      <path class="cls-147" d="m225.27,274.81l-1.73-1c-.44-.25-.38-.69.12-.98l.7-.41c.5-.29,1.26-.32,1.7-.07l1.73,1c.44.25.38.69-.12.98l-.7.41c-.5.29-1.26.32-1.7.07Z"/>
                      <path class="cls-147" d="m229.59,277.3l-1.73-1c-.44-.25-.38-.69.12-.98l.7-.41c.5-.29,1.26-.32,1.7-.07l1.73,1c.44.25.38.69-.12.98l-.7.41c-.5.29-1.26.32-1.7.07Z"/>
                      <path class="cls-147" d="m234.04,279.86l-1.73-1c-.44-.25-.38-.69.12-.98l.7-.41c.5-.29,1.26-.32,1.7-.07l1.73,1c.44.25.38.69-.12.98l-.7.41c-.5.29-1.26.32-1.7.07Z"/>
                      <path class="cls-147" d="m238.36,282.35l-1.73-1c-.44-.25-.38-.69.12-.98l.7-.41c.5-.29,1.26-.32,1.7-.07l1.73,1c.44.25.38.69-.12.98l-.7.41c-.5.29-1.26.32-1.7.07Z"/>
                      <path class="cls-147" d="m242.68,284.83l-1.73-1c-.44-.25-.38-.69.12-.98l.7-.41c.5-.29,1.26-.32,1.7-.07l1.73,1c.44.25.38.69-.12.98l-.7.41c-.5.29-1.26.32-1.7.07Z"/>
                      <path class="cls-147" d="m247,287.32l-1.73-1c-.44-.25-.38-.69.12-.98l.7-.41c.5-.29,1.26-.32,1.7-.07l1.73,1c.44.25.38.69-.12.98l-.7.41c-.5.29-1.26.32-1.7.07Z"/>
                      <g>
                        <path class="cls-147" d="m185.75,257.83l-1.82-1.05c-.44-.25-.38-.69.12-.98l2.1-1.22c.5-.29,1.26-.32,1.7-.07l1.82,1.05c.44.25.38.69-.12.98l-2.1,1.22c-.5.29-1.26.32-1.7.07Z"/>
                        <path class="cls-147" d="m190.07,260.32l-1.82-1.05c-.44-.25-.38-.69.12-.98l2.1-1.22c.5-.29,1.26-.32,1.7-.07l1.82,1.05c.44.25.38.69-.12.98l-2.1,1.22c-.5.29-1.26.32-1.7.07Z"/>
                        <path class="cls-147" d="m194.44,262.83l-1.82-1.05c-.44-.25-.38-.69.12-.98l2.1-1.22c.5-.29,1.26-.32,1.7-.07l1.82,1.05c.44.25.38.69-.12.98l-2.1,1.22c-.5.29-1.26.32-1.7.07Z"/>
                        <path class="cls-147" d="m198.76,265.32l-1.82-1.05c-.44-.25-.38-.69.12-.98l2.1-1.22c.5-.29,1.26-.32,1.7-.07l1.82,1.05c.44.25.38.69-.12.98l-2.1,1.22c-.5.29-1.26.32-1.7.07Z"/>
                        <path class="cls-147" d="m203.08,267.81l-1.82-1.05c-.44-.25-.38-.69.12-.98l2.1-1.22c.5-.29,1.26-.32,1.7-.07l1.82,1.05c.44.25.38.69-.12.98l-2.1,1.22c-.5.29-1.26.32-1.7.07Z"/>
                        <path class="cls-147" d="m207.44,270.32l-1.82-1.05c-.44-.25-.38-.69.12-.98l2.1-1.22c.5-.29,1.26-.32,1.7-.07l1.82,1.05c.44.25.38.69-.12.98l-2.1,1.22c-.5.29-1.26.32-1.7.07Z"/>
                        <path class="cls-147" d="m211.76,272.81l-1.82-1.05c-.44-.25-.38-.69.12-.98l2.1-1.22c.5-.29,1.26-.32,1.7-.07l1.82,1.05c.44.25.38.69-.12.98l-2.1,1.22c-.5.29-1.26.32-1.7.07Z"/>
                        <path class="cls-147" d="m216.12,275.32l-1.82-1.05c-.44-.25-.38-.69.12-.98l2.1-1.22c.5-.29,1.26-.32,1.7-.07l1.82,1.05c.44.25.38.69-.12.98l-2.1,1.22c-.5.29-1.26.32-1.7.07Z"/>
                        <path class="cls-147" d="m220.44,277.81l-1.82-1.05c-.44-.25-.38-.69.12-.98l2.1-1.22c.5-.29,1.26-.32,1.7-.07l1.82,1.05c.44.25.38.69-.12.98l-2.1,1.22c-.5.29-1.26.32-1.7.07Z"/>
                        <path class="cls-147" d="m224.76,280.29l-1.82-1.05c-.44-.25-.38-.69.12-.98l2.1-1.22c.5-.29,1.26-.32,1.7-.07l1.82,1.05c.44.25.38.69-.12.98l-2.1,1.22c-.5.29-1.26.32-1.7.07Z"/>
                        <path class="cls-147" d="m229.12,282.81l-1.82-1.05c-.44-.25-.38-.69.12-.98l2.1-1.22c.5-.29,1.26-.32,1.7-.07l1.82,1.05c.44.25.38.69-.12.98l-2.1,1.22c-.5.29-1.26.32-1.7.07Z"/>
                        <path class="cls-147" d="m233.44,285.29l-1.82-1.05c-.44-.25-.38-.69.12-.98l2.1-1.22c.5-.29,1.26-.32,1.7-.07l1.82,1.05c.44.25.38.69-.12.98l-2.1,1.22c-.5.29-1.26.32-1.7.07Z"/>
                        <path class="cls-147" d="m237.76,287.78l-1.82-1.05c-.44-.25-.38-.69.12-.98l2.1-1.22c.5-.29,1.26-.32,1.7-.07l1.82,1.05c.44.25.38.69-.12.98l-2.1,1.22c-.5.29-1.26.32-1.7.07Z"/>
                        <path class="cls-147" d="m242.12,290.3l-1.82-1.05c-.44-.25-.38-.69.12-.98l2.1-1.22c.5-.29,1.26-.32,1.7-.07l1.82,1.05c.44.25.38.69-.12.98l-2.1,1.22c-.5.29-1.26.32-1.7.07Z"/>
                      </g>
                      <g>
                        <path class="cls-147" d="m180.77,260.78l-1.82-1.05c-.44-.25-.38-.69.12-.98l2.1-1.22c.5-.29,1.26-.32,1.7-.07l1.82,1.05c.44.25.38.69-.12.98l-2.1,1.22c-.5.29-1.26.32-1.7.07Z"/>
                        <path class="cls-147" d="m185.09,263.27l-1.82-1.05c-.44-.25-.38-.69.12-.98l2.1-1.22c.5-.29,1.26-.32,1.7-.07l1.82,1.05c.44.25.38.69-.12.98l-2.1,1.22c-.5.29-1.26.32-1.7.07Z"/>
                        <path class="cls-147" d="m189.45,265.78l-1.82-1.05c-.44-.25-.38-.69.12-.98l2.1-1.22c.5-.29,1.26-.32,1.7-.07l1.82,1.05c.44.25.38.69-.12.98l-2.1,1.22c-.5.29-1.26.32-1.7.07Z"/>
                        <path class="cls-147" d="m193.77,268.27l-1.82-1.05c-.44-.25-.38-.69.12-.98l2.1-1.22c.5-.29,1.26-.32,1.7-.07l1.82,1.05c.44.25.38.69-.12.98l-2.1,1.22c-.5.29-1.26.32-1.7.07Z"/>
                        <path class="cls-147" d="m198.09,270.76l-1.82-1.05c-.44-.25-.38-.69.12-.98l2.1-1.22c.5-.29,1.26-.32,1.7-.07l1.82,1.05c.44.25.38.69-.12.98l-2.1,1.22c-.5.29-1.26.32-1.7.07Z"/>
                        <path class="cls-147" d="m202.45,273.27l-1.82-1.05c-.44-.25-.38-.69.12-.98l2.1-1.22c.5-.29,1.26-.32,1.7-.07l1.82,1.05c.44.25.38.69-.12.98l-2.1,1.22c-.5.29-1.26.32-1.7.07Z"/>
                        <path class="cls-147" d="m206.77,275.76l-1.82-1.05c-.44-.25-.38-.69.12-.98l2.1-1.22c.5-.29,1.26-.32,1.7-.07l1.82,1.05c.44.25.38.69-.12.98l-2.1,1.22c-.5.29-1.26.32-1.7.07Z"/>
                        <path class="cls-147" d="m211.14,278.27l-1.82-1.05c-.44-.25-.38-.69.12-.98l2.1-1.22c.5-.29,1.26-.32,1.7-.07l1.82,1.05c.44.25.38.69-.12.98l-2.1,1.22c-.5.29-1.26.32-1.7.07Z"/>
                        <path class="cls-147" d="m215.45,280.76l-1.82-1.05c-.44-.25-.38-.69.12-.98l2.1-1.22c.5-.29,1.26-.32,1.7-.07l1.82,1.05c.44.25.38.69-.12.98l-2.1,1.22c-.5.29-1.26.32-1.7.07Z"/>
                        <path class="cls-147" d="m219.77,283.25l-1.82-1.05c-.44-.25-.38-.69.12-.98l2.1-1.22c.5-.29,1.26-.32,1.7-.07l1.82,1.05c.44.25.38.69-.12.98l-2.1,1.22c-.5.29-1.26.32-1.7.07Z"/>
                        <path class="cls-147" d="m224.14,285.76l-1.82-1.05c-.44-.25-.38-.69.12-.98l2.1-1.22c.5-.29,1.26-.32,1.7-.07l1.82,1.05c.44.25.38.69-.12.98l-2.1,1.22c-.5.29-1.26.32-1.7.07Z"/>
                        <path class="cls-147" d="m228.46,288.25l-1.82-1.05c-.44-.25-.38-.69.12-.98l2.1-1.22c.5-.29,1.26-.32,1.7-.07l1.82,1.05c.44.25.38.69-.12.98l-2.1,1.22c-.5.29-1.26.32-1.7.07Z"/>
                        <path class="cls-147" d="m232.77,290.74l-1.82-1.05c-.44-.25-.38-.69.12-.98l2.1-1.22c.5-.29,1.26-.32,1.7-.07l1.82,1.05c.44.25.38.69-.12.98l-2.1,1.22c-.5.29-1.26.32-1.7.07Z"/>
                        <path class="cls-147" d="m237.14,293.25l-1.82-1.05c-.44-.25-.38-.69.12-.98l2.1-1.22c.5-.29,1.26-.32,1.7-.07l1.82,1.05c.44.25.38.69-.12.98l-2.1,1.22c-.5.29-1.26.32-1.7.07Z"/>
                      </g>
                      <g>
                        <path class="cls-147" d="m179.84,266.19l-6.1-3.51c-.44-.25-.38-.69.12-.98l2.1-1.22c.5-.29,1.26-.32,1.7-.07l6.1,3.51c.44.25.38.69-.12.98l-2.1,1.22c-.5.29-1.26.32-1.7.07Z"/>
                        <path class="cls-147" d="m184.24,268.73l-1.82-1.05c-.44-.25-.38-.69.12-.98l2.1-1.22c.5-.29,1.26-.32,1.7-.07l1.82,1.05c.44.25.38.69-.12.98l-2.1,1.22c-.5.29-1.26.32-1.7.07Z"/>
                        <path class="cls-147" d="m188.56,271.22l-1.82-1.05c-.44-.25-.38-.69.12-.98l2.1-1.22c.5-.29,1.26-.32,1.7-.07l1.82,1.05c.44.25.38.69-.12.98l-2.1,1.22c-.5.29-1.26.32-1.7.07Z"/>
                        <path class="cls-147" d="m192.88,273.7l-1.82-1.05c-.44-.25-.38-.69.12-.98l2.1-1.22c.5-.29,1.26-.32,1.7-.07l1.82,1.05c.44.25.38.69-.12.98l-2.1,1.22c-.5.29-1.26.32-1.7.07Z"/>
                        <path class="cls-147" d="m197.25,276.22l-1.82-1.05c-.44-.25-.38-.69.12-.98l2.1-1.22c.5-.29,1.26-.32,1.7-.07l1.82,1.05c.44.25.38.69-.12.98l-2.1,1.22c-.5.29-1.26.32-1.7.07Z"/>
                        <path class="cls-147" d="m201.57,278.7l-1.82-1.05c-.44-.25-.38-.69.12-.98l2.1-1.22c.5-.29,1.26-.32,1.7-.07l1.82,1.05c.44.25.38.69-.12.98l-2.1,1.22c-.5.29-1.26.32-1.7.07Z"/>
                        <path class="cls-147" d="m205.93,281.22l-1.82-1.05c-.44-.25-.38-.69.12-.98l2.1-1.22c.5-.29,1.26-.32,1.7-.07l1.82,1.05c.44.25.38.69-.12.98l-2.1,1.22c-.5.29-1.26.32-1.7.07Z"/>
                        <path class="cls-147" d="m210.25,283.7l-1.82-1.05c-.44-.25-.38-.69.12-.98l2.1-1.22c.5-.29,1.26-.32,1.7-.07l1.82,1.05c.44.25.38.69-.12.98l-2.1,1.22c-.5.29-1.26.32-1.7.07Z"/>
                        <path class="cls-147" d="m214.57,286.19l-1.82-1.05c-.44-.25-.38-.69.12-.98l2.1-1.22c.5-.29,1.26-.32,1.7-.07l1.82,1.05c.44.25.38.69-.12.98l-2.1,1.22c-.5.29-1.26.32-1.7.07Z"/>
                        <path class="cls-147" d="m218.93,288.71l-1.82-1.05c-.44-.25-.38-.69.12-.98l2.1-1.22c.5-.29,1.26-.32,1.7-.07l1.82,1.05c.44.25.38.69-.12.98l-2.1,1.22c-.5.29-1.26.32-1.7.07Z"/>
                        <path class="cls-147" d="m223.25,291.19l-1.82-1.05c-.44-.25-.38-.69.12-.98l2.1-1.22c.5-.29,1.26-.32,1.7-.07l1.82,1.05c.44.25.38.69-.12.98l-2.1,1.22c-.5.29-1.26.32-1.7.07Z"/>
                        <path class="cls-147" d="m227.57,293.68l-1.82-1.05c-.44-.25-.38-.69.12-.98l2.1-1.22c.5-.29,1.26-.32,1.7-.07l1.82,1.05c.44.25.38.69-.12.98l-2.1,1.22c-.5.29-1.26.32-1.7.07Z"/>
                        <path class="cls-147" d="m226.89,299.11l-1.82-1.05c-.44-.25-.38-.69.12-.98l7.14-4.14c.5-.29,1.26-.32,1.7-.07l1.82,1.05c.44.25.38.69-.12.98l-7.14,4.14c-.5.29-1.26.32-1.7.07Z"/>
                      </g>
                      <g>
                        <path class="cls-147" d="m170.52,266.65l-1.82-1.05c-.44-.25-.38-.69.12-.98l2.1-1.22c.5-.29,1.26-.32,1.7-.07l1.82,1.05c.44.25.38.69-.12.98l-2.1,1.22c-.5.29-1.26.32-1.7.07Z"/>
                        <path class="cls-147" d="m174.84,269.13l-1.82-1.05c-.44-.25-.38-.69.12-.98l2.1-1.22c.5-.29,1.26-.32,1.7-.07l1.82,1.05c.44.25.38.69-.12.98l-2.1,1.22c-.5.29-1.26.32-1.7.07Z"/>
                        <path class="cls-147" d="m179.2,271.65l-1.82-1.05c-.44-.25-.38-.69.12-.98l2.1-1.22c.5-.29,1.26-.32,1.7-.07l1.82,1.05c.44.25.38.69-.12.98l-2.1,1.22c-.5.29-1.26.32-1.7.07Z"/>
                        <path class="cls-147" d="m183.52,274.13l-1.82-1.05c-.44-.25-.38-.69.12-.98l2.1-1.22c.5-.29,1.26-.32,1.7-.07l1.82,1.05c.44.25.38.69-.12.98l-2.1,1.22c-.5.29-1.26.32-1.7.07Z"/>
                        <path class="cls-147" d="m200.88,284.14l-14.87-8.56c-.44-.25-.38-.69.12-.98l2.1-1.22c.5-.29,1.26-.32,1.7-.07l14.87,8.56c.44.25.38.69-.12.98l-2.1,1.22c-.5.29-1.26.32-1.7.07Z"/>
                        <path class="cls-147" d="m205.2,286.62l-1.82-1.05c-.44-.25-.38-.69.12-.98l2.1-1.22c.5-.29,1.26-.32,1.7-.07l1.82,1.05c.44.25.38.69-.12.98l-2.1,1.22c-.5.29-1.26.32-1.7.07Z"/>
                        <path class="cls-147" d="m209.52,289.11l-1.82-1.05c-.44-.25-.38-.69.12-.98l2.1-1.22c.5-.29,1.26-.32,1.7-.07l1.82,1.05c.44.25.38.69-.12.98l-2.1,1.22c-.5.29-1.26.32-1.7.07Z"/>
                        <path class="cls-147" d="m213.89,291.62l-1.82-1.05c-.44-.25-.38-.69.12-.98l2.1-1.22c.5-.29,1.26-.32,1.7-.07l1.82,1.05c.44.25.38.69-.12.98l-2.1,1.22c-.5.29-1.26.32-1.7.07Z"/>
                        <path class="cls-147" d="m218.2,294.11l-1.82-1.05c-.44-.25-.38-.69.12-.98l2.1-1.22c.5-.29,1.26-.32,1.7-.07l1.82,1.05c.44.25.38.69-.12.98l-2.1,1.22c-.5.29-1.26.32-1.7.07Z"/>
                        <path class="cls-147" d="m222.52,296.6l-1.82-1.05c-.44-.25-.38-.69.12-.98l2.1-1.22c.5-.29,1.26-.32,1.7-.07l1.82,1.05c.44.25.38.69-.12.98l-2.1,1.22c-.5.29-1.26.32-1.7.07Z"/>
                      </g>
                    </g>
                  </g>
                </g>
              </g>
              <g>
                <path class="cls-146" d="m216.1,227.66l5.46-7.71c-1.5-2.25-3.3-4.13-5.25-5.3-5.34-3.2-9.76.03-9.87,7.22-.12,7.18,4.12,15.59,9.45,18.79,5.27,3.16,9.64.04,9.86-6.96l-9.65-6.05Z"/>
                <path class="cls-146" d="m224.72,219.19l-5.44,7.73,9.67,6.01c0-.09.01-.17.01-.26.06-4.55-1.64-9.59-4.25-13.48Z"/>
              </g>
              <g>
                <polygon class="cls-146" points="237.73 251.72 237.73 226.05 241.94 228.69 241.94 254.3 237.73 251.72"/>
                <polygon class="cls-146" points="243.26 255.11 243.26 237.28 247.47 239.92 247.47 257.69 243.26 255.11"/>
                <polygon class="cls-146" points="232.04 248.18 232.04 238.04 236.25 240.68 236.25 250.76 232.04 248.18"/>
              </g>
            </g>
            <g id="_5-2" data-name="5">
              <path class="cls-93" d="m219.59,310.98c-.02-.7.42-1.52.97-1.83l6.54-3.69c.25-.14.48-.15.65-.06h0s.05.03.08.04l3.26,1.87-7.73,6.37-3.3-1.9c-.08-.02-.14-.06-.2-.11h0c-.16-.14-.26-.37-.27-.69Z"/>
              <path class="cls-143" d="m223.95,313.6l6.54-3.69c.55-.31.98-1.14.97-1.83h0c-.02-.7-.48-1.01-1.03-.7l-6.54,3.69c-.55.31-.98,1.14-.97,1.83h0c.02.7.48,1.01,1.03.7Z"/>
            </g>
          </g>
        </g>
      </g>
    </g>
  </g>
</svg>