<?xml version="1.0" encoding="UTF-8"?>
<svg xmlns="http://www.w3.org/2000/svg" xmlns:xlink="http://www.w3.org/1999/xlink" viewBox="0 0 185.97 210.84">
  <defs>
    <style>
      .cls-1 {
        fill: url(#_ÂÁ_Ï_ÌÌ_È_ËÂÌÚ_2);
      }

      .cls-1, .cls-2, .cls-3, .cls-4, .cls-5, .cls-6, .cls-7, .cls-8, .cls-9, .cls-10, .cls-11, .cls-12, .cls-13, .cls-14, .cls-15, .cls-16, .cls-17, .cls-18, .cls-19, .cls-20, .cls-21, .cls-22, .cls-23, .cls-24, .cls-25, .cls-26, .cls-27, .cls-28, .cls-29, .cls-30, .cls-31, .cls-32, .cls-33, .cls-34, .cls-35, .cls-36, .cls-37, .cls-38, .cls-39, .cls-40, .cls-41, .cls-42, .cls-43, .cls-44, .cls-45, .cls-46, .cls-47, .cls-48, .cls-49, .cls-50, .cls-51, .cls-52, .cls-53, .cls-54, .cls-55, .cls-56, .cls-57, .cls-58, .cls-59, .cls-60, .cls-61, .cls-62, .cls-63, .cls-64, .cls-65, .cls-66, .cls-67, .cls-68, .cls-69, .cls-70, .cls-71, .cls-72, .cls-73, .cls-74, .cls-75, .cls-76, .cls-77 {
        stroke-width: 0px;
      }

      .cls-2 {
        fill: #8686f2;
        mix-blend-mode: lighten;
      }

      .cls-78, .cls-3, .cls-59 {
        opacity: .11;
      }

      .cls-3 {
        fill: url(#_ÂÁ_Ï_ÌÌ_È_ËÂÌÚ_2-5);
      }

      .cls-4 {
        fill: #180d5b;
        opacity: .2;
      }

      .cls-5 {
        opacity: .8;
      }

      .cls-5, .cls-57, .cls-58, .cls-64 {
        fill: #42e8e0;
      }

      .cls-6 {
        fill: url(#_ÂÁ_Ï_ÌÌ_È_ËÂÌÚ_2-7);
      }

      .cls-7 {
        fill: url(#_ÂÁ_Ï_ÌÌ_È_ËÂÌÚ_2-8);
      }

      .cls-8 {
        fill: url(#_ÂÁ_Ï_ÌÌ_È_ËÂÌÚ_2-6);
      }

      .cls-9 {
        fill: url(#_ÂÁ_Ï_ÌÌ_È_ËÂÌÚ_2-9);
      }

      .cls-10 {
        fill: url(#_ÂÁ_Ï_ÌÌ_È_ËÂÌÚ_2-4);
      }

      .cls-11 {
        fill: url(#_ÂÁ_Ï_ÌÌ_È_ËÂÌÚ_2-3);
      }

      .cls-12 {
        fill: url(#_ÂÁ_Ï_ÌÌ_È_ËÂÌÚ_2-2);
      }

      .cls-13 {
        fill: url(#_ÂÁ_Ï_ÌÌ_È_ËÂÌÚ_2-18);
      }

      .cls-14 {
        fill: url(#_ÂÁ_Ï_ÌÌ_È_ËÂÌÚ_2-17);
      }

      .cls-15 {
        fill: url(#_ÂÁ_Ï_ÌÌ_È_ËÂÌÚ_2-12);
      }

      .cls-16 {
        fill: url(#_ÂÁ_Ï_ÌÌ_È_ËÂÌÚ_2-11);
      }

      .cls-17 {
        fill: url(#_ÂÁ_Ï_ÌÌ_È_ËÂÌÚ_2-19);
      }

      .cls-18 {
        fill: url(#_ÂÁ_Ï_ÌÌ_È_ËÂÌÚ_2-13);
      }

      .cls-19 {
        fill: url(#_ÂÁ_Ï_ÌÌ_È_ËÂÌÚ_2-14);
      }

      .cls-20 {
        fill: url(#_ÂÁ_Ï_ÌÌ_È_ËÂÌÚ_2-16);
      }

      .cls-21 {
        fill: url(#_ÂÁ_Ï_ÌÌ_È_ËÂÌÚ_2-27);
      }

      .cls-22 {
        fill: url(#_ÂÁ_Ï_ÌÌ_È_ËÂÌÚ_2-24);
      }

      .cls-23 {
        fill: url(#_ÂÁ_Ï_ÌÌ_È_ËÂÌÚ_2-25);
      }

      .cls-24 {
        fill: url(#_ÂÁ_Ï_ÌÌ_È_ËÂÌÚ_2-23);
      }

      .cls-25 {
        fill: url(#_ÂÁ_Ï_ÌÌ_È_ËÂÌÚ_2-20);
      }

      .cls-26 {
        fill: url(#_ÂÁ_Ï_ÌÌ_È_ËÂÌÚ_2-21);
      }

      .cls-27 {
        fill: url(#_ÂÁ_Ï_ÌÌ_È_ËÂÌÚ_2-26);
      }

      .cls-28 {
        fill: url(#_ÂÁ_Ï_ÌÌ_È_ËÂÌÚ_2-22);
      }

      .cls-29 {
        fill: url(#_ÂÁ_Ï_ÌÌ_È_ËÂÌÚ_2-28);
      }

      .cls-30 {
        fill: url(#_ÂÁ_Ï_ÌÌ_È_ËÂÌÚ_18-4);
      }

      .cls-31 {
        fill: url(#_ÂÁ_Ï_ÌÌ_È_ËÂÌÚ_18-2);
      }

      .cls-32 {
        fill: url(#_ÂÁ_Ï_ÌÌ_È_ËÂÌÚ_18-3);
      }

      .cls-33 {
        fill: url(#_ÂÁ_Ï_ÌÌ_È_ËÂÌÚ_254-19);
      }

      .cls-33, .cls-34, .cls-35, .cls-36, .cls-37, .cls-38, .cls-39, .cls-40, .cls-41, .cls-42, .cls-43, .cls-44, .cls-45, .cls-46, .cls-47, .cls-48, .cls-49, .cls-50, .cls-51, .cls-52, .cls-53, .cls-54, .cls-55, .cls-56, .cls-57, .cls-79, .cls-76 {
        opacity: .5;
      }

      .cls-34 {
        fill: url(#_ÂÁ_Ï_ÌÌ_È_ËÂÌÚ_254-10);
      }

      .cls-35 {
        fill: url(#_ÂÁ_Ï_ÌÌ_È_ËÂÌÚ_254-18);
      }

      .cls-36 {
        fill: url(#_ÂÁ_Ï_ÌÌ_È_ËÂÌÚ_254-16);
      }

      .cls-37 {
        fill: url(#_ÂÁ_Ï_ÌÌ_È_ËÂÌÚ_254-15);
      }

      .cls-38 {
        fill: url(#_ÂÁ_Ï_ÌÌ_È_ËÂÌÚ_254-17);
      }

      .cls-39 {
        fill: url(#_ÂÁ_Ï_ÌÌ_È_ËÂÌÚ_254-13);
      }

      .cls-40 {
        fill: url(#_ÂÁ_Ï_ÌÌ_È_ËÂÌÚ_254-12);
      }

      .cls-41 {
        fill: url(#_ÂÁ_Ï_ÌÌ_È_ËÂÌÚ_254-14);
      }

      .cls-42 {
        fill: url(#_ÂÁ_Ï_ÌÌ_È_ËÂÌÚ_254-11);
      }

      .cls-43 {
        fill: url(#_ÂÁ_Ï_ÌÌ_È_ËÂÌÚ_254-22);
      }

      .cls-44 {
        fill: url(#_ÂÁ_Ï_ÌÌ_È_ËÂÌÚ_254-21);
      }

      .cls-45 {
        fill: url(#_ÂÁ_Ï_ÌÌ_È_ËÂÌÚ_254-23);
      }

      .cls-46 {
        fill: url(#_ÂÁ_Ï_ÌÌ_È_ËÂÌÚ_254-24);
      }

      .cls-47 {
        fill: url(#_ÂÁ_Ï_ÌÌ_È_ËÂÌÚ_254-20);
      }

      .cls-48 {
        fill: url(#_ÂÁ_Ï_ÌÌ_È_ËÂÌÚ_254);
      }

      .cls-49 {
        fill: url(#_ÂÁ_Ï_ÌÌ_È_ËÂÌÚ_254-3);
      }

      .cls-50 {
        fill: url(#_ÂÁ_Ï_ÌÌ_È_ËÂÌÚ_254-2);
      }

      .cls-51 {
        fill: url(#_ÂÁ_Ï_ÌÌ_È_ËÂÌÚ_254-8);
      }

      .cls-52 {
        fill: url(#_ÂÁ_Ï_ÌÌ_È_ËÂÌÚ_254-5);
      }

      .cls-53 {
        fill: url(#_ÂÁ_Ï_ÌÌ_È_ËÂÌÚ_254-9);
      }

      .cls-54 {
        fill: url(#_ÂÁ_Ï_ÌÌ_È_ËÂÌÚ_254-6);
      }

      .cls-55 {
        fill: url(#_ÂÁ_Ï_ÌÌ_È_ËÂÌÚ_254-4);
      }

      .cls-56 {
        fill: url(#_ÂÁ_Ï_ÌÌ_È_ËÂÌÚ_254-7);
      }

      .cls-58 {
        opacity: .5;
      }

      .cls-59 {
        fill: url(#_ÂÁ_Ï_ÌÌ_È_ËÂÌÚ_2-10);
      }

      .cls-80 {
        isolation: isolate;
      }

      .cls-60 {
        fill: #722318;
      }

      .cls-61 {
        fill: #4846a5;
      }

      .cls-62 {
        fill: #1b2b3a;
      }

      .cls-63 {
        fill: #453c9e;
      }

      .cls-65 {
        fill: #0f054c;
      }

      .cls-66 {
        fill: #160a5b;
      }

      .cls-67 {
        fill: #24126a;
      }

      .cls-68 {
        fill: #c4ccd6;
      }

      .cls-69 {
        fill: #e2b1a6;
      }

      .cls-70 {
        fill: #aa8383;
      }

      .cls-71 {
        fill: #bcbeff;
      }

      .cls-72 {
        fill: #936d6d;
      }

      .cls-73 {
        fill: #fff;
      }

      .cls-74 {
        fill: #fcd1c5;
      }

      .cls-75 {
        fill: #f0f6ff;
      }

      .cls-76 {
        fill: url(#_ÂÁ_Ï_ÌÌ_È_ËÂÌÚ_2-15);
      }

      .cls-77 {
        fill: url(#_ÂÁ_Ï_ÌÌ_È_ËÂÌÚ_18);
      }
    </style>
    <linearGradient id="_ÂÁ_Ï_ÌÌ_È_ËÂÌÚ_2" data-name="¡ÂÁ˚ÏˇÌÌ˚È „‡‰ËÂÌÚ 2" x1="64.31" y1="184.84" x2="156.06" y2="184.84" gradientUnits="userSpaceOnUse">
      <stop offset="0" stop-color="#5761d7"/>
      <stop offset=".07" stop-color="#5471d8"/>
      <stop offset=".28" stop-color="#4d9bda"/>
      <stop offset=".48" stop-color="#48bddd"/>
      <stop offset=".67" stop-color="#44d4de"/>
      <stop offset=".85" stop-color="#42e3df"/>
      <stop offset="1" stop-color="#42e8e0"/>
    </linearGradient>
    <linearGradient id="_ÂÁ_Ï_ÌÌ_È_ËÂÌÚ_2-2" data-name="¡ÂÁ˚ÏˇÌÌ˚È „‡‰ËÂÌÚ 2" y1="177.78" y2="177.78" xlink:href="#_ÂÁ_Ï_ÌÌ_È_ËÂÌÚ_2"/>
    <linearGradient id="_ÂÁ_Ï_ÌÌ_È_ËÂÌÚ_2-3" data-name="¡ÂÁ˚ÏˇÌÌ˚È „‡‰ËÂÌÚ 2" y1="170.72" y2="170.72" xlink:href="#_ÂÁ_Ï_ÌÌ_È_ËÂÌÚ_2"/>
    <linearGradient id="_ÂÁ_Ï_ÌÌ_È_ËÂÌÚ_2-4" data-name="¡ÂÁ˚ÏˇÌÌ˚È „‡‰ËÂÌÚ 2" y1="163.67" y2="163.67" xlink:href="#_ÂÁ_Ï_ÌÌ_È_ËÂÌÚ_2"/>
    <linearGradient id="_ÂÁ_Ï_ÌÌ_È_ËÂÌÚ_2-5" data-name="¡ÂÁ˚ÏˇÌÌ˚È „‡‰ËÂÌÚ 2" x1="64.31" y1="174.25" x2="156.06" y2="174.25" xlink:href="#_ÂÁ_Ï_ÌÌ_È_ËÂÌÚ_2"/>
    <linearGradient id="_ÂÁ_Ï_ÌÌ_È_ËÂÌÚ_2-6" data-name="¡ÂÁ˚ÏˇÌÌ˚È „‡‰ËÂÌÚ 2" y1="155.64" y2="155.64" xlink:href="#_ÂÁ_Ï_ÌÌ_È_ËÂÌÚ_2"/>
    <linearGradient id="_ÂÁ_Ï_ÌÌ_È_ËÂÌÚ_2-7" data-name="¡ÂÁ˚ÏˇÌÌ˚È „‡‰ËÂÌÚ 2" y1="148.59" y2="148.59" xlink:href="#_ÂÁ_Ï_ÌÌ_È_ËÂÌÚ_2"/>
    <linearGradient id="_ÂÁ_Ï_ÌÌ_È_ËÂÌÚ_2-8" data-name="¡ÂÁ˚ÏˇÌÌ˚È „‡‰ËÂÌÚ 2" y1="141.53" y2="141.53" xlink:href="#_ÂÁ_Ï_ÌÌ_È_ËÂÌÚ_2"/>
    <linearGradient id="_ÂÁ_Ï_ÌÌ_È_ËÂÌÚ_2-9" data-name="¡ÂÁ˚ÏˇÌÌ˚È „‡‰ËÂÌÚ 2" y1="134.47" y2="134.47" xlink:href="#_ÂÁ_Ï_ÌÌ_È_ËÂÌÚ_2"/>
    <linearGradient id="_ÂÁ_Ï_ÌÌ_È_ËÂÌÚ_2-10" data-name="¡ÂÁ˚ÏˇÌÌ˚È „‡‰ËÂÌÚ 2" x1="64.31" y1="145.06" x2="156.06" y2="145.06" xlink:href="#_ÂÁ_Ï_ÌÌ_È_ËÂÌÚ_2"/>
    <linearGradient id="_ÂÁ_Ï_ÌÌ_È_ËÂÌÚ_2-11" data-name="¡ÂÁ˚ÏˇÌÌ˚È „‡‰ËÂÌÚ 2" y1="126.45" y2="126.45" xlink:href="#_ÂÁ_Ï_ÌÌ_È_ËÂÌÚ_2"/>
    <linearGradient id="_ÂÁ_Ï_ÌÌ_È_ËÂÌÚ_2-12" data-name="¡ÂÁ˚ÏˇÌÌ˚È „‡‰ËÂÌÚ 2" y1="119.39" y2="119.39" xlink:href="#_ÂÁ_Ï_ÌÌ_È_ËÂÌÚ_2"/>
    <linearGradient id="_ÂÁ_Ï_ÌÌ_È_ËÂÌÚ_2-13" data-name="¡ÂÁ˚ÏˇÌÌ˚È „‡‰ËÂÌÚ 2" y1="112.33" y2="112.33" xlink:href="#_ÂÁ_Ï_ÌÌ_È_ËÂÌÚ_2"/>
    <linearGradient id="_ÂÁ_Ï_ÌÌ_È_ËÂÌÚ_2-14" data-name="¡ÂÁ˚ÏˇÌÌ˚È „‡‰ËÂÌÚ 2" y1="105.28" y2="105.28" xlink:href="#_ÂÁ_Ï_ÌÌ_È_ËÂÌÚ_2"/>
    <linearGradient id="_ÂÁ_Ï_ÌÌ_È_ËÂÌÚ_2-15" data-name="¡ÂÁ˚ÏˇÌÌ˚È „‡‰ËÂÌÚ 2" x1="64.31" y1="115.86" x2="156.06" y2="115.86" xlink:href="#_ÂÁ_Ï_ÌÌ_È_ËÂÌÚ_2"/>
    <linearGradient id="_ÂÁ_Ï_ÌÌ_È_ËÂÌÚ_2-16" data-name="¡ÂÁ˚ÏˇÌÌ˚È „‡‰ËÂÌÚ 2" y1="105.28" y2="105.28" xlink:href="#_ÂÁ_Ï_ÌÌ_È_ËÂÌÚ_2"/>
    <linearGradient id="_ÂÁ_Ï_ÌÌ_È_ËÂÌÚ_2-17" data-name="¡ÂÁ˚ÏˇÌÌ˚È „‡‰ËÂÌÚ 2" x1="64.32" y1="118" x2="156.06" y2="118" xlink:href="#_ÂÁ_Ï_ÌÌ_È_ËÂÌÚ_2"/>
    <linearGradient id="_ÂÁ_Ï_ÌÌ_È_ËÂÌÚ_2-18" data-name="¡ÂÁ˚ÏˇÌÌ˚È „‡‰ËÂÌÚ 2" x1="101.89" y1="86.72" x2="105.86" y2="86.72" xlink:href="#_ÂÁ_Ï_ÌÌ_È_ËÂÌÚ_2"/>
    <linearGradient id="_ÂÁ_Ï_ÌÌ_È_ËÂÌÚ_2-19" data-name="¡ÂÁ˚ÏˇÌÌ˚È „‡‰ËÂÌÚ 2" x1="103.91" y1="77.99" x2="113.85" y2="77.99" xlink:href="#_ÂÁ_Ï_ÌÌ_È_ËÂÌÚ_2"/>
    <linearGradient id="_ÂÁ_Ï_ÌÌ_È_ËÂÌÚ_2-20" data-name="¡ÂÁ˚ÏˇÌÌ˚È „‡‰ËÂÌÚ 2" x1="103.95" y1="68.2" x2="114.73" y2="68.2" xlink:href="#_ÂÁ_Ï_ÌÌ_È_ËÂÌÚ_2"/>
    <linearGradient id="_ÂÁ_Ï_ÌÌ_È_ËÂÌÚ_2-21" data-name="¡ÂÁ˚ÏˇÌÌ˚È „‡‰ËÂÌÚ 2" x1="116.29" y1="137.49" x2="122.82" y2="137.49" gradientTransform="translate(-7.9 -23.06) rotate(-5.01)" xlink:href="#_ÂÁ_Ï_ÌÌ_È_ËÂÌÚ_2"/>
    <linearGradient id="_ÂÁ_Ï_ÌÌ_È_ËÂÌÚ_2-22" data-name="¡ÂÁ˚ÏˇÌÌ˚È „‡‰ËÂÌÚ 2" x1="123.84" y1="86.54" x2="124.76" y2="86.54" gradientTransform="translate(-7.9 -23.06) rotate(-5.01)" xlink:href="#_ÂÁ_Ï_ÌÌ_È_ËÂÌÚ_2"/>
    <linearGradient id="_ÂÁ_Ï_ÌÌ_È_ËÂÌÚ_2-23" data-name="¡ÂÁ˚ÏˇÌÌ˚È „‡‰ËÂÌÚ 2" x1="110" y1="119.3" x2="125.69" y2="119.3" gradientTransform="translate(-7.9 -23.06) rotate(-5.01)" xlink:href="#_ÂÁ_Ï_ÌÌ_È_ËÂÌÚ_2"/>
    <linearGradient id="_ÂÁ_Ï_ÌÌ_È_ËÂÌÚ_2-24" data-name="¡ÂÁ˚ÏˇÌÌ˚È „‡‰ËÂÌÚ 2" x1="124.88" y1="100.71" x2="128.59" y2="100.71" gradientTransform="translate(-7.9 -23.06) rotate(-5.01)" xlink:href="#_ÂÁ_Ï_ÌÌ_È_ËÂÌÚ_2"/>
    <linearGradient id="_ÂÁ_Ï_ÌÌ_È_ËÂÌÚ_2-25" data-name="¡ÂÁ˚ÏˇÌÌ˚È „‡‰ËÂÌÚ 2" x1="101.71" y1="133.97" x2="114.4" y2="133.97" gradientTransform="translate(-7.9 -23.06) rotate(-5.01)" xlink:href="#_ÂÁ_Ï_ÌÌ_È_ËÂÌÚ_2"/>
    <linearGradient id="_ÂÁ_Ï_ÌÌ_È_ËÂÌÚ_2-26" data-name="¡ÂÁ˚ÏˇÌÌ˚È „‡‰ËÂÌÚ 2" x1="108.84" y1="129.38" x2="110.45" y2="129.38" gradientTransform="translate(-7.9 -23.06) rotate(-5.01)" xlink:href="#_ÂÁ_Ï_ÌÌ_È_ËÂÌÚ_2"/>
    <linearGradient id="_ÂÁ_Ï_ÌÌ_È_ËÂÌÚ_2-27" data-name="¡ÂÁ˚ÏˇÌÌ˚È „‡‰ËÂÌÚ 2" x1="105.78" y1="126.31" x2="107.4" y2="126.31" gradientTransform="translate(-7.9 -23.06) rotate(-5.01)" xlink:href="#_ÂÁ_Ï_ÌÌ_È_ËÂÌÚ_2"/>
    <linearGradient id="_ÂÁ_Ï_ÌÌ_È_ËÂÌÚ_2-28" data-name="¡ÂÁ˚ÏˇÌÌ˚È „‡‰ËÂÌÚ 2" x1="108.87" y1="112.33" x2="120.88" y2="112.33" gradientTransform="translate(-7.9 -23.06) rotate(-5.01)" xlink:href="#_ÂÁ_Ï_ÌÌ_È_ËÂÌÚ_2"/>
    <linearGradient id="_ÂÁ_Ï_ÌÌ_È_ËÂÌÚ_18" data-name="¡ÂÁ˚ÏˇÌÌ˚È „‡‰ËÂÌÚ 18" x1="22.69" y1="93.48" x2="86.97" y2="93.48" gradientUnits="userSpaceOnUse">
      <stop offset="0" stop-color="#5761d7"/>
      <stop offset=".16" stop-color="#5e67d9"/>
      <stop offset=".41" stop-color="#7179e1"/>
      <stop offset=".69" stop-color="#9197ee"/>
      <stop offset="1" stop-color="#bcbeff"/>
    </linearGradient>
    <linearGradient id="_ÂÁ_Ï_ÌÌ_È_ËÂÌÚ_254" data-name="¡ÂÁ˚ÏˇÌÌ˚È „‡‰ËÂÌÚ 254" x1="40.88" y1="84.79" x2="79.46" y2="84.79" gradientUnits="userSpaceOnUse">
      <stop offset="0" stop-color="#42e8e0"/>
      <stop offset=".15" stop-color="#42e3df"/>
      <stop offset=".33" stop-color="#44d4de"/>
      <stop offset=".52" stop-color="#48bddd"/>
      <stop offset=".72" stop-color="#4d9bda"/>
      <stop offset=".93" stop-color="#5471d8"/>
      <stop offset="1" stop-color="#5761d7"/>
    </linearGradient>
    <linearGradient id="_ÂÁ_Ï_ÌÌ_È_ËÂÌÚ_254-2" data-name="¡ÂÁ˚ÏˇÌÌ˚È „‡‰ËÂÌÚ 254" x1="60.17" y1="77.82" y2="77.82" xlink:href="#_ÂÁ_Ï_ÌÌ_È_ËÂÌÚ_254"/>
    <linearGradient id="_ÂÁ_Ï_ÌÌ_È_ËÂÌÚ_254-3" data-name="¡ÂÁ˚ÏˇÌÌ˚È „‡‰ËÂÌÚ 254" y1="77.82" x2="60.17" y2="77.82" xlink:href="#_ÂÁ_Ï_ÌÌ_È_ËÂÌÚ_254"/>
    <linearGradient id="_ÂÁ_Ï_ÌÌ_È_ËÂÌÚ_254-4" data-name="¡ÂÁ˚ÏˇÌÌ˚È „‡‰ËÂÌÚ 254" y1="81.98" y2="81.98" xlink:href="#_ÂÁ_Ï_ÌÌ_È_ËÂÌÚ_254"/>
    <linearGradient id="_ÂÁ_Ï_ÌÌ_È_ËÂÌÚ_254-5" data-name="¡ÂÁ˚ÏˇÌÌ˚È „‡‰ËÂÌÚ 254" x1="60.17" y1="88.96" y2="88.96" xlink:href="#_ÂÁ_Ï_ÌÌ_È_ËÂÌÚ_254"/>
    <linearGradient id="_ÂÁ_Ï_ÌÌ_È_ËÂÌÚ_254-6" data-name="¡ÂÁ˚ÏˇÌÌ˚È „‡‰ËÂÌÚ 254" y1="88.96" x2="60.17" y2="88.96" xlink:href="#_ÂÁ_Ï_ÌÌ_È_ËÂÌÚ_254"/>
    <linearGradient id="_ÂÁ_Ï_ÌÌ_È_ËÂÌÚ_18-2" data-name="¡ÂÁ˚ÏˇÌÌ˚È „‡‰ËÂÌÚ 18" y1="159.27" y2="159.27" xlink:href="#_ÂÁ_Ï_ÌÌ_È_ËÂÌÚ_18"/>
    <linearGradient id="_ÂÁ_Ï_ÌÌ_È_ËÂÌÚ_254-7" data-name="¡ÂÁ˚ÏˇÌÌ˚È „‡‰ËÂÌÚ 254" y1="150.58" y2="150.58" xlink:href="#_ÂÁ_Ï_ÌÌ_È_ËÂÌÚ_254"/>
    <linearGradient id="_ÂÁ_Ï_ÌÌ_È_ËÂÌÚ_254-8" data-name="¡ÂÁ˚ÏˇÌÌ˚È „‡‰ËÂÌÚ 254" x1="60.17" y1="143.61" y2="143.61" xlink:href="#_ÂÁ_Ï_ÌÌ_È_ËÂÌÚ_254"/>
    <linearGradient id="_ÂÁ_Ï_ÌÌ_È_ËÂÌÚ_254-9" data-name="¡ÂÁ˚ÏˇÌÌ˚È „‡‰ËÂÌÚ 254" y1="143.61" x2="60.17" y2="143.61" xlink:href="#_ÂÁ_Ï_ÌÌ_È_ËÂÌÚ_254"/>
    <linearGradient id="_ÂÁ_Ï_ÌÌ_È_ËÂÌÚ_254-10" data-name="¡ÂÁ˚ÏˇÌÌ˚È „‡‰ËÂÌÚ 254" y1="147.77" y2="147.77" xlink:href="#_ÂÁ_Ï_ÌÌ_È_ËÂÌÚ_254"/>
    <linearGradient id="_ÂÁ_Ï_ÌÌ_È_ËÂÌÚ_254-11" data-name="¡ÂÁ˚ÏˇÌÌ˚È „‡‰ËÂÌÚ 254" x1="60.17" y1="154.75" y2="154.75" xlink:href="#_ÂÁ_Ï_ÌÌ_È_ËÂÌÚ_254"/>
    <linearGradient id="_ÂÁ_Ï_ÌÌ_È_ËÂÌÚ_254-12" data-name="¡ÂÁ˚ÏˇÌÌ˚È „‡‰ËÂÌÚ 254" y1="154.75" x2="60.17" y2="154.75" xlink:href="#_ÂÁ_Ï_ÌÌ_È_ËÂÌÚ_254"/>
    <linearGradient id="_ÂÁ_Ï_ÌÌ_È_ËÂÌÚ_18-3" data-name="¡ÂÁ˚ÏˇÌÌ˚È „‡‰ËÂÌÚ 18" x1="123.22" x2="187.51" xlink:href="#_ÂÁ_Ï_ÌÌ_È_ËÂÌÚ_18"/>
    <linearGradient id="_ÂÁ_Ï_ÌÌ_È_ËÂÌÚ_254-13" data-name="¡ÂÁ˚ÏˇÌÌ˚È „‡‰ËÂÌÚ 254" x1="141.42" x2="180" xlink:href="#_ÂÁ_Ï_ÌÌ_È_ËÂÌÚ_254"/>
    <linearGradient id="_ÂÁ_Ï_ÌÌ_È_ËÂÌÚ_254-14" data-name="¡ÂÁ˚ÏˇÌÌ˚È „‡‰ËÂÌÚ 254" x1="160.71" y1="77.82" x2="180" y2="77.82" xlink:href="#_ÂÁ_Ï_ÌÌ_È_ËÂÌÚ_254"/>
    <linearGradient id="_ÂÁ_Ï_ÌÌ_È_ËÂÌÚ_254-15" data-name="¡ÂÁ˚ÏˇÌÌ˚È „‡‰ËÂÌÚ 254" x1="141.42" y1="77.82" x2="160.71" y2="77.82" xlink:href="#_ÂÁ_Ï_ÌÌ_È_ËÂÌÚ_254"/>
    <linearGradient id="_ÂÁ_Ï_ÌÌ_È_ËÂÌÚ_254-16" data-name="¡ÂÁ˚ÏˇÌÌ˚È „‡‰ËÂÌÚ 254" x1="141.42" y1="81.98" x2="180" y2="81.98" xlink:href="#_ÂÁ_Ï_ÌÌ_È_ËÂÌÚ_254"/>
    <linearGradient id="_ÂÁ_Ï_ÌÌ_È_ËÂÌÚ_254-17" data-name="¡ÂÁ˚ÏˇÌÌ˚È „‡‰ËÂÌÚ 254" x1="160.71" y1="88.96" x2="180" y2="88.96" xlink:href="#_ÂÁ_Ï_ÌÌ_È_ËÂÌÚ_254"/>
    <linearGradient id="_ÂÁ_Ï_ÌÌ_È_ËÂÌÚ_254-18" data-name="¡ÂÁ˚ÏˇÌÌ˚È „‡‰ËÂÌÚ 254" x1="141.42" y1="88.96" x2="160.71" y2="88.96" xlink:href="#_ÂÁ_Ï_ÌÌ_È_ËÂÌÚ_254"/>
    <linearGradient id="_ÂÁ_Ï_ÌÌ_È_ËÂÌÚ_18-4" data-name="¡ÂÁ˚ÏˇÌÌ˚È „‡‰ËÂÌÚ 18" x1="123.22" y1="159.27" x2="187.51" y2="159.27" xlink:href="#_ÂÁ_Ï_ÌÌ_È_ËÂÌÚ_18"/>
    <linearGradient id="_ÂÁ_Ï_ÌÌ_È_ËÂÌÚ_254-19" data-name="¡ÂÁ˚ÏˇÌÌ˚È „‡‰ËÂÌÚ 254" x1="141.42" y1="150.58" x2="180" y2="150.58" xlink:href="#_ÂÁ_Ï_ÌÌ_È_ËÂÌÚ_254"/>
    <linearGradient id="_ÂÁ_Ï_ÌÌ_È_ËÂÌÚ_254-20" data-name="¡ÂÁ˚ÏˇÌÌ˚È „‡‰ËÂÌÚ 254" x1="160.71" y1="143.61" x2="180" y2="143.61" xlink:href="#_ÂÁ_Ï_ÌÌ_È_ËÂÌÚ_254"/>
    <linearGradient id="_ÂÁ_Ï_ÌÌ_È_ËÂÌÚ_254-21" data-name="¡ÂÁ˚ÏˇÌÌ˚È „‡‰ËÂÌÚ 254" x1="141.42" y1="143.61" x2="160.71" y2="143.61" xlink:href="#_ÂÁ_Ï_ÌÌ_È_ËÂÌÚ_254"/>
    <linearGradient id="_ÂÁ_Ï_ÌÌ_È_ËÂÌÚ_254-22" data-name="¡ÂÁ˚ÏˇÌÌ˚È „‡‰ËÂÌÚ 254" x1="141.42" y1="147.77" x2="180" y2="147.77" xlink:href="#_ÂÁ_Ï_ÌÌ_È_ËÂÌÚ_254"/>
    <linearGradient id="_ÂÁ_Ï_ÌÌ_È_ËÂÌÚ_254-23" data-name="¡ÂÁ˚ÏˇÌÌ˚È „‡‰ËÂÌÚ 254" x1="160.71" y1="154.75" x2="180" y2="154.75" xlink:href="#_ÂÁ_Ï_ÌÌ_È_ËÂÌÚ_254"/>
    <linearGradient id="_ÂÁ_Ï_ÌÌ_È_ËÂÌÚ_254-24" data-name="¡ÂÁ˚ÏˇÌÌ˚È „‡‰ËÂÌÚ 254" x1="141.42" y1="154.75" x2="160.71" y2="154.75" xlink:href="#_ÂÁ_Ï_ÌÌ_È_ËÂÌÚ_254"/>
  </defs>
  <g class="cls-80">
    <g id="Layer_2" data-name="Layer 2">
      <g id="_ÎÓÈ_1" data-name="—ÎÓÈ_1">
        <g>
          <g>
            <path class="cls-64" d="m179.67,42.32c1.86.48,3.69.99,5.49,1.51v13.27c-1.8-.52-3.63-1.03-5.49-1.51v-13.27h0Z"/>
            <path class="cls-57" d="m166.95,42.87c1.99.38,3.96.79,5.89,1.21v9.87c-1.93-.43-3.9-.83-5.89-1.21v-9.87s0,0,0,0Z"/>
            <path class="cls-64" d="m153.43,32.06c2.11.27,4.19.57,6.24.9v18.51c-2.06-.32-4.14-.62-6.24-.9v-18.51h0Z"/>
            <path class="cls-57" d="m139.21,20.4c2.2.16,4.39.34,6.55.56v28.74c-2.16-.21-4.34-.4-6.55-.56v-28.74s0,0,0,0Z"/>
            <path class="cls-57" d="m124.38,26.57c2.29.04,4.56.1,6.82.19v21.93c-2.25-.09-4.53-.16-6.82-.19v-21.93s0,0,0,0Z"/>
            <path class="cls-64" d="m109.41,3.62c2.23-.09,4.49-.15,6.75-.19v45.07c-2.27.03-4.52.1-6.75.19V3.62h0Z"/>
            <path class="cls-64" d="m94.94,12.9c2.15-.21,4.32-.39,6.51-.55v36.78c-2.19.16-4.36.34-6.51.55V12.9h0Z"/>
            <path class="cls-64" d="m81.07.89c2.05-.32,4.13-.62,6.22-.89v50.54c-2.1.27-4.17.57-6.22.89V.89h0Z"/>
          </g>
          <g>
            <g>
              <g>
                <g class="cls-79">
                  <g class="cls-78">
                    <path class="cls-1" d="m113.73,159.78c-2.17-1.26-4.85-1.26-7.03,0l-41.89,24.13c-.66.38-.66,1.33,0,1.71l42.24,24.39c1.92,1.11,4.28,1.11,6.2,0l42.31-24.37c.66-.38.66-1.33,0-1.71l-41.83-24.15Z"/>
                  </g>
                  <g class="cls-78">
                    <path class="cls-12" d="m113.73,152.72c-2.17-1.26-4.85-1.26-7.03,0l-41.89,24.13c-.66.38-.66,1.33,0,1.71l42.24,24.39c1.92,1.11,4.28,1.11,6.2,0l42.31-24.37c.66-.38.66-1.33,0-1.71l-41.83-24.15Z"/>
                  </g>
                  <g class="cls-78">
                    <path class="cls-11" d="m113.73,145.66c-2.17-1.26-4.85-1.26-7.03,0l-41.89,24.13c-.66.38-.66,1.33,0,1.71l42.24,24.39c1.92,1.11,4.28,1.11,6.2,0l42.31-24.37c.66-.38.66-1.33,0-1.71l-41.83-24.15Z"/>
                  </g>
                  <g class="cls-78">
                    <path class="cls-10" d="m113.73,138.61c-2.17-1.26-4.85-1.26-7.03,0l-41.89,24.13c-.66.38-.66,1.33,0,1.71l42.24,24.39c1.92,1.11,4.28,1.11,6.2,0l42.31-24.37c.66-.38.66-1.33,0-1.71l-41.83-24.15Z"/>
                  </g>
                  <path class="cls-3" d="m155.56,162.76l-41.83-24.15c-2.17-1.26-4.85-1.26-7.03,0l-41.89,24.13c-.33.19-.49.52-.49.86v21.17c0,.33.16.67.49.86l42.24,24.39c1.92,1.11,4.28,1.11,6.2,0l42.31-24.37c.33-.19.49-.52.49-.86v-21.17h0c0-.33-.16-.67-.49-.86Z"/>
                </g>
                <g>
                  <g class="cls-78">
                    <path class="cls-8" d="m113.73,130.58c-2.17-1.26-4.85-1.26-7.03,0l-41.89,24.13c-.66.38-.66,1.33,0,1.71l42.24,24.39c1.92,1.11,4.28,1.11,6.2,0l42.31-24.37c.66-.38.66-1.33,0-1.71l-41.83-24.15Z"/>
                  </g>
                  <g class="cls-78">
                    <path class="cls-6" d="m113.73,123.53c-2.17-1.26-4.85-1.26-7.03,0l-41.89,24.13c-.66.38-.66,1.33,0,1.71l42.24,24.39c1.92,1.11,4.28,1.11,6.2,0l42.31-24.37c.66-.38.66-1.33,0-1.71l-41.83-24.15Z"/>
                  </g>
                  <g class="cls-78">
                    <path class="cls-7" d="m113.73,116.47c-2.17-1.26-4.85-1.26-7.03,0l-41.89,24.13c-.66.38-.66,1.33,0,1.71l42.24,24.39c1.92,1.11,4.28,1.11,6.2,0l42.31-24.37c.66-.38.66-1.33,0-1.71l-41.83-24.15Z"/>
                  </g>
                  <g class="cls-78">
                    <path class="cls-9" d="m113.73,109.41c-2.17-1.26-4.85-1.26-7.03,0l-41.89,24.13c-.66.38-.66,1.33,0,1.71l42.24,24.39c1.92,1.11,4.28,1.11,6.2,0l42.31-24.37c.66-.38.66-1.33,0-1.71l-41.83-24.15Z"/>
                  </g>
                  <path class="cls-59" d="m155.56,133.56l-41.83-24.15c-2.17-1.26-4.85-1.26-7.03,0l-41.89,24.13c-.33.19-.49.52-.49.86v21.17c0,.33.16.67.49.86l42.24,24.39c1.92,1.11,4.28,1.11,6.2,0l42.31-24.37c.33-.19.49-.52.49-.86v-21.17h0c0-.33-.16-.67-.49-.86Z"/>
                </g>
                <g>
                  <g class="cls-78">
                    <path class="cls-16" d="m113.73,101.39c-2.17-1.26-4.85-1.26-7.03,0l-41.89,24.13c-.66.38-.66,1.33,0,1.71l42.24,24.39c1.92,1.11,4.28,1.11,6.2,0l42.31-24.37c.66-.38.66-1.33,0-1.71l-41.83-24.15Z"/>
                  </g>
                  <g class="cls-78">
                    <path class="cls-15" d="m113.73,94.33c-2.17-1.26-4.85-1.26-7.03,0l-41.89,24.13c-.66.38-.66,1.33,0,1.71l42.24,24.39c1.92,1.11,4.28,1.11,6.2,0l42.31-24.37c.66-.38.66-1.33,0-1.71l-41.83-24.15Z"/>
                  </g>
                  <g class="cls-78">
                    <path class="cls-18" d="m113.73,87.27c-2.17-1.26-4.85-1.26-7.03,0l-41.89,24.13c-.66.38-.66,1.33,0,1.71l42.24,24.39c1.92,1.11,4.28,1.11,6.2,0l42.31-24.37c.66-.38.66-1.33,0-1.71l-41.83-24.15Z"/>
                  </g>
                  <g class="cls-78">
                    <path class="cls-19" d="m113.73,80.22c-2.17-1.26-4.85-1.26-7.03,0l-41.89,24.13c-.66.38-.66,1.33,0,1.71l42.24,24.39c1.92,1.11,4.28,1.11,6.2,0l42.31-24.37c.66-.38.66-1.33,0-1.71l-41.83-24.15Z"/>
                  </g>
                  <path class="cls-76" d="m155.56,104.37l-41.83-24.15c-2.17-1.26-4.85-1.26-7.03,0l-41.89,24.13c-.33.19-.49.52-.49.86v21.17c0,.33.16.67.49.86l42.24,24.39c1.92,1.11,4.28,1.11,6.2,0l42.31-24.37c.33-.19.49-.52.49-.86v-21.17h0c0-.33-.16-.67-.49-.86Z"/>
                  <g class="cls-78">
                    <path class="cls-20" d="m113.73,80.22c-2.17-1.26-4.85-1.26-7.03,0l-41.89,24.13c-.66.38-.66,1.33,0,1.71l42.24,24.39c1.92,1.11,4.28,1.11,6.2,0l42.31-24.37c.66-.38.66-1.33,0-1.71l-41.83-24.15Z"/>
                  </g>
                  <path class="cls-14" d="m155.56,105.11l-42.31,24.37c-1.92,1.11-4.28,1.11-6.2,0l-42.24-24.39c-.16-.09-.28-.22-.37-.37-.25.45-.13,1.06.37,1.34l42.24,24.39c1.92,1.11,4.28,1.11,6.2,0l42.31-24.37c.5-.29.62-.9.37-1.34-.08.15-.2.28-.37.37Z"/>
                </g>
              </g>
              <g>
                <g>
                  <polygon class="cls-64" points="69.24 112.56 70.28 113.16 70.28 112.47 69.24 111.87 69.24 112.56"/>
                  <polygon class="cls-64" points="69.24 117.28 70.28 117.88 70.28 113.8 69.24 113.2 69.24 117.28"/>
                  <polygon class="cls-64" points="69.24 119.54 70.28 120.14 70.28 118.52 69.24 117.92 69.24 119.54"/>
                  <polygon class="cls-64" points="69.24 121.88 70.28 122.48 70.28 120.86 69.24 120.26 69.24 121.88"/>
                  <polygon class="cls-64" points="67.69 113.92 68.73 114.52 68.73 112.9 67.69 112.3 67.69 113.92"/>
                  <polygon class="cls-64" points="67.69 117.02 68.73 117.62 68.73 115.24 67.69 114.64 67.69 117.02"/>
                  <polygon class="cls-64" points="67.69 119.87 68.73 120.47 68.73 118.43 67.69 117.83 67.69 119.87"/>
                  <polygon class="cls-64" points="69.24 124.22 70.28 124.82 70.28 123.2 69.24 122.6 69.24 124.22"/>
                  <polygon class="cls-64" points="67.69 111.67 68.73 112.27 68.73 111.57 67.69 110.97 67.69 111.67"/>
                </g>
                <polygon class="cls-64" points="68.46 126.04 70.28 127.09 70.28 126.41 68.46 125.36 68.46 126.04"/>
              </g>
            </g>
            <ellipse class="cls-4" cx="110.19" cy="105.28" rx="22.49" ry="12.99"/>
            <g>
              <g>
                <path class="cls-66" d="m110.3,94.58l.04.2.06-.13s.31,1.05.04,1.57c-.26.52-.65,1.17-1.21,1.9-.56.73-1.45,2.25-1.68,2.55-.23.29-1.59,1.43-3.29,1.6-1.7.18-2.13-.8-1.99-1.32.14-.53,1.05-1.92,2.05-3.06,1-1.14,1.76-2.6,1.76-2.6l4.22-.71Z"/>
                <path class="cls-66" d="m105.2,89.96s.05,1.09-.06,1.54c-.11.45-2.61.59-3.5.7s-2.43.75-2.92.98c-.48.24-3.72.58-4.12-.61-.4-1.19,1.62-2.2,2.99-2.51,1.37-.32,3.61-1,3.61-1l3.99.9Z"/>
                <path class="cls-67" d="m113.85,68.39s.09,3.06-.93,7.27c-1.02,4.22-.9,7.17-.9,7.17,0,0,1.07,4.77.13,8.03-.94,3.26-1.73,4.17-1.73,4.17,0,0-1.87,2.48-4.33.26,0,0,1.38-4.47,1.55-8.03,0,0-1.22-2.62-1.64-4.95,0,0-.35,3.71-.56,5.21,0,0,.21,2.2-.37,3.09-.59.89-3.23,1.15-4.08-.4-.84-1.55.7-.79.23-7.9,0,0-2.44-3.04-2.79-8.62-.35-5.59-.32-7.8,0-8.89.32-1.09,5.71-5.01,5.71-5.01l3.04,3.89,6.66,4.73Z"/>
                <g>
                  <path class="cls-13" d="m105.86,83.68c-.15-.51-.28-1.04-.38-1.56,0,0-.35,3.71-.56,5.21,0,0,.21,2.2-.37,3.09-.38.57-1.61.88-2.66.62,1.13.54,2.73.23,3.17-.44.59-.89.37-3.09.37-3.09.13-.91.31-2.62.43-3.83Z"/>
                  <path class="cls-17" d="m113.85,68.39l-6.66-4.73-3.04-3.89s-.09.06-.24.17l2.77,3.54,6.66,4.73s.09,3.06-.93,7.27-.9,7.17-.9,7.17c0,0,1.07,4.77.13,8.03-.94,3.26-1.73,4.17-1.73,4.17,0,0-1.15,1.51-2.83,1.11,1.95.9,3.34-.93,3.34-.93,0,0,.8-.91,1.73-4.17.94-3.26-.13-8.03-.13-8.03,0,0-.12-2.95.9-7.17,1.02-4.22.93-7.27.93-7.27Z"/>
                </g>
                <path class="cls-66" d="m101.83,74.63c-.88-1.05-1.37-4.36-1.37-4.36,0,0,1.37,2.78,2.36,3.58.98.81,1.83,2.42,2,3.48.18,1.05,1.17,4.97,1.17,4.97,0,0-.35,3.71-.56,5.21,0,0,.21,2.2-.37,3.09-.12.18-.32.33-.58.45,0-.04.15-4.91,0-6.97-.15-2.07-1.77-8.4-2.64-9.45Z"/>
                <path class="cls-61" d="m121.96,45.87s2.33,4.55,2.56,4.9c.23.35,4.59,5.9,5.01,9.11,0,0,.33,1.24-1.17,2.34-1.5,1.1-9.06,5.9-9.53,5.97-.47.07-3.21-1.26-3.33-4.26,0,0,5.93-2.76,7.21-4.15,0,0-2.31-3.88-3.44-5.02-.28-.29-.45-.81-.54-1.43-.37-2.55.63-5.1,2.53-6.84l.69-.63Z"/>
                <path class="cls-67" d="m104.56,35.21s-3.6,1.33-4.83.88c-1.23-.46-4.25-.84-6.32-2-2.07-1.16-11.12-3.5-12.47-3.58,0,0-.02.05.2.15.22.09,1.15.18,1.41,1.23.25,1.05-.3,2.32-.46,2.41-.15.09-.24-.29-1.11-.69s-1.4-.37-1.4-.37l-.33.42-.2.3s.43,1.28,1.59,1.36c1.16.09,8.61,3.2,9.08,3.34.47.14,6.72,2.84,7.89,3.26s2.08.96,2.08.96c0,0,3.65-2.44,3.77-2.44s1.1-5.22,1.1-5.22Z"/>
                <path class="cls-74" d="m72,28.99c.15.04,2.04.67,2.04.67,0,0-.75.39-.82.73-.07.34.15,2.25.22,2.37.07.12.46.37.57.45.12.07.41.73.68.64.27-.08.35-.42.35-.42,0,0,.21-.11.28-.15s1.41.08,1.86.37c.44.29,1.46.44,1.88.31.42-.13,1.03-.43,1.17-.51,0,0,.46.07.72.2.26.13,1.08.69,1.2.73.12.05,1.8-3.25-1.2-3.87,0,0-1.25-.11-1.79-.37-.54-.26-2.06-1.43-2.62-1.45-.56-.02-1.14.16-1.14.16,0,0-3.4-.97-3.68-.67-.28.3.13.77.28.81Zm2.46,2.26c.4.01.69-.41.69-.41.26.17.52-.04.52-.04,0,.06.47.15.47.15,0,0,.21.18.47.37.26.19-.09.76-.09.76-.25.02-.55-.11-.8-.22-.25-.12-.47-.11-.65-.17-.17-.07-.61-.44-.61-.44Z"/>
                <path class="cls-66" d="m98.43,64.79c.32-1.09,5.71-5.01,5.71-5.01l1.51,1.93,1.3,5.05,6.9,2.15h0s-.37,3.45-5.98,3.05c-5.62-.4-6.28-4.75-6.28-4.75,0,0-.62,1.43-3.39,1.8-.06-2.31.02-3.5.23-4.22Z"/>
                <path class="cls-63" d="m115.13,38.05l.95,2.44s4.57,3.95,5.88,5.38c0,0-2.26,4.33-2.68,8.9,0,0-2.09,1.7-2.72,2.49-.63.78-2.23,4.41-2.74,5.61s.91,4.8.91,4.8c0,0-1.94,3.59-5.07,3.47-3.13-.12-5.26-2.03-5.66-5.42-.4-3.4-.28-3.89-.28-3.89,0,0-1.41,4.17-3.54,4.17s-5.52-3.62-5.52-3.62c0,0-2.28-2.07-2.07-3.01.21-.94,5.38-9.04,5.66-10.38.28-1.34,1.44-6.11,1.44-6.11l4.87-7.66,2.97.14,7.6,2.69Z"/>
                <path class="cls-25" d="m109.53,70.27c-2.99-.11-5.05-1.88-5.58-5.01.02.14.03.29.05.44.4,3.4,2.53,5.3,5.66,5.42s5.07-3.47,5.07-3.47c0,0-.1-.26-.24-.67-.45.74-2.26,3.38-4.96,3.28Z"/>
                <path class="cls-75" d="m115.13,38.05s.02,1.45-.55,2.89c-.57,1.44-2.45,9.56-6.7,12.33l-1.63,1.04v-5.16s.03-3.18.76-5.19c.73-2.01.7-4.47.7-4.47,0,0,1.19-.33,1.19-.3,0,.02,6.23-1.12,6.23-1.12Z"/>
                <path class="cls-74" d="m109.89,41.82s-.76.31-1.08-.18c-.33-.49-.66-1.48-.57-1.94,0,0-2.01.1-2.41-.95-.4-1.05.04-1.33.1-1.66s.12-1.19.39-1.82l.03-.27s-.41-.35-.22-.72c.19-.37,1.29-1.52,1.4-1.71.11-.19-.03-1.62.4-2.32.43-.71,1.25-1.69,1.25-1.69,0,0,4.29-3.34,7.66,0,3.37,3.34-1.71,9.5-1.71,9.5,0,0-.41,1.99-1.39,2.78-.98.79-3.85.99-3.85.99Z"/>
                <path class="cls-70" d="m113.02,33.68c0-.12.01-.25.05-.36.13-.37.34-1.36-.69-2.1-1.29-.94-3.56-1.78-3.49-2.72s3.65-3.26,6.3-2.01,5.13,4.38,3.33,7.71c-1.8,3.33-3.4,3.86-3.4,3.86,0,0-.54-.11-.06-.66.48-.55,1.36-1.95.63-2.39-.73-.44-1.99.51-2.16.72-.06.08-.13.18-.19.28-.09.16-.29.22-.46.14l-.06-.03c-.17-.08-.25-.27-.18-.44l.32-.86c.05-.13.07-.27.07-.4v-.72Z"/>
                <path class="cls-68" d="m110,42.75s.95.68,1.52,1.98c0,0-1.02-1.05-1.6-1.26,0,0-1.12.53-1.12.88s-.11,2.46-.37,3.59c-.26,1.13-.23,5.12-.23,5.12l-.71.47-.34-1.75.13-3.72.66-3.39s.12-1.28.18-1.35c.05-.07,1.89-.56,1.89-.56Z"/>
                <path class="cls-67" d="m110,42.75s-1.09-1.16-1.64-1.18c-.55-.02-.85.27-.86.34-.01.07-.53,1.88-.53,1.88,0,0-1.03,3.16-.92,6.85.11,3.69.19,3.66.19,3.66l1.35-.86s-.37-2.64.37-5.7c.74-3.06.09-3.51.44-3.83s1.76-.8,1.59-1.17Z"/>
                <path class="cls-67" d="m116.55,57.25c-.63.78-2.2,4.41-2.71,5.6-.08.19-.15.46-.14.75-.13.08-.21.13-.21.13l-.68-.67s.61-2.21,1.6-4.95c.98-2.74,4.87-3.36,4.87-3.36,0,0-2.09,1.7-2.72,2.49Z"/>
                <path class="cls-74" d="m115.5,64.02s-1.11-1.62-1.46-1.83c0,0,.08.46-.55.74-.63.28-3.94,1.56-4.05,1.71-.11.15,0,.33.22.38,0,0-.69.23-.97.23-.28,0-.66.35-.47.66.19.3.35.28.35.28,0,0-.08.34.12.42.2.08.7.09.7.09,0,0-.1.34.18.47.28.13,1.62.28,1.62.28,0,0,1.05-.11,1.35-.12.3,0,1.66.33,2.24.25.58-.08,2.49-.76,2.69-.88.19-.11-1.95-2.68-1.95-2.68Z"/>
                <path class="cls-67" d="m116.29,41.27l-.14,2.18-1.18.37.79.65s-3.19,7.25-7.27,9.55c0,0,3.89-1.38,7.56-9.49,0,0-.39-.46-.5-.59l.82-.36-.09-2.31Z"/>
                <path class="cls-67" d="m105.87,41.04s-1.45,7.4-.21,12.98c0,0-1.48-2.68-.14-12.98h.36Z"/>
                <path class="cls-69" d="m73.29,30.23c.21-.29.74-.57.74-.57,0,0,1.54.63,1.8.75,0,0-1.58-.17-2.55-.18Z"/>
                <path class="cls-69" d="m82.14,34.38c-.06-.02-.31-.18-.57-.35h0c1.02-1.38-.1-3.36-.11-3.37,2.26.88.79,3.76.67,3.72Z"/>
                <path class="cls-69" d="m117.45,66.7c-.14.08-1.23.48-2.02.71,0,0-.51-2-.4-2.67.12-.67.39-.83.39-.83.05.07.07.11.07.11,0,0,2.14,2.56,1.95,2.68Z"/>
                <path class="cls-61" d="m115.5,63.93s-.34,1.16.44,2.05c.78.9.87,1.01.87,1.01h.9s.47-1.41.4-1.45c-.07-.04-2.6-1.61-2.6-1.61Z"/>
                <path class="cls-67" d="m107.14,43.21h0s-.86,5.07-.67,6.94c.19,1.86.12,3.88.12,3.88l-.27.24-.08.05s-.09.03-.19-3.66c-.11-3.69.92-6.85.92-6.85,0,0,.07-.26.17-.59Z"/>
                <path class="cls-66" d="m106.86,95.85c-.25-.14-.51-.32-.77-.56,0,0,1.38-4.47,1.55-8.03,0,0-1.22-2.62-1.64-4.95.12.46,1.53,2.97,2.17,5.54.64,2.56-1.31,8.01-1.31,8.01Z"/>
                <g>
                  <path class="cls-69" d="m113.14,37.23s0-.01,0-.01c0,0,0,0,0,.01Z"/>
                  <path class="cls-69" d="m113.14,37.23c-.03.13-.39,1.93-1.12,2.78-.76.88-1.34,1.73-1.34,1.73-.47.06-.8.08-.8.08,0,0-.76.31-1.08-.18-.33-.49-.66-1.48-.57-1.94,0,0,2.71-.28,3.75-1,.96-.67,1.14-1.37,1.16-1.46Z"/>
                </g>
                <path class="cls-62" d="m114.12,62.21s-.15.31-.17.33c-.03.02-.06-.24-.06-.24,0,0,.12-.25.13-.25s.11.16.11.16Z"/>
                <path class="cls-67" d="m106.24,54.31s-1.89,6.05-2.52,7.51l.04,1.45s2.41-7.51,2.49-8.97Z"/>
                <path class="cls-67" d="m104.41,56.46c-.11.35.07.72.4.82.33.1.68-.11.79-.46.11-.35-.07-.72-.4-.82-.33-.1-.68.11-.79.46Z"/>
                <path class="cls-67" d="m103.45,59.07c-.11.35.07.72.4.82.33.1.68-.11.79-.46.11-.35-.07-.72-.4-.82-.33-.1-.68.11-.79.46Z"/>
              </g>
              <path class="cls-72" d="m112.97,34.8c.05-.13.07-.27.07-.4v-.72c-.02-.12,0-.25.04-.36.04-.1.08-.26.1-.45,0,0,2.95,2.15,4.82,2.23-1.57,2.51-2.86,2.95-2.86,2.95,0,0-.54-.11-.06-.66.48-.55,1.36-1.95.63-2.39-.73-.44-1.99.51-2.16.72-.06.08-.13.18-.19.28-.09.16-.29.22-.46.14l-.06-.03c-.17-.08-.25-.27-.18-.44l.32-.86Z"/>
            </g>
            <g>
              <g>
                <path class="cls-66" d="m118.55,113.89s-1.33.33-2.62.38c-1.29.05-4.79.75-4.71,2.06.09,1.31,1.92,3.2,4.21,3.48,2.3.28,5.25-.38,6.75-.34,1.5.04,2.52-1.49,1.94-2.95-.58-1.46-5.57-2.63-5.57-2.63Z"/>
                <path class="cls-66" d="m126.28,110.37s.49.79.25,1.28c-.24.49-.88,1.69-2.98.52-2.09-1.16-6.12-2.82-6.12-2.82,0,0-2.31-1.23-2.18-2.68.13-1.44,2.25-1.23,2.25-1.23l8.78,4.93Z"/>
                <path class="cls-67" d="m112.67,89.8s.89,9.42,2.78,12.99c1.92,3.63,2.46,10.28,2.86,11.55.4,1.28,1.65,3.11,3.61,3.5,1.97.39,2.29-.95,2.19-1.75-.1-.8-.64-2.09-.65-2.96,0-.87.19-1.27.22-1.67,0,0,2.25.66,2.59-1.08,0,0-.18-.51-.21-.77-.03-.26.19-6.57.25-7.33.05-.76-.36-4.88-.98-6.92-.62-2.01-.41-6.3-.41-6.3l-6.41-.89-5.85,1.63Z"/>
                <path class="cls-26" d="m125.33,95.36c-.62-2.01-.41-6.3-.41-6.3l-.56-.08c-.02.59-.16,4.35.41,6.2.62,2.03,1.03,6.15.97,6.91-.06.76-.29,7.07-.26,7.32.03.26.21.77.21.77-.34,1.74-2.59,1.08-2.59,1.08-.03.4-.23.8-.23,1.67,0,.87.55,2.16.65,2.96.1.8-.23,2.14-2.19,1.75-.06-.01-.12-.04-.18-.05.24.1.5.19.77.24,1.97.39,2.29-.95,2.19-1.75-.1-.8-.64-2.09-.65-2.96,0-.87.2-1.35.23-1.75,0,0,2.25.74,2.59-1,0,0-.18-.51-.21-.77-.03-.26.19-6.57.25-7.33.05-.76-.36-4.88-.98-6.92Z"/>
                <path class="cls-66" d="m123.02,89.74s-.03,1.47-.64,2.71c0,0,.01,5.01-.5,7.54,0,0,.83,5.09,1.35,6.7.53,1.62.46,4.77.46,4.77,0,0,.26.09.62.11.37.01.39-6.22-.17-7.32-.56-1.1-.99-5.96-.77-7.44.21-1.47.14-5.69.42-6.43.28-.74-.35-1.13-.35-1.13l-.41.51Z"/>
                <path class="cls-66" d="m117.63,55.75s-1.86,1.35-1.77,3.67l1.38-.3s-.41-2.57.38-3.37Z"/>
                <path class="cls-66" d="m118.35,91.79c4.25.13,6.54-1.75,6.54-1.75,0-.6.03-.98.03-.98l-6.41-.89-5.85,1.63s.18,1.86.54,4.24c1.04.11,2.06-2.45,2.06-2.45l2.91.18s-4.07-.11.17.02Z"/>
                <path class="cls-63" d="m113.49,89.94s9.23,3.77,13.7-3.38c.13-.2.19-.45.18-.7l-.06-1.67c0-.21.02-.42.09-.62h0c.14-.42.18-.88.09-1.33-.35-1.86-1.28-6.92-1.5-8.33-.27-1.71.64-8.57,2.17-11.54,1.51-2.93-2.37-9.51-2.37-9.51,0,0-.95-1.54-2.81-1.01,0,0,1.78,1.24.8,2.55-.98,1.32-3.9,2.37-3.9,2.37,0,0-5.4,2.8-7.24,6.21,0,0-.63,1.77-.69,4.01-.06,2.27.19,7.7.1,8.46-.09.76-.38,5.94-.35,6.18.03.24,1.79,8.29,1.79,8.29Z"/>
                <g>
                  <path class="cls-28" d="m123.84,52.8c.15-.37.1-.73-.03-1.04-.26,0-.53,0-.84.09,0,0,.55.38.87.95Z"/>
                  <path class="cls-67" d="m116.28,90.71s5.44-14.68,5.18-20.01c-.25-5.2-7.94,10.53-7.94,10.53l-.04,8.71s1.74.64,2.8.77Z"/>
                  <path class="cls-24" d="m127.24,82.13c-.07.19-.1.4-.09.61l.06,1.66c0,.25-.05.5-.18.7-4.45,7.1-13.65,3.36-13.65,3.36,0,0-1.27-5.77-1.66-7.65-.02.46-.03.78-.02.83.03.24,1.79,8.29,1.79,8.29,0,0,9.23,3.77,13.7-3.38.13-.2.19-.45.18-.7l-.06-1.67c0-.21.02-.42.09-.62.14-.42.18-.88.09-1.33-.04-.19-.08-.43-.13-.69-.02.2-.05.39-.12.58Z"/>
                  <path class="cls-22" d="m128.01,61.07c-1.53,2.95-2.44,9.76-2.17,11.47.02.16.06.36.1.6,0-2.46.86-8.13,2.22-10.77.42-.82.41-1.94.19-3.11.02.68-.07,1.31-.34,1.82Z"/>
                </g>
                <path class="cls-61" d="m113.35,73.36c.2-1.2.31-2.4.33-3.6.02-2.09.61-5.55,4.39-4.95,5.34.85,3.06,8.33,2.47,9.64-.59,1.31-2.93,7.24-3.05,7.58-.12.32-3.81,7.71-5.13,9.49-.12.16-.33.19-.48.06-.53-.46-1.74-1.54-1.89-2.23-.2-.88.57-4.08.57-4.08,0,0,2.08-8,2.26-8.37.13-.28.22-1.59.54-3.53Z"/>
                <path class="cls-74" d="m117.72,55.92s-.42-.96-1.4-1.06c-.98-.1-1.54-.37-1.63-.73-.1-.36-.1-.8-.34-1.34-.24-.54-.44-1.86-.43-1.89,0-.03-.74-.26-.78-.58-.04-.33.35-1.5.31-1.59-.04-.09-.44-.81-.39-1.36.05-.56.13-1.36.42-2.04.3-.68,2.37-4.82,7.77-2.69,5.46,2.16,1.31,6.74,1.85,9.71,0,0,.49.63-.4,1.69-.89,1.07-3.48,1.3-4.97,1.91Z"/>
                <path class="cls-69" d="m122.69,54.02c.89-1.06.4-1.69.4-1.69-.08-.41-.06-.86.01-1.32l-2.14.41s-3.16-2.81-2.93-1.3c.23,1.51-.54,1.78-.54,1.78l.65.82c.17.21.07.46-.07.69-.9,1.55-3.09,1.08-3.09,1.08.27.18.72.31,1.33.37.98.1,1.4,1.06,1.4,1.06,1.49-.61,4.07-.84,4.97-1.91Z"/>
                <g>
                  <path class="cls-70" d="m113.24,43.74s-.38,1.11.23,1.57c.61.47,1.17.91,1.17.91v1.41c0,.2.06.4.16.57l.77,1.19c.15.23.23.5.23.77v.57c0,.17.13.31.29.33l.2.02c.18.02.34-.11.36-.29l.08-.8s.4-.64,1.29.12l.8.33c.22.09.4.27.48.5.22.61.7,1.83,1.06,2.03.48.27,2.35-.69,2.6-1.12.25-.43.88-3.27,1.27-4.63.39-1.35.16-4.68-3.86-5.54-4.01-.85-6.59.85-7.14,2.06Z"/>
                  <path class="cls-72" d="m122.98,51.85c.25-.43.88-3.27,1.27-4.63,0,0-1.56,1.04-3.58,1.34-2.02.31-6.03-1.97-6.03-1.97v1.03c0,.2.06.4.17.57l.77,1.19c.15.23.23.5.23.77v.57c0,.17.13.31.29.33l.2.02c.18.02.34-.11.36-.29l.08-.8s.4-.64,1.29.12l1.15.47s.7,2.11,1.18,2.39c.48.27,2.35-.69,2.6-1.12Z"/>
                </g>
                <path class="cls-75" d="m123.05,51.98s1.56.96.78,2.33c-.79,1.38-6.46,3.82-6.74,4.18,0,0-.22-2.05.53-2.74,0,0,4.34-.85,5.02-1.95.67-1.1.41-1.81.41-1.81Z"/>
                <path class="cls-68" d="m123.05,51.98s.26.71-.41,1.81c-.51.84-3.12,1.53-4.36,1.81h0s.46.26,1.23,1.58c1.74-.9,3.86-2.07,4.32-2.87.78-1.37-.78-2.33-.78-2.33Z"/>
                <path class="cls-67" d="m124.11,56.36s-2.53,1.45-3.76,2.1c-1.23.66-2.58,1.53-2.58,1.53l-.47-.47-.57,1.25s-1.94,1.17-2.85,2.14c-.91.98-1.6,2.25-1.7,2.54,0,0,2.42-3.18,4.33-4.12l.51-.26.29-.99.47.5s5.55-3.35,6.32-4.21Z"/>
              </g>
              <g>
                <path class="cls-23" d="m117.6,99.22h0s0,0,0,0c-.08-.23-.2-.43-.34-.54l-10.39-8.72c-.27-.23-.54-.05-.59.39l-1.22,10.16c-.06.47.13,1.05.41,1.29l8.73,7.55-.3,2.94,2.61-1.2h0c.12-.08.2-.25.23-.5l.97-10.62c.02-.24-.02-.5-.1-.73Z"/>
                <path class="cls-63" d="m104.04,90.96l2.46-1.06.08-.03c.09-.02.19,0,.3.09l10.39,8.72c.14.12.26.32.34.54l-.37.18h0l-2.12,1.02-9.11-7.79h0l-1.96-1.68Z"/>
                <path class="cls-67" d="m102.91,102.93l10.63,9.26c.29.25.57.06.61-.43l1.03-10.67c.05-.47-.15-1.04-.43-1.28l-10.37-8.77c-.27-.23-.54-.05-.6.39l-1.28,10.21c-.06.47.12,1.05.4,1.29Z"/>
                <path class="cls-66" d="m115.47,111.13l1-10.64c.04-.47-.15-1.04-.44-1.28l-10.38-8.75c-.08-.07-.17-.1-.25-.1.1-.04.21-.02.33.08l10.38,8.74c.28.24.48.81.44,1.28l-1,10.64c-.03.34-.16.55-.34.56.14-.06.23-.26.25-.53Z"/>
                <g>
                  <g>
                    <path class="cls-66" d="m111.66,95.46l.54-.27c.12-.06.24-.08.34-.06h.04c.05.02.08.08.07.16v.1s-1.54.76-1.54.76v-.1c.02-.08.06-.18.13-.25l.05-.06c.12-.13.24-.23.36-.29Z"/>
                    <polygon class="cls-66" points="111.86 96.78 111.12 96.16 112.64 95.17 113.36 95.78 111.86 96.78"/>
                    <path class="cls-27" d="m112.4,96.08l.54-.27c.12-.06.24-.08.34-.06h.04c.05.02.08.08.07.16v.1s-1.54.77-1.54.77v-.1c.02-.08.06-.18.13-.25l.05-.06c.12-.13.24-.23.36-.29Z"/>
                    <polygon class="cls-60" points="112.72 96.34 112.77 95.89 112.72 95.92 112.68 96.37 112.72 96.34"/>
                    <polygon class="cls-60" points="112.77 95.9 112.01 95.29 111.98 95.31 112.72 95.92 112.77 95.9"/>
                  </g>
                  <g>
                    <path class="cls-66" d="m108.36,92.69l.54-.27c.12-.06.24-.08.34-.06h.04c.05.02.08.08.07.16v.1s-1.54.76-1.54.76v-.1c.02-.08.07-.18.13-.25l.05-.06c.12-.13.24-.23.36-.29Z"/>
                    <polygon class="cls-66" points="108.54 93.99 107.82 93.37 109.33 92.4 110.05 93 108.54 93.99"/>
                    <path class="cls-21" d="m109.09,93.3l.54-.27c.12-.06.24-.08.34-.06h.04c.05.02.08.08.07.16v.1s-1.54.76-1.54.76v-.1c.02-.08.07-.18.13-.25l.05-.06c.12-.13.24-.23.36-.29Z"/>
                    <polygon class="cls-60" points="109.41 93.56 109.46 93.11 109.41 93.14 109.36 93.58 109.41 93.56"/>
                    <polygon class="cls-60" points="109.46 93.11 108.71 92.51 108.67 92.53 109.41 93.14 109.46 93.11"/>
                  </g>
                  <g>
                    <path class="cls-63" d="m113.06,93.77l-.2,1.89-.49-.41.19-1.84c.03-.27-.1-.61-.29-.77l-2.12-1.77c-.19-.16-.37-.07-.4.19l-.2,1.82-.49-.41.21-1.87c.07-.58.46-.78.87-.43l2.26,1.88c.42.35.71,1.11.65,1.71Z"/>
                    <path class="cls-63" d="m109.42,90.74l.87-.09,2.52,2.35.11,1.45-.05,1.21-.56.28-.02-1.51-.03-1.03-.52-.75s-.94-.76-.95-.78c0-.02-1.36-1.13-1.36-1.13Z"/>
                    <polygon class="cls-63" points="109 93.16 109.56 92.88 109.71 91.54 109.17 91.58 109.01 91.61 109 93.16"/>
                    <polygon class="cls-63" points="109.02 90.32 109.62 90.03 109.46 90.36 109.26 90.43 109.02 90.32"/>
                    <path class="cls-66" d="m112.5,94.05l-.2,1.9-.49-.41.19-1.84c.03-.27-.1-.62-.29-.77l-2.11-1.77c-.19-.16-.37-.07-.4.2l-.21,1.82-.49-.41.21-1.87c.07-.59.46-.78.87-.43l2.25,1.89c.42.35.71,1.12.65,1.71Z"/>
                  </g>
                </g>
              </g>
              <path class="cls-74" d="m110.14,89.27s-.36,1.85-.26,2.32c.1.47.99,1.36,1.52,1.53.53.16.32-.47.44-.87.12-.4.1-1.27.1-1.27l-1.8-1.7Z"/>
              <path class="cls-69" d="m111.94,90.97l-1.8-1.7s-.07.38-.14.84c0,0,.67,1.38,1.89,1.92.07-.43.05-1.06.05-1.06Z"/>
              <path class="cls-61" d="m110,89.41s.64,1.99,2.24,2.18l-.54-2.18s-1.35-.38-1.39-.39c-.04,0-.3.39-.3.39Z"/>
              <path class="cls-29" d="m120.41,65.99c1.48,4.51-2.23,11.53-2.76,13.57-.54,2.07-6.18,11.64-6.18,11.65,0,0,0,0,0,0-.03.06-.05.09-.05.09.12.09.26.19.37.25.15.06.08.05.25.09h0c.12.02.24-.02.32-.14,1.32-1.77,5.01-9.17,5.13-9.49.12-.34,2.46-6.26,3.05-7.58.47-1.05,2.04-6.09-.13-8.46Z"/>
            </g>
            <g>
              <g>
                <path class="cls-2" d="m60.17,109.4c-.39,0-.77-.08-1.05-.25l-23.62-13.64c-.31-.18-.47-.43-.47-.71,0-.33.23-.65.63-.88l23.3-13.45c.71-.41,1.76-.45,2.38-.09l23.62,13.64c.3.18.47.43.47.71,0,.33-.23.65-.63.88l-23.3,13.45c-.39.22-.87.34-1.33.34Zm-.87-.56c.51.29,1.43.25,2.02-.09l23.3-13.45c.28-.16.45-.37.45-.56,0-.19-.16-.32-.29-.39l-23.62-13.64c-.5-.29-1.43-.25-2.02.09l-23.3,13.45c-.28.16-.45.37-.45.56,0,.19.16.32.29.39l23.62,13.64Z"/>
                <g>
                  <g>
                    <polygon class="cls-77" points="85.25 84.79 85.25 87.69 60.17 102.17 35.09 87.69 35.09 84.79 85.25 84.79"/>
                    <polygon class="cls-71" points="60.17 99.27 35.09 84.79 60.17 70.31 85.25 84.79 60.17 99.27"/>
                    <polygon class="cls-73" points="60.17 98.93 35.38 84.62 35.09 84.79 60.17 99.27 85.25 84.79 84.96 84.62 60.17 98.93"/>
                  </g>
                  <g>
                    <polygon class="cls-65" points="60.17 95.93 40.88 84.79 60.17 73.65 79.46 84.79 60.17 95.93"/>
                    <g>
                      <polygon class="cls-48" points="60.17 95.93 40.88 84.79 60.17 73.65 79.46 84.79 60.17 95.93"/>
                      <g>
                        <polygon class="cls-50" points="60.17 70.85 79.46 81.98 79.46 84.79 60.17 73.65 60.17 70.85"/>
                        <polygon class="cls-49" points="60.17 73.65 40.88 84.79 40.88 81.98 60.17 70.85 60.17 73.65"/>
                        <polygon class="cls-55" points="60.17 93.12 40.88 81.98 60.17 70.85 79.46 81.98 60.17 93.12"/>
                        <polygon class="cls-57" points="60.17 86.43 52.46 81.98 60.17 77.53 67.88 81.98 60.17 86.43"/>
                        <polygon class="cls-57" points="60.17 77.94 67.52 82.19 67.88 81.98 60.17 77.53 52.46 81.98 52.82 82.19 60.17 77.94"/>
                        <polygon class="cls-52" points="60.17 93.12 60.17 95.93 79.46 84.79 79.46 81.98 60.17 93.12"/>
                      </g>
                      <polygon class="cls-54" points="40.88 81.98 40.88 84.79 60.17 95.93 60.17 93.12 40.88 81.98"/>
                    </g>
                    <polygon class="cls-5" points="60.17 92.82 41.14 81.83 40.88 81.98 60.17 93.12 79.46 81.98 79.2 81.83 60.17 92.82"/>
                  </g>
                </g>
              </g>
              <g>
                <path class="cls-2" d="m60.17,175.19c-.39,0-.77-.08-1.05-.25l-23.62-13.64c-.31-.18-.47-.43-.47-.71,0-.33.23-.65.63-.88l23.3-13.45c.71-.41,1.76-.45,2.38-.09l23.62,13.64c.3.18.47.43.47.71,0,.33-.23.65-.63.88l-23.3,13.45c-.39.22-.87.34-1.33.34Zm-.87-.56c.51.29,1.43.25,2.02-.09l23.3-13.45c.28-.16.45-.37.45-.56,0-.19-.16-.32-.29-.39l-23.62-13.64c-.5-.29-1.43-.25-2.02.09l-23.3,13.45c-.28.16-.45.37-.45.56,0,.19.16.32.29.39l23.62,13.64Z"/>
                <g>
                  <g>
                    <polygon class="cls-31" points="85.25 150.58 85.25 153.48 60.17 167.96 35.09 153.48 35.09 150.58 85.25 150.58"/>
                    <polygon class="cls-71" points="60.17 165.06 35.09 150.58 60.17 136.1 85.25 150.58 60.17 165.06"/>
                    <polygon class="cls-73" points="60.17 164.72 35.38 150.41 35.09 150.58 60.17 165.06 85.25 150.58 84.96 150.41 60.17 164.72"/>
                  </g>
                  <g>
                    <polygon class="cls-65" points="60.17 161.72 40.88 150.58 60.17 139.44 79.46 150.58 60.17 161.72"/>
                    <g>
                      <polygon class="cls-56" points="60.17 161.72 40.88 150.58 60.17 139.44 79.46 150.58 60.17 161.72"/>
                      <g>
                        <polygon class="cls-51" points="60.17 136.64 79.46 147.77 79.46 150.58 60.17 139.44 60.17 136.64"/>
                        <polygon class="cls-53" points="60.17 139.44 40.88 150.58 40.88 147.77 60.17 136.64 60.17 139.44"/>
                        <polygon class="cls-34" points="60.17 158.91 40.88 147.77 60.17 136.64 79.46 147.77 60.17 158.91"/>
                        <polygon class="cls-57" points="60.17 152.22 52.46 147.77 60.17 143.32 67.88 147.77 60.17 152.22"/>
                        <polygon class="cls-57" points="60.17 143.73 67.52 147.98 67.88 147.77 60.17 143.32 52.46 147.77 52.82 147.98 60.17 143.73"/>
                        <polygon class="cls-42" points="60.17 158.91 60.17 161.72 79.46 150.58 79.46 147.77 60.17 158.91"/>
                      </g>
                      <polygon class="cls-40" points="40.88 147.77 40.88 150.58 60.17 161.72 60.17 158.91 40.88 147.77"/>
                    </g>
                    <polygon class="cls-5" points="60.17 158.61 41.14 147.62 40.88 147.77 60.17 158.91 79.46 147.77 79.2 147.62 60.17 158.61"/>
                  </g>
                </g>
              </g>
              <g>
                <path class="cls-2" d="m160.71,109.4c-.39,0-.76-.08-1.05-.25l-23.62-13.64c-.3-.18-.47-.43-.47-.71,0-.33.23-.65.63-.88l23.3-13.45c.71-.41,1.76-.45,2.38-.09l23.62,13.64c.31.18.47.43.47.71,0,.33-.23.65-.63.88l-23.3,13.45c-.39.22-.87.34-1.33.34Zm-.87-.56c.51.29,1.43.25,2.02-.09l23.3-13.45c.28-.16.45-.37.45-.56,0-.19-.16-.32-.29-.39l-23.62-13.64c-.5-.29-1.43-.25-2.02.09l-23.3,13.45c-.28.16-.45.37-.45.56,0,.19.16.32.29.39l23.62,13.64Z"/>
                <g>
                  <g>
                    <polygon class="cls-32" points="185.79 84.79 185.79 87.69 160.71 102.17 135.63 87.69 135.63 84.79 185.79 84.79"/>
                    <polygon class="cls-71" points="160.71 99.27 135.63 84.79 160.71 70.31 185.79 84.79 160.71 99.27"/>
                    <polygon class="cls-73" points="160.71 98.93 135.92 84.62 135.63 84.79 160.71 99.27 185.79 84.79 185.5 84.62 160.71 98.93"/>
                  </g>
                  <g>
                    <polygon class="cls-65" points="160.71 95.93 141.42 84.79 160.71 73.65 180 84.79 160.71 95.93"/>
                    <g>
                      <polygon class="cls-39" points="160.71 95.93 141.42 84.79 160.71 73.65 180 84.79 160.71 95.93"/>
                      <g>
                        <polygon class="cls-41" points="160.71 70.85 180 81.98 180 84.79 160.71 73.65 160.71 70.85"/>
                        <polygon class="cls-37" points="160.71 73.65 141.42 84.79 141.42 81.98 160.71 70.85 160.71 73.65"/>
                        <polygon class="cls-36" points="160.71 93.12 141.42 81.98 160.71 70.85 180 81.98 160.71 93.12"/>
                        <polygon class="cls-57" points="160.71 86.43 153 81.98 160.71 77.53 168.42 81.98 160.71 86.43"/>
                        <polygon class="cls-57" points="160.71 77.94 168.06 82.19 168.42 81.98 160.71 77.53 153 81.98 153.35 82.19 160.71 77.94"/>
                        <polygon class="cls-38" points="160.71 93.12 160.71 95.93 180 84.79 180 81.98 160.71 93.12"/>
                      </g>
                      <polygon class="cls-35" points="141.42 81.98 141.42 84.79 160.71 95.93 160.71 93.12 141.42 81.98"/>
                    </g>
                    <polygon class="cls-5" points="160.71 92.82 141.68 81.83 141.42 81.98 160.71 93.12 180 81.98 179.73 81.83 160.71 92.82"/>
                  </g>
                </g>
              </g>
              <g>
                <path class="cls-2" d="m160.71,175.19c-.39,0-.76-.08-1.05-.25l-23.62-13.64c-.3-.18-.47-.43-.47-.71,0-.33.23-.65.63-.88l23.3-13.45c.71-.41,1.76-.45,2.38-.09l23.62,13.64c.31.18.47.43.47.71,0,.33-.23.65-.63.88l-23.3,13.45c-.39.22-.87.34-1.33.34Zm-.87-.56c.51.29,1.43.25,2.02-.09l23.3-13.45c.28-.16.45-.37.45-.56,0-.19-.16-.32-.29-.39l-23.62-13.64c-.5-.29-1.43-.25-2.02.09l-23.3,13.45c-.28.16-.45.37-.45.56,0,.19.16.32.29.39l23.62,13.64Z"/>
                <g>
                  <g>
                    <polygon class="cls-30" points="185.79 150.58 185.79 153.48 160.71 167.96 135.63 153.48 135.63 150.58 185.79 150.58"/>
                    <polygon class="cls-71" points="160.71 165.06 135.63 150.58 160.71 136.1 185.79 150.58 160.71 165.06"/>
                    <polygon class="cls-73" points="160.71 164.72 135.92 150.41 135.63 150.58 160.71 165.06 185.79 150.58 185.5 150.41 160.71 164.72"/>
                  </g>
                  <g>
                    <polygon class="cls-65" points="160.71 161.72 141.42 150.58 160.71 139.44 180 150.58 160.71 161.72"/>
                    <g>
                      <polygon class="cls-33" points="160.71 161.72 141.42 150.58 160.71 139.44 180 150.58 160.71 161.72"/>
                      <g>
                        <polygon class="cls-47" points="160.71 136.64 180 147.77 180 150.58 160.71 139.44 160.71 136.64"/>
                        <polygon class="cls-44" points="160.71 139.44 141.42 150.58 141.42 147.77 160.71 136.64 160.71 139.44"/>
                        <polygon class="cls-43" points="160.71 158.91 141.42 147.77 160.71 136.64 180 147.77 160.71 158.91"/>
                        <polygon class="cls-57" points="160.71 152.22 153 147.77 160.71 143.32 168.42 147.77 160.71 152.22"/>
                        <polygon class="cls-57" points="160.71 143.73 168.06 147.98 168.42 147.77 160.71 143.32 153 147.77 153.35 147.98 160.71 143.73"/>
                        <polygon class="cls-45" points="160.71 158.91 160.71 161.72 180 150.58 180 147.77 160.71 158.91"/>
                      </g>
                      <polygon class="cls-46" points="141.42 147.77 141.42 150.58 160.71 161.72 160.71 158.91 141.42 147.77"/>
                    </g>
                    <polygon class="cls-5" points="160.71 158.61 141.68 147.62 141.42 147.77 160.71 158.91 180 147.77 179.73 147.62 160.71 158.61"/>
                  </g>
                </g>
              </g>
            </g>
          </g>
          <g class="cls-79">
            <g>
              <path class="cls-58" d="m39.14,12.23c17.33-5.22,27.64,14.42,17.52,33.35-8.59,16.06-29.54,27.67-35.02,10.8-3.22-9.93-.55-34.25,15.84-43.43-4.42,2.28-7.66,5.52-10.84,10.8,6.05,7.44,6.54,8.05,11.76,14.05,6.18-14.6,6.69-15.8,11.26-25.67-3.57-1.24-6.71-1.21-10.51.11h0Zm-1.22.5c-.13.06-.26.12-.39.18.13-.06.26-.12.39-.18h0Zm.88-.37c.1-.04.19-.08.29-.11-.1.04-.19.07-.29.11h0Zm-.41.17c-.14.06-.27.12-.41.18.14-.06.27-.12.41-.18h0Zm0,0c.11-.05.22-.09.33-.14-.11.04-.22.09-.33.14h0Z"/>
              <path class="cls-64" d="m9.84,30.85c1.01-1.06,2.1-2.11,3.25-3.13v50.54c-1.15,1.03-2.24,2.07-3.25,3.13V30.85h0Z"/>
              <path class="cls-64" d="m4.65,55.21c.71-1.13,1.51-2.25,2.37-3.35v32.77c-.87,1.1-1.66,2.21-2.37,3.35v-32.77h0Z"/>
              <path class="cls-58" d="m0,93.3l.05.12.06-3.32-.12-.18v3.38h0Zm0,9.78v-50.54c0-.32,0-.65.02-.97.09-2.31.49-4.58,1.19-6.81v50.54c-.7,2.23-1.1,4.5-1.19,6.81-.01.32-.02.65-.02.97h0Z"/>
              <polygon class="cls-64" points="0 93.3 .05 93.42 .12 90.1 0 89.92 0 93.3 0 93.3"/>
              <path class="cls-64" d="m37.54,12.91s-.04.02-.06.03c.02,0,.04-.02.06-.03h0Zm1.56-.67s.03-.01.04-.02c-.01,0-.03.01-.04.02h0Zm-1.11.46s-.04.02-.06.03c.02,0,.04-.02.06-.03h0Zm.74-.31s0,0,.01,0c0,0,0,0,.01,0,0,0,0,0,.01,0s0,0,.01,0,0,0,.01,0,0,0,.01,0,0,0,.01,0,0,0,.01,0c-.03.01-.06.02-.08.03h0Z"/>
              <path class="cls-64" d="m38.4,12.52c5.65-2.35,9.72-.94,11.26-.4-6.46,14.24-7.14,15.73-11.26,25.67-6.37-7.4-7.35-8.54-11.76-14.05,1.25-2.07,5.05-8.39,11.76-11.22h0Z"/>
            </g>
            <g>
              <path class="cls-58" d="m78.5,136.85c-5.2,1.54-8.54-1.62-9.76-2.55-9.54-8.08-17.9-17.94-27.48-25.99-2.83-2.38-4.56-1.39-5.55-1.13q-17.86,7.08-20.72,2.76c-5.25-9.29-5.43-10.04-7.86-15.84-.56-1.33-2.44-3.33-3.29-3.23-4.01,1.13-3.47,1.95-3.85,2.43v-3.38c4.72-1.82,5.21-2.04,7.13,2.36,8.82,18.72,10.37,18.31,12.43,17.82,18.8-7.52,18.56-6.97,23.35-1.99,8.29,8.63,25,25.42,30.16,26.76,1.58.21,4.1-.02,5.59-.4,18.14-6.08,25.34-9.9,43.09-17.55l1.59,2.58c-6.57,2.87-26.43,10.68-44.72,16.44l-.13.91Zm56.71,20.38v-50.54c-5.58.31-11.28.45-17.06.41C52.46,106.57,0,82.24,0,52.53v50.54c0,29.7,52.46,54.04,118.14,54.56,5.79.05,11.48-.09,17.06-.41h0Z"/>
              <path class="cls-64" d="m78.5,136.85c-4.68,1.2-9.1,2.33-36.61-27.27q-3.48-3.5-21.35,3.62c-2.03.49-5.09,1.24-13.54-18.91-2.61-5.95-6.96-1.04-7-.99v-3.38c1.48-.84,1.58-.9,3.8-1.52.41-.11.85-.09,1.22.1.59.31,1.19,1.01,2.24,3.23q4.87,10.37,8.37,16.04,2.07,3.06,18.84-3.59c1.15-.31,3.53-.95,7.12,1.92,10.1,8.06,18.32,18.13,28.29,26.33,3.74,2.66,6,4.27,51.88-15.5l1.59,2.58c-6.57,2.87-26.57,11.59-44.85,17.34h0Z"/>
            </g>
          </g>
        </g>
      </g>
    </g>
  </g>
</svg>