<?xml version="1.0" encoding="UTF-8"?>
<svg id="Layer_2" data-name="Layer 2" xmlns="http://www.w3.org/2000/svg" viewBox="0 0 438.91 423.6">
  <defs>
    <style>
      .cls-1 {
        stroke-linecap: round;
        stroke-miterlimit: 10;
        stroke-width: 1.78px;
      }

      .cls-1, .cls-2, .cls-3 {
        fill: none;
        stroke: #fff;
      }

      .cls-2 {
        stroke-width: .92px;
      }

      .cls-2, .cls-3 {
        stroke-linejoin: round;
      }

      .cls-4 {
        fill: #f7e041;
      }

      .cls-4, .cls-5, .cls-6, .cls-7, .cls-8, .cls-9, .cls-10, .cls-11, .cls-12 {
        stroke-width: 0px;
      }

      .cls-5 {
        fill: #06daae;
      }

      .cls-6 {
        fill: #fff;
      }

      .cls-7 {
        fill: #ff4757;
      }

      .cls-8 {
        fill: #ffc538;
      }

      .cls-9 {
        fill: #ffa538;
      }

      .cls-10 {
        fill: #002b47;
      }

      .cls-11 {
        fill: #00395e;
      }

      .cls-12 {
        fill: #66889e;
      }

      .cls-3 {
        stroke-width: 1.87px;
      }
    </style>
  </defs>
  <g id="OBJECTS">
    <g>
      <circle class="cls-11" cx="219.91" cy="210.64" r="171.44"/>
      <g>
        <rect class="cls-10" x="140.31" y="62.13" width="164.78" height="301.71" rx="13.94" ry="13.94"/>
        <path class="cls-11" d="m291.15,71.02c2.79,0,5.05,2.27,5.05,5.05v273.82c0,2.79-2.27,5.05-5.05,5.05h-136.89c-2.79,0-5.05-2.27-5.05-5.05V76.07c0-2.79,2.27-5.05,5.05-5.05h136.89Z"/>
        <g>
          <rect class="cls-6" x="161.85" y="96.57" width="121.7" height="43.1" rx="5.92" ry="5.92"/>
          <path class="cls-11" d="m227.74,103.16h-54.84c-1.89,0-3.43,1.53-3.43,3.43h0c0,1.89,1.54,3.43,3.43,3.43h54.84c1.89,0,3.43-1.54,3.43-3.43h0c0-1.89-1.54-3.43-3.43-3.43Z"/>
          <rect class="cls-12" x="169.47" y="114.69" width="100.2" height="4.64" rx="2.32" ry="2.32"/>
          <path class="cls-12" d="m240.83,123.25h-69.04c-1.28,0-2.32,1.04-2.32,2.32h0c0,1.28,1.04,2.32,2.32,2.32h69.04c1.28,0,2.32-1.04,2.32-2.32h0c0-1.28-1.04-2.32-2.32-2.32Z"/>
          <path class="cls-11" d="m193.03,130.96h-11.25c-1.28,0-2.32,1.04-2.32,2.32h0c0,1.28,1.04,2.32,2.32,2.32h11.25c1.28,0,2.32-1.04,2.32-2.32h0c0-1.28-1.04-2.32-2.32-2.32Z"/>
          <polygon class="cls-5" points="174.41 130.06 170.68 136.52 178.14 136.52 174.41 130.06"/>
          <path class="cls-11" d="m226.31,130.96h-11.25c-1.28,0-2.32,1.04-2.32,2.32h0c0,1.28,1.04,2.32,2.32,2.32h11.25c1.28,0,2.32-1.04,2.32-2.32h0c0-1.28-1.04-2.32-2.32-2.32Z"/>
          <polygon class="cls-7" points="207.69 136.52 211.42 130.06 203.96 130.06 207.69 136.52"/>
        </g>
        <g>
          <rect class="cls-6" x="161.85" y="152.98" width="121.7" height="43.1" rx="5.92" ry="5.92"/>
          <path class="cls-11" d="m227.74,159.57h-54.84c-1.89,0-3.43,1.53-3.43,3.43h0c0,1.89,1.54,3.43,3.43,3.43h54.84c1.89,0,3.43-1.54,3.43-3.43h0c0-1.89-1.54-3.43-3.43-3.43Z"/>
          <path class="cls-12" d="m267.35,171.1h-95.56c-1.28,0-2.32,1.04-2.32,2.32h0c0,1.28,1.04,2.32,2.32,2.32h95.56c1.28,0,2.32-1.04,2.32-2.32h0c0-1.28-1.04-2.32-2.32-2.32Z"/>
          <path class="cls-12" d="m240.83,179.66h-69.04c-1.28,0-2.32,1.04-2.32,2.32h0c0,1.28,1.04,2.32,2.32,2.32h69.04c1.28,0,2.32-1.04,2.32-2.32h0c0-1.28-1.04-2.32-2.32-2.32Z"/>
          <path class="cls-11" d="m193.03,187.38h-11.25c-1.28,0-2.32,1.04-2.32,2.32h0c0,1.28,1.04,2.32,2.32,2.32h11.25c1.28,0,2.32-1.04,2.32-2.32h0c0-1.28-1.04-2.32-2.32-2.32Z"/>
          <polygon class="cls-5" points="174.41 186.47 170.68 192.93 178.14 192.93 174.41 186.47"/>
          <path class="cls-11" d="m226.31,187.38h-11.25c-1.28,0-2.32,1.04-2.32,2.32h0c0,1.28,1.04,2.32,2.32,2.32h11.25c1.28,0,2.32-1.04,2.32-2.32h0c0-1.28-1.04-2.32-2.32-2.32Z"/>
          <polygon class="cls-7" points="207.69 192.93 211.42 186.47 203.96 186.47 207.69 192.93"/>
        </g>
        <g>
          <rect class="cls-6" x="161.85" y="209.39" width="121.7" height="43.1" rx="5.92" ry="5.92"/>
          <path class="cls-11" d="m227.74,215.99h-54.84c-1.89,0-3.43,1.53-3.43,3.43h0c0,1.89,1.54,3.43,3.43,3.43h54.84c1.89,0,3.43-1.54,3.43-3.43h0c0-1.89-1.54-3.43-3.43-3.43Z"/>
          <path class="cls-12" d="m267.35,227.52h-95.56c-1.28,0-2.32,1.04-2.32,2.32h0c0,1.28,1.04,2.32,2.32,2.32h95.56c1.28,0,2.32-1.04,2.32-2.32h0c0-1.28-1.04-2.32-2.32-2.32Z"/>
          <path class="cls-12" d="m240.83,236.07h-69.04c-1.28,0-2.32,1.04-2.32,2.32h0c0,1.28,1.04,2.32,2.32,2.32h69.04c1.28,0,2.32-1.04,2.32-2.32h0c0-1.28-1.04-2.32-2.32-2.32Z"/>
          <path class="cls-11" d="m193.03,243.79h-11.25c-1.28,0-2.32,1.04-2.32,2.32h0c0,1.28,1.04,2.32,2.32,2.32h11.25c1.28,0,2.32-1.04,2.32-2.32h0c0-1.28-1.04-2.32-2.32-2.32Z"/>
          <polygon class="cls-5" points="174.41 242.88 170.68 249.34 178.14 249.34 174.41 242.88"/>
          <path class="cls-11" d="m226.31,243.79h-11.25c-1.28,0-2.32,1.04-2.32,2.32h0c0,1.28,1.04,2.32,2.32,2.32h11.25c1.28,0,2.32-1.04,2.32-2.32h0c0-1.28-1.04-2.32-2.32-2.32Z"/>
          <polygon class="cls-7" points="207.69 249.34 211.42 242.88 203.96 242.88 207.69 249.34"/>
        </g>
        <g>
          <rect class="cls-6" x="161.85" y="265.81" width="121.7" height="43.1" rx="5.92" ry="5.92"/>
          <path class="cls-11" d="m227.74,272.4h-54.84c-1.89,0-3.43,1.53-3.43,3.43h0c0,1.89,1.54,3.43,3.43,3.43h54.84c1.89,0,3.43-1.53,3.43-3.43h0c0-1.89-1.54-3.43-3.43-3.43Z"/>
          <path class="cls-12" d="m267.35,283.93h-95.56c-1.28,0-2.32,1.04-2.32,2.32h0c0,1.28,1.04,2.32,2.32,2.32h95.56c1.28,0,2.32-1.04,2.32-2.32h0c0-1.28-1.04-2.32-2.32-2.32Z"/>
          <path class="cls-12" d="m240.83,292.49h-69.04c-1.28,0-2.32,1.04-2.32,2.32h0c0,1.28,1.04,2.32,2.32,2.32h69.04c1.28,0,2.32-1.04,2.32-2.32h0c0-1.28-1.04-2.32-2.32-2.32Z"/>
          <path class="cls-11" d="m193.03,300.2h-11.25c-1.28,0-2.32,1.04-2.32,2.32h0c0,1.28,1.04,2.32,2.32,2.32h11.25c1.28,0,2.32-1.04,2.32-2.32h0c0-1.28-1.04-2.32-2.32-2.32Z"/>
          <polygon class="cls-5" points="174.41 299.29 170.68 305.75 178.14 305.75 174.41 299.29"/>
          <path class="cls-11" d="m226.31,300.2h-11.25c-1.28,0-2.32,1.04-2.32,2.32h0c0,1.28,1.04,2.32,2.32,2.32h11.25c1.28,0,2.32-1.04,2.32-2.32h0c0-1.28-1.04-2.32-2.32-2.32Z"/>
          <polygon class="cls-7" points="207.69 305.75 211.42 299.29 203.96 299.29 207.69 305.75"/>
        </g>
        <g>
          <rect class="cls-5" x="171.72" y="319.05" width="101.96" height="24.51" rx="5.92" ry="5.92"/>
          <path class="cls-6" d="m250.12,327.88h-54.84c-1.89,0-3.43,1.54-3.43,3.43h0c0,1.89,1.54,3.43,3.43,3.43h54.84c1.89,0,3.43-1.53,3.43-3.43h0c0-1.89-1.54-3.43-3.43-3.43Z"/>
        </g>
      </g>
      <g>
        <polygon class="cls-3" points="91.05 24.92 66.18 37.35 91.05 49.79 115.92 37.35 91.05 24.92"/>
        <polygon class="cls-3" points="66.18 37.35 66.18 67.08 91.05 79.51 91.05 49.79 66.18 37.35"/>
        <polygon class="cls-3" points="91.05 79.51 115.92 67.08 115.92 37.35 91.05 49.79 91.05 79.51"/>
      </g>
      <g>
        <polygon class="cls-3" points="373.01 362.56 348.15 374.99 373.01 387.42 397.88 374.99 373.01 362.56"/>
        <polygon class="cls-3" points="348.15 374.99 348.15 404.71 373.01 417.15 373.01 387.42 348.15 374.99"/>
        <polygon class="cls-3" points="373.01 417.15 397.88 404.71 397.88 374.99 373.01 387.42 373.01 417.15"/>
      </g>
      <g>
        <polygon class="cls-2" points="426.19 139.53 413.94 145.66 426.19 151.78 438.45 145.66 426.19 139.53"/>
        <polygon class="cls-2" points="413.94 145.66 413.94 160.3 426.19 166.43 426.19 151.78 413.94 145.66"/>
        <polygon class="cls-2" points="426.19 166.43 438.45 160.3 438.45 145.66 426.19 151.78 426.19 166.43"/>
      </g>
      <g>
        <polygon class="cls-2" points="95.21 356.46 82.95 362.58 95.21 368.71 107.46 362.58 95.21 356.46"/>
        <polygon class="cls-2" points="82.95 362.58 82.95 377.23 95.21 383.36 95.21 368.71 82.95 362.58"/>
        <polygon class="cls-2" points="95.21 383.36 107.46 377.23 107.46 362.58 95.21 368.71 95.21 383.36"/>
      </g>
      <g>
        <polygon class="cls-2" points="12.71 202.54 .46 208.66 12.71 214.79 24.97 208.66 12.71 202.54"/>
        <polygon class="cls-2" points=".46 208.66 .46 223.31 12.71 229.44 12.71 214.79 .46 208.66"/>
        <polygon class="cls-2" points="12.71 229.44 24.97 223.31 24.97 208.66 12.71 214.79 12.71 229.44"/>
      </g>
      <g>
        <circle class="cls-4" cx="373.01" cy="71.02" r="28.31"/>
        <circle class="cls-9" cx="373.01" cy="71.02" r="22.4"/>
        <g>
          <path class="cls-4" d="m386.54,76.74c0,4.35-3.45,6.87-10.07,6.87h-11.03c-1.1,0-1.99-.89-1.99-1.99v-21.19c0-1.1.89-1.99,1.99-1.99h10.31c6.29,0,9.53,2.62,9.53,6.54,0,2.52-1.29,4.46-3.34,5.54,2.8.9,4.6,3.06,4.6,6.22Zm-17.29-13.91v5.93h5.79c2.84,0,4.39-1.01,4.39-2.98s-1.55-2.95-4.39-2.95h-5.79Zm11.43,13.3c0-2.12-1.62-3.13-4.64-3.13h-6.8v6.22h6.8c3.02,0,4.64-.93,4.64-3.09Z"/>
          <path class="cls-4" d="m375.84,79.22h-5.79v7.71c0,1.6,1.3,2.89,2.89,2.89h0c1.6,0,2.89-1.3,2.89-2.89v-7.71Z"/>
          <path class="cls-4" d="m372.95,52.21h0c-1.6,0-2.89,1.3-2.89,2.89v7.71h5.79v-7.71c0-1.6-1.3-2.89-2.89-2.89Z"/>
        </g>
      </g>
      <g>
        <circle class="cls-4" cx="80.06" cy="174.53" r="28.31" transform="translate(-111.76 183.06) rotate(-67.9)"/>
        <circle class="cls-9" cx="80.06" cy="174.53" r="22.4"/>
        <g>
          <polygon class="cls-8" points="80.06 174.53 69.08 174.53 80.06 194.18 91.05 174.53 80.06 174.53"/>
          <polygon class="cls-4" points="80.06 154.88 69.08 174.53 80.06 179.39 91.05 174.53 80.06 154.88"/>
        </g>
      </g>
      <g>
        <circle class="cls-4" cx="357.81" cy="230.94" r="28.31"/>
        <circle class="cls-9" cx="357.81" cy="230.94" r="22.4"/>
        <polygon class="cls-4" points="357.81 217.89 345.91 223.83 345.91 238.05 357.81 244 369.7 238.05 369.7 223.83 357.81 217.89"/>
        <polygon class="cls-8" points="345.91 223.83 345.91 223.84 357.81 229.78 369.7 223.84 369.7 223.83 357.81 217.89 345.91 223.83"/>
      </g>
      <polyline class="cls-1" points="289.27 119.33 372.95 119.33 372.95 106.59"/>
      <line class="cls-1" x1="113.27" y1="174.53" x2="156.79" y2="174.53"/>
      <line class="cls-1" x1="95.21" y1="112.96" x2="140.31" y2="112.96"/>
      <line class="cls-1" x1="322.37" y1="232.16" x2="288.21" y2="232.16"/>
      <line class="cls-1" x1="340.99" y1="396.07" x2="283.55" y2="396.07"/>
      <circle class="cls-1" cx="279.89" cy="396.07" r="3.66"/>
      <circle class="cls-1" cx="91.55" cy="112.96" r="3.66"/>
      <circle class="cls-1" cx="48" cy="215.99" r="3.66"/>
      <line class="cls-1" x1="279.89" y1="392.41" x2="279.89" y2="363.84"/>
      <line class="cls-1" x1="91.55" y1="109.3" x2="91.55" y2="85.3"/>
      <path class="cls-6" d="m251.57,33.56c-.04-.46-.07-.92-.07-1.39,0-7.96,6.45-14.41,14.41-14.41,1.02,0,2.02.11,2.98.31,3.29-5.07,9-8.44,15.5-8.44,7.74,0,14.36,4.77,17.11,11.52.45-.05.9-.08,1.37-.08,6.95,0,12.6,5.57,12.74,12.48h-64.04Z"/>
      <path class="cls-6" d="m371.4,321.46c-.03-.26-.04-.53-.04-.8,0-4.59,3.72-8.32,8.32-8.32.59,0,1.16.06,1.72.18,1.9-2.93,5.19-4.87,8.94-4.87,4.47,0,8.29,2.75,9.87,6.65.26-.03.52-.04.79-.04,4.01,0,7.27,3.21,7.35,7.2h-36.95Z"/>
      <line class="cls-1" x1="48" y1="219.61" x2="48" y2="305.75"/>
      <path class="cls-6" d="m125.36,316.78c.06-.67.1-1.35.1-2.03,0-11.63-9.43-21.07-21.06-21.07-1.49,0-2.95.16-4.35.46-4.81-7.41-13.15-12.33-22.65-12.33-11.31,0-20.99,6.97-25.01,16.84-.66-.07-1.32-.11-2-.11-10.16,0-18.41,8.13-18.62,18.24h93.58Z"/>
      <line class="cls-1" x1="44.34" y1="215.99" x2="32.85" y2="215.99"/>
      <path class="cls-8" d="m98.6,242.88l1.16,4.01c.51,1.75,1.88,3.13,3.63,3.63l4.01,1.16-4.01,1.16c-1.75.51-3.13,1.88-3.63,3.63l-1.16,4.01-1.16-4.01c-.51-1.75-1.88-3.13-3.63-3.63l-4.01-1.16,4.01-1.16c1.75-.51,3.13-1.88,3.63-3.63l1.16-4.01Z"/>
      <path class="cls-8" d="m179.45,21.6l1.16,4.01c.51,1.75,1.88,3.13,3.63,3.63l4.01,1.16-4.01,1.16c-1.75.51-3.13,1.88-3.63,3.63l-1.16,4.01-1.16-4.01c-.51-1.75-1.88-3.13-3.63-3.63l-4.01-1.16,4.01-1.16c1.75-.51,3.13-1.88,3.63-3.63l1.16-4.01Z"/>
      <path class="cls-8" d="m329.49,352.25l1.16,4.01c.51,1.75,1.88,3.13,3.63,3.63l4.01,1.16-4.01,1.16c-1.75.51-3.13,1.88-3.63,3.63l-1.16,4.01-1.16-4.01c-.51-1.75-1.88-3.13-3.63-3.63l-4.01-1.16,4.01-1.16c1.75-.51,3.13-1.88,3.63-3.63l1.16-4.01Z"/>
      <path class="cls-8" d="m164.31,390.93l1.16,4.01c.51,1.75,1.88,3.13,3.63,3.63l4.01,1.16-4.01,1.16c-1.75.51-3.13,1.88-3.63,3.63l-1.16,4.01-1.16-4.01c-.51-1.75-1.88-3.13-3.63-3.63l-4.01-1.16,4.01-1.16c1.75-.51,3.13-1.88,3.63-3.63l1.16-4.01Z"/>
      <path class="cls-8" d="m331.11,90.53l1.16,4.01c.51,1.75,1.88,3.13,3.63,3.63l4.01,1.16-4.01,1.16c-1.75.51-3.13,1.88-3.63,3.63l-1.16,4.01-1.16-4.01c-.51-1.75-1.88-3.13-3.63-3.63l-4.01-1.16,4.01-1.16c1.75-.51,3.13-1.88,3.63-3.63l1.16-4.01Z"/>
      <path class="cls-8" d="m417.16,248.43l1.16,4.01c.51,1.75,1.88,3.13,3.63,3.63l4.01,1.16-4.01,1.16c-1.75.51-3.13,1.88-3.63,3.63l-1.16,4.01-1.16-4.01c-.51-1.75-1.88-3.13-3.63-3.63l-4.01-1.16,4.01-1.16c1.75-.51,3.13-1.88,3.63-3.63l1.16-4.01Z"/>
      <path class="cls-8" d="m51.75,108.21l1.16,4.01c.51,1.75,1.88,3.13,3.63,3.63l4.01,1.16-4.01,1.16c-1.75.51-3.13,1.88-3.63,3.63l-1.16,4.01-1.16-4.01c-.51-1.75-1.88-3.13-3.63-3.63l-4.01-1.16,4.01-1.16c1.75-.51,3.13-1.88,3.63-3.63l1.16-4.01Z"/>
      <g>
        <polygon class="cls-5" points="60.55 338.11 52.77 351.59 68.33 351.59 60.55 338.11"/>
        <polygon class="cls-5" points="60.55 351.59 52.77 365.07 68.33 365.07 60.55 351.59"/>
      </g>
      <g>
        <polygon class="cls-5" points="417.16 29.23 409.38 42.71 424.94 42.71 417.16 29.23"/>
        <polygon class="cls-5" points="417.16 42.71 409.38 56.19 424.94 56.19 417.16 42.71"/>
      </g>
      <polygon class="cls-7" points="420.07 204.37 432.32 183.14 407.81 183.14 420.07 204.37"/>
      <polygon class="cls-7" points="46.42 50.85 54.24 37.3 38.6 37.3 46.42 50.85"/>
      <polygon class="cls-7" points="269.67 423.6 277.49 410.06 261.85 410.06 269.67 423.6"/>
      <polygon class="cls-5" points="225.75 0 217.97 13.48 233.53 13.48 225.75 0"/>
    </g>
  </g>
</svg>