<?xml version="1.0" encoding="UTF-8"?>
<svg id="Layer_2" data-name="Layer 2" xmlns="http://www.w3.org/2000/svg" viewBox="0 0 240 235.95">
  <defs>
    <style>
      .cls-1 {
        fill: #190602;
      }

      .cls-1, .cls-2, .cls-3 {
        stroke-width: 0px;
      }

      .cls-2 {
        fill: #ffeeda;
      }

      .cls-3 {
        fill: #ebc28e;
      }
    </style>
  </defs>
  <g id="_图层_1" data-name="图层 1">
    <g>
      <path class="cls-2" d="m222.91,160.19l.03-139.16c-.22-11.65-9.44-21.02-21.12-21.02H56.57C25.24.52,0,26.11,0,57.6c0,10.63,2.84,19.7,7.22,27.64,3.65,6.62,9.43,12.86,15.19,17.56,1.57,1.28.83.8,5.75,3.83,6.8,4.17,14.6,6.25,14.6,6.25l-.06,83.22c.16,3.94.6,7.72,1.58,11.24,3.25,11.71,11.35,20.74,22.43,25.1,4.62,1.82,9.87,3.06,15.41,3.09l116,.42c23.14,0,41.89-18.78,41.89-41.95,0-13.87-6.73-26.17-17.09-33.81Z"/>
      <path class="cls-3" d="m225.72,194.9c-.48,14.86-12.66,26.76-27.61,26.76l-79.86-.31c6.38-7.36,10.22-16.94,10.22-27.35,0-16.4-9.77-27.66-9.77-27.66h79.41c15.26,0,27.62,12.39,27.62,27.66v.91Z"/>
      <path class="cls-1" d="m29.92,90.96c-9.17-8.68-15.65-19.94-15.65-33.35l.02-1.42c.73-22.8,19.51-41.15,42.28-41.87l145.24-.02c3.81.14,6.86,2.88,6.86,6.73v122.87c3.36.61,4.96,1.02,8.18,2.19,2.51.91,6.09,2.94,6.09,2.94V21.02c-.22-11.65-9.44-21.02-21.13-21.02H56.57C25.24.52,0,26.11,0,57.6,0,75.89,8.32,91.47,21.98,102.46c.91.73,1.82,1.69,4.26,1.68,4.28-.02,7.28-3.37,7.1-7.1-.15-3.07-1.44-4.2-3.43-6.08Z"/>
      <path class="cls-1" d="m198.11,152.04h-113.93c-7.65.06-13.83,6.28-13.83,13.95v16.33c.22,7.57,6.67,14.06,14.29,14.06h8.47v-14.06h-8.47v-15.99h4.62c14.37,0,24.95,13.39,24.95,27.66,0,12.65-11.51,28.87-30.86,27.57-17.18-1.15-26.39-16.41-26.39-27.57V55.15c0-6.27-5.09-11.36-11.36-11.36h-11.35v14.16h8.45s0,136.04,0,136.04c-.43,27.66,19.71,41.61,40.67,41.61l114.75.34c23.14,0,41.89-18.78,41.89-41.95s-18.76-41.95-41.89-41.95Zm27.61,42.86c-.48,14.86-12.66,26.76-27.61,26.76l-79.86-.31c6.38-7.36,10.22-16.94,10.22-27.35,0-16.4-9.77-27.66-9.77-27.66h79.41c15.26,0,27.62,12.39,27.62,27.66v.91Z"/>
      <path class="cls-1" d="m167.45,46.34h-85.88v14.16h85.88c3.91,0,7.08-3.17,7.08-7.08s-3.17-7.08-7.08-7.08Z"/>
      <path class="cls-1" d="m167.45,113.21h-85.88v14.16h85.88c3.91,0,7.08-3.17,7.08-7.08s-3.17-7.08-7.08-7.08Z"/>
      <path class="cls-1" d="m182.56,79.78h-100.99v14.16h100.99c3.91,0,7.08-3.17,7.08-7.08s-3.17-7.08-7.08-7.08Z"/>
    </g>
  </g>
</svg>