<svg width="500" height="500" viewBox="0 0 500 500" fill="none" xmlns="http://www.w3.org/2000/svg">
<g clip-path="url(#clip0_2181_313)">
<mask id="mask0_2181_313" style="mask-type:luminance" maskUnits="userSpaceOnUse" x="10" y="10" width="480" height="480">
<path d="M490 10H10V490H490V10Z" fill="white"/>
</mask>
<g mask="url(#mask0_2181_313)">
<path d="M249.999 482.799C378.571 482.799 482.799 378.571 482.799 249.999C482.799 121.427 378.571 17.1992 249.999 17.1992C121.427 17.1992 17.1992 121.427 17.1992 249.999C17.1992 378.571 121.427 482.799 249.999 482.799Z" fill="url(#paint0_linear_2181_313)"/>
<path d="M351.881 342.761L273.161 152.441C268.721 142.601 262.121 137.801 253.421 137.801H246.461C237.761 137.801 231.161 142.601 226.721 152.441L192.461 235.361H166.541C158.801 235.421 152.501 241.661 152.441 249.461V249.641C152.501 257.381 158.801 263.681 166.541 263.741H180.461L147.761 342.761C147.161 344.501 146.801 346.301 146.801 348.161C146.801 352.601 148.181 356.081 150.641 358.781C153.101 361.481 156.641 362.801 161.081 362.801C164.021 362.741 166.841 361.841 169.181 360.101C171.701 358.361 173.441 355.841 174.821 352.961L210.821 263.681H235.781C243.521 263.621 249.821 257.381 249.881 249.581V249.221C249.821 241.481 243.521 235.181 235.781 235.121H222.461L249.941 166.661L324.821 352.901C326.201 355.781 327.941 358.301 330.461 360.041C332.801 361.781 335.681 362.681 338.561 362.741C343.001 362.741 346.481 361.421 349.001 358.721C351.521 356.021 352.841 352.541 352.841 348.101C352.901 346.301 352.601 344.441 351.881 342.761Z" fill="white"/>
</g>
</g>
<defs>
<linearGradient id="paint0_linear_2181_313" x1="423.572" y1="103.951" x2="77.1651" y2="395.417" gradientUnits="userSpaceOnUse">
<stop stop-color="#B6509E"/>
<stop offset="1" stop-color="#2EBAC6"/>
</linearGradient>
<clipPath id="clip0_2181_313">
<rect width="480" height="480" fill="white" transform="translate(10 10)"/>
</clipPath>
</defs>
</svg>
