<svg width="500" height="500" viewBox="0 0 500 500" fill="none" xmlns="http://www.w3.org/2000/svg">
<path d="M53.1406 156.037V344.348C53.1406 356.454 59.4817 367.406 70.0502 373.555L233.189 467.711C243.565 473.667 256.439 473.667 266.816 467.711L429.954 373.555C440.33 367.599 446.864 356.454 446.864 344.348V156.037C446.864 143.932 440.523 132.979 429.954 126.83L266.816 32.6746C256.439 26.7178 243.565 26.7178 233.189 32.6746L70.0502 126.83C59.6739 132.787 53.3328 143.932 53.3328 156.037H53.1406Z" fill="#213147"/>
<path d="M285.46 286.707L262.21 350.502C261.633 352.232 261.633 354.153 262.21 356.075L302.178 465.795L348.487 439.085L292.954 286.707C291.609 283.249 286.805 283.249 285.46 286.707Z" fill="#12AAFF"/>
<path d="M332.154 179.485C330.808 176.026 326.005 176.026 324.66 179.485L301.409 243.28C300.832 245.009 300.832 246.931 301.409 248.852L366.933 428.516L413.242 401.807L332.154 179.677V179.485Z" fill="#12AAFF"/>
<path d="M249.906 39.7838C251.059 39.7838 252.212 40.1681 253.173 40.7446L429.57 142.586C431.684 143.739 432.837 146.045 432.837 148.351V352.034C432.837 354.339 431.492 356.645 429.57 357.798L253.173 459.64C252.212 460.216 251.059 460.6 249.906 460.6C248.753 460.6 247.6 460.216 246.64 459.64L70.2426 357.798C68.1289 356.645 66.976 354.339 66.976 352.034V148.159C66.976 145.853 68.3211 143.547 70.2426 142.394L246.64 40.5524C247.6 39.976 248.753 39.5917 249.906 39.5917V39.7838ZM249.906 10C243.565 10 237.416 11.5372 231.652 14.8038L55.2546 116.645C43.9175 123.179 37 135.092 37 148.159V351.841C37 364.908 43.9175 376.821 55.2546 383.355L231.652 485.196C237.224 488.463 243.565 490 249.906 490C256.247 490 262.396 488.463 268.161 485.196L444.558 383.355C455.895 376.821 462.813 364.908 462.813 351.841V148.159C462.813 135.092 455.895 123.179 444.558 116.645L267.969 14.8038C262.396 11.5372 256.055 10 249.714 10H249.906Z" fill="#9DCCED"/>
<path d="M133.078 428.705L149.411 384.125L182.077 411.219L151.525 439.273L133.078 428.705Z" fill="#213147"/>
<path d="M234.916 133.747H190.144C186.878 133.747 183.803 135.861 182.65 138.935L86.7656 401.801L133.075 428.511L238.759 138.935C239.72 136.245 237.798 133.555 235.108 133.555L234.916 133.747Z" fill="white"/>
<path d="M313.313 133.747H268.541C265.275 133.747 262.2 135.861 261.047 138.935L151.52 439.079L197.829 465.788L316.964 138.935C317.925 136.245 316.003 133.555 313.313 133.555V133.747Z" fill="white"/>
</svg>
