<svg width="500" height="500" viewBox="0 0 500 500" fill="none" xmlns="http://www.w3.org/2000/svg">
<path d="M250 10C382.561 10 490 117.461 490 250C490 382.561 382.561 490 250 490C117.461 490 10 382.55 10 250C10 117.461 117.461 10 250 10Z" fill="#F5AC37"/>
<path d="M258.848 266.943H350.044C351.988 266.943 352.906 266.943 353.046 264.395C353.792 255.117 353.792 245.786 353.046 236.498C353.046 234.694 352.15 233.949 350.195 233.949H168.699C166.453 233.949 165.848 234.694 165.848 236.8V263.498C165.848 266.943 165.848 266.943 169.445 266.943H258.848ZM342.862 202.748C343.121 202.067 343.121 201.322 342.862 200.652C341.339 197.337 339.535 194.172 337.44 191.202C334.287 186.126 330.571 181.45 326.338 177.249C324.34 174.711 322.028 172.432 319.436 170.498C306.455 159.45 291.021 151.631 274.432 147.699C266.062 145.82 257.509 144.924 248.933 144.999H168.386C166.14 144.999 165.837 145.896 165.837 147.851V201.095C165.837 203.342 165.837 203.946 168.689 203.946H341.782C341.782 203.946 343.283 203.644 343.585 202.748H342.851H342.862ZM342.862 298.145C340.313 297.864 337.743 297.864 335.194 298.145H168.851C166.604 298.145 165.848 298.145 165.848 301.147V353.204C165.848 355.602 165.848 356.206 168.851 356.206H245.65C249.322 356.487 252.994 356.228 256.591 355.461C267.736 354.662 278.698 352.243 289.153 348.257C292.955 346.94 296.627 345.223 300.093 343.16H301.141C319.145 333.796 333.768 319.086 342.991 301.029C342.991 301.029 344.039 298.761 342.862 298.167V298.145ZM135.705 383.196V382.299V347.35V335.503V300.251C135.705 298.296 135.705 298.005 133.307 298.005H100.756C98.9522 298.005 98.207 298.005 98.207 295.607V267.105H133.005C134.949 267.105 135.705 267.105 135.705 264.557V236.358C135.705 234.554 135.705 234.111 133.307 234.111H100.756C98.9522 234.111 98.207 234.111 98.207 231.713V205.318C98.207 203.666 98.207 203.223 100.605 203.223H132.854C135.1 203.223 135.705 203.223 135.705 200.372V119.522C135.705 117.124 135.705 116.52 138.707 116.52H251.201C259.366 116.844 267.477 117.74 275.502 119.22C292.037 122.276 307.924 128.184 322.45 136.619C332.083 142.289 340.95 149.136 348.845 157.02C354.785 163.187 360.142 169.861 364.894 176.968C369.614 184.171 373.534 191.872 376.612 199.918C376.99 202.013 378.999 203.428 381.094 203.072H407.943C411.389 203.072 411.389 203.072 411.54 206.376V230.979C411.54 233.377 410.643 233.982 408.235 233.982H387.531C385.436 233.982 384.831 233.982 384.982 236.682C385.803 245.818 385.803 254.988 384.982 264.125C384.982 266.673 384.982 266.976 387.844 266.976H411.529C412.577 268.326 411.529 269.676 411.529 271.037C411.68 272.775 411.68 274.536 411.529 276.275V294.43C411.529 296.979 410.784 297.735 408.527 297.735H380.176C378.2 297.357 376.277 298.62 375.824 300.586C369.074 318.136 358.274 333.872 344.32 346.486C339.222 351.076 333.865 355.396 328.271 359.382C322.266 362.838 316.423 366.434 310.267 369.285C298.938 374.383 287.058 378.141 274.864 380.528C263.287 382.602 251.547 383.541 239.764 383.379H135.662V383.228L135.705 383.196Z" fill="#FEFEFD"/>
</svg>
