<svg width="500" height="500" viewBox="0 0 500 500" fill="none" xmlns="http://www.w3.org/2000/svg">
<g clip-path="url(#clip0_2181_306)">
<path d="M490 10H10V485.414H490V10Z" fill="black"/>
<path d="M247.708 451.937V382.078C240.676 382.078 233.491 381.466 226.459 380.396L215.453 449.339C226.154 451.173 237.007 451.937 247.708 451.937ZM279.81 449.492C290.51 447.81 301.058 445.364 311.3 442.001L289.746 375.504C283.02 377.645 275.988 379.326 268.956 380.396L279.81 449.492ZM184.115 442.001L205.669 375.657C198.943 373.517 192.37 370.766 185.95 367.555L154.154 429.772C163.784 434.511 173.873 438.638 184.115 442.001ZM341.109 429.772C350.74 424.88 359.912 419.224 368.625 412.957L327.351 356.549C321.695 360.676 315.58 364.498 309.16 367.555L341.109 429.772ZM126.638 412.804L167.912 356.396C162.255 352.269 156.752 347.683 151.708 342.638L102.179 392.014C109.822 399.504 118.077 406.536 126.638 412.804ZM392.931 392.32L393.389 391.861C401.033 384.371 408.064 376.116 414.332 367.555L357.771 326.434C353.644 332.09 348.905 337.594 344.013 342.485L343.249 343.25L367.096 365.721L392.931 392.32ZM81.2364 367.402L137.797 326.281C133.669 320.625 129.848 314.511 126.638 308.243L64.2682 339.887C69.1599 349.517 74.816 358.689 81.2364 367.402ZM431.147 340.039C436.039 330.562 440.166 320.473 443.529 310.23L376.88 288.829C374.74 295.555 371.988 302.129 368.778 308.396L431.147 340.039ZM51.886 310.23L118.536 288.676C116.396 281.95 114.714 275.071 113.644 268.039L44.3956 278.893C46.0771 289.441 48.6759 299.988 51.886 310.23ZM451.02 279.046C452.701 268.498 453.619 257.645 453.619 246.944H383.606C383.606 253.976 382.994 261.16 381.924 268.192L451.02 279.046ZM111.962 246.791C111.962 239.759 112.574 232.574 113.644 225.543L44.3956 214.689C42.7141 225.237 41.9497 236.09 41.7969 246.791H111.962ZM381.924 225.695L451.173 214.842C449.491 204.294 447.045 193.746 443.682 183.504L377.033 204.906C379.173 211.785 380.854 218.664 381.924 225.695ZM118.536 204.906C120.676 198.18 123.427 191.606 126.638 185.339L64.2682 153.695C59.3765 163.173 55.2491 173.262 51.886 183.504L118.536 204.906ZM368.931 185.492L431.453 153.848C426.561 144.218 420.905 135.046 414.485 126.332L357.771 167.453C361.899 173.109 365.72 179.224 368.931 185.492ZM137.797 167.301C141.924 161.645 146.663 156.141 151.708 151.097L151.861 150.944L102.332 101.568L102.179 101.721C94.5357 109.364 87.5039 117.466 81.2364 126.18L137.797 167.301ZM344.013 151.402L358.994 136.269L393.389 102.027L393.236 101.874C385.593 94.3834 377.491 87.3515 368.931 81.084L327.657 137.492C333.313 141.619 338.816 146.205 343.708 151.25L344.013 151.402ZM168.064 137.186C173.72 133.059 179.835 129.39 186.255 126.18L154.459 63.963C144.829 68.8547 135.657 74.5108 126.943 80.7783L168.064 137.186ZM309.619 126.332L341.568 64.1159C331.937 59.2241 322.001 55.0968 311.759 51.7337L290.052 118.078C296.625 120.371 303.198 123.122 309.619 126.332ZM205.975 118.078C212.701 115.938 219.733 114.256 226.765 113.186L215.912 44.2433C205.364 45.9248 194.663 48.3706 184.421 51.7337L205.975 118.078ZM269.109 113.186L280.115 44.2433C269.568 42.5617 258.714 41.6445 248.013 41.6445V111.504C255.045 111.504 262.23 112.116 269.109 113.186Z" fill="white"/>
<path d="M247.708 385.286V315.12C241.746 315.12 235.937 314.356 230.128 312.827L211.784 380.547C223.555 383.604 235.631 385.286 247.708 385.286ZM283.631 380.547C295.402 377.489 306.561 372.903 317.109 366.789L281.644 306.101C276.599 309.005 271.096 311.298 265.44 312.827L283.631 380.547ZM178.459 366.789L213.924 306.101C208.88 303.196 204.141 299.528 199.861 295.4L199.249 294.789L176.931 318.177L149.415 344.623L149.873 345.082C158.434 353.489 168.064 360.827 178.459 366.789ZM345.695 345.082C354.256 336.521 361.746 327.043 367.708 316.649L306.408 281.489C303.504 286.534 299.835 291.12 295.555 295.4L345.695 345.082ZM127.708 316.496L189.007 281.489C186.103 276.445 183.81 271.094 182.281 265.438L113.95 283.477C117.007 294.942 121.746 306.101 127.708 316.496ZM381.619 283.629C384.676 272.012 386.357 260.088 386.357 248.165H315.58C315.58 253.973 314.816 259.935 313.287 265.591L381.619 283.629ZM180.141 248.012C180.141 242.203 180.905 236.241 182.434 230.585L113.95 212.547C110.892 224.165 109.211 236.088 109.211 248.012H180.141ZM313.134 230.738L381.619 212.7C378.561 201.082 373.822 189.922 367.861 179.528L306.561 214.534C309.313 219.731 311.606 225.082 313.134 230.738ZM189.16 214.534C192.064 209.642 195.58 204.903 199.861 200.776L200.013 200.623L174.638 175.553L150.332 150.636L149.873 151.094C141.313 159.502 133.975 169.133 127.861 179.375L189.16 214.534ZM295.555 200.776L320.625 175.859L346.306 151.706L345.695 151.094C337.135 142.534 327.504 135.349 317.109 129.235L281.644 189.922C286.689 192.827 291.275 196.343 295.555 200.47V200.776ZM213.924 189.922C218.969 187.018 224.472 184.725 230.128 183.196L212.09 115.477C200.319 118.534 189.16 123.12 178.612 129.235L213.924 189.922ZM265.287 183.349L283.631 115.629C272.013 112.572 259.937 110.891 247.861 110.891V181.056C253.67 181.056 259.631 181.821 265.287 183.349Z" fill="white"/>
</g>
<defs>
<clipPath id="clip0_2181_306">
<rect width="480" height="475.414" fill="white" transform="translate(10 10)"/>
</clipPath>
</defs>
</svg>
