<svg width="500" height="500" viewBox="0 0 500 500" fill="none" xmlns="http://www.w3.org/2000/svg">
<g clip-path="url(#clip0_2181_307)">
<path d="M490 250C490 117.52 382.48 10 250 10C117.52 10 10 117.52 10 250C10 382.48 117.52 490 250 490C382.48 490 490 382.48 490 250Z" fill="#FF0420"/>
<path d="M180.112 313.746C165.712 313.746 154 310.29 144.976 303.57C135.952 296.658 131.344 286.866 131.344 274.386C131.344 271.698 131.728 268.434 132.304 264.594C133.84 255.954 136.144 245.586 139.024 233.298C147.28 200.274 168.4 183.762 202.384 183.762C211.6 183.762 220.048 185.298 227.344 188.562C234.64 191.634 240.4 196.242 244.624 202.386C248.848 208.53 250.96 215.634 250.96 224.082C250.96 226.578 250.576 229.842 250 233.682C248.08 244.434 245.968 254.802 243.472 264.978C239.248 281.49 231.952 293.778 221.584 302.034C211.216 310.098 197.392 314.13 180.112 314.13V313.746ZM182.8 287.826C189.52 287.826 195.28 285.714 199.888 281.874C204.688 277.842 208.144 271.89 210.256 263.634C213.136 252.306 215.248 242.514 216.592 234.066C217.168 231.57 217.36 228.882 217.36 226.194C217.36 215.25 211.6 209.682 200.272 209.682C193.552 209.682 187.792 211.794 182.992 215.634C178.192 219.666 174.928 225.618 172.816 233.874C170.512 241.938 168.4 251.73 166.288 263.442C165.712 265.938 165.52 268.434 165.52 271.122C165.328 282.258 171.28 287.826 182.8 287.826Z" fill="white"/>
<path d="M259.025 312.016C257.681 312.016 256.721 311.632 255.953 310.672C255.377 309.712 255.185 308.56 255.377 307.408L280.337 190.288C280.529 188.944 281.297 187.792 282.449 187.024C283.601 186.064 284.753 185.68 285.905 185.68H333.905C347.345 185.68 357.905 188.56 365.969 193.936C374.225 199.504 378.257 207.568 378.257 217.936C378.257 221.008 377.873 224.08 377.105 227.344C374.033 241.168 368.081 251.344 358.865 258.064C349.841 264.784 337.361 268.048 321.617 268.048H297.233L288.977 307.6C288.593 308.944 288.017 310.096 286.865 310.864C285.713 311.824 284.561 312.208 283.409 312.208H258.833L259.025 312.016ZM322.769 243.088C327.953 243.088 332.177 241.744 336.017 238.864C339.857 235.984 342.353 232.144 343.697 226.96C344.081 224.848 344.273 223.12 344.273 221.584C344.273 218.128 343.121 215.44 341.201 213.52C339.089 211.6 335.633 210.64 330.641 210.64H308.945L302.033 242.896H322.769V243.088Z" fill="white"/>
</g>
<defs>
<clipPath id="clip0_2181_307">
<rect width="480" height="480" fill="white" transform="translate(10 10)"/>
</clipPath>
</defs>
</svg>
