<svg width="480" height="480" viewBox="0 0 480 480" fill="none" xmlns="http://www.w3.org/2000/svg">
<mask id="mask0_2181_311" style="mask-type:luminance" maskUnits="userSpaceOnUse" x="0" y="0" width="480" height="480">
<path d="M480 0H0V480H480V0Z" fill="white"/>
</mask>
<g mask="url(#mask0_2181_311)">
<path d="M240 480C372.548 480 480 372.548 480 240C480 107.452 372.548 0 240 0C107.452 0 0 107.452 0 240C0 372.548 107.452 480 240 480Z" fill="url(#paint0_radial_2181_311)"/>
<mask id="mask1_2181_311" style="mask-type:alpha" maskUnits="userSpaceOnUse" x="0" y="0" width="480" height="480">
<path d="M240 480C372.548 480 480 372.548 480 240C480 107.452 372.548 0 240 0C107.452 0 0 107.452 0 240C0 372.548 107.452 480 240 480Z" fill="url(#paint1_radial_2181_311)"/>
</mask>
<g mask="url(#mask1_2181_311)">
<path opacity="0.2" d="M-8 131.998C-8 126.697 -3.70194 122.398 1.6 122.398H132.8C138.102 122.398 142.4 126.697 142.4 131.998V355.198C142.4 360.5 138.102 364.798 132.8 364.798H1.6C-3.70194 364.798 -8 360.5 -8 355.198V131.998Z" fill="url(#paint2_linear_2181_311)"/>
<path opacity="0.2" d="M289.598 325.6C289.598 320.298 293.896 316 299.198 316H470.398C475.699 316 479.998 320.298 479.998 325.6V408.8C479.998 414.102 475.699 418.4 470.398 418.4H299.198C293.896 418.4 289.598 414.102 289.598 408.8V325.6Z" fill="#E74310"/>
<path opacity="0.2" d="M400.8 351.199C406.102 351.199 410.4 355.498 410.4 360.799V522.399C410.4 527.701 406.102 531.999 400.8 531.999H337.6C332.298 531.999 328 527.701 328 522.399V360.799C328 355.498 332.298 351.199 337.6 351.199H400.8Z" fill="#DF3600"/>
<path opacity="0.1" d="M194.398 156C199.699 156 203.998 160.298 203.998 165.6V294.4C203.998 299.702 199.699 304 194.398 304H123.198C117.896 304 113.598 299.702 113.598 294.4V165.6C113.598 160.298 117.896 156 123.198 156H194.398Z" fill="url(#paint3_linear_2181_311)"/>
<path opacity="0.1" d="M45.5977 194.397C45.5977 189.095 49.8957 184.797 55.1977 184.797H171.998C177.299 184.797 181.598 189.095 181.598 194.397V316.797C181.598 322.098 177.299 326.397 171.998 326.397H55.1977C49.8957 326.397 45.5977 322.098 45.5977 316.797V194.397Z" fill="url(#paint4_linear_2181_311)"/>
<path opacity="0.2" d="M479.998 65.5977C485.299 65.5977 489.598 69.8957 489.598 75.1977V236.798C489.598 242.099 485.299 246.398 479.998 246.398H331.198C325.896 246.398 321.598 242.099 321.598 236.798V75.1977C321.598 69.8957 325.896 65.5977 331.198 65.5977H479.998Z" fill="#FF9776"/>
<path opacity="0.2" d="M389.601 -41.6016C394.902 -41.6016 399.201 -37.3035 399.201 -32.0016V145.598C399.201 150.9 394.902 155.198 389.601 155.198H306.401C301.099 155.198 296.801 150.9 296.801 145.598V-32.0016C296.801 -37.3035 301.099 -41.6016 306.401 -41.6016H389.601Z" fill="#FFCA8C"/>
<path opacity="0.2" d="M432.798 -9.60156C438.1 -9.60156 442.398 -5.30349 442.398 -0.00155396V197.598C442.398 202.9 438.1 207.198 432.798 207.198H251.998C246.697 207.198 242.398 202.9 242.398 197.598V-0.00155702C242.398 -5.30349 246.697 -9.60156 251.998 -9.60156H432.798Z" fill="url(#paint5_linear_2181_311)"/>
<path opacity="0.1" d="M169.601 -65.6016C174.902 -65.6016 179.201 -61.3035 179.201 -56.0016V76.7984C179.201 82.1 174.902 86.3984 169.601 86.3984H106.401C101.099 86.3984 96.8008 82.1 96.8008 76.7984V-56.0016C96.8008 -61.3035 101.099 -65.6016 106.401 -65.6016H169.601Z" fill="#DF3600"/>
<path opacity="0.1" d="M176.798 346.398C182.1 346.398 186.398 350.697 186.398 355.998V470.398C186.398 475.7 182.1 479.998 176.798 479.998H15.9984C10.6965 479.998 6.39844 475.7 6.39844 470.398L6.39845 355.998C6.39845 350.697 10.6965 346.398 15.9984 346.398H176.798Z" fill="#DF3600"/>
<path opacity="0.1" d="M318.401 282.398C323.702 282.398 328.001 286.697 328.001 291.998V470.398C328.001 475.7 323.702 479.998 318.401 479.998H134.401C129.099 479.998 124.801 475.7 124.801 470.398V291.998C124.801 286.697 129.099 282.398 134.401 282.398H318.401Z" fill="#FFD494"/>
<path opacity="0.2" d="M257.6 8.39256e-06C262.902 8.62432e-06 267.2 4.29807 267.2 9.6V56C267.2 61.3019 262.902 65.6 257.6 65.6H65.6C60.2981 65.6 56 61.3019 56 56V9.6C56 4.29806 60.2981 -2.31755e-07 65.6 0L257.6 8.39256e-06Z" fill="#FFD494"/>
<path opacity="0.1" d="M106.199 475.324L465.727 115.797L453.396 103.466L93.869 462.993L106.199 475.324Z" fill="#DF3600"/>
<path opacity="0.1" d="M79.2269 449.156L438.754 89.6289L422.7 73.575L63.173 433.102L79.2269 449.156Z" fill="#DF3600"/>
<path opacity="0.1" d="M64.0511 432.379L423.578 72.8516L407.524 56.7977L47.9972 416.325L64.0511 432.379Z" fill="#F45C2C"/>
<path opacity="0.2" d="M49.6527 414.781L409.18 55.2539L395.967 42.0412L36.44 401.568L49.6527 414.781Z" fill="#F45C2C"/>
<path opacity="0.1" d="M36.4105 401.539L395.938 42.0117L382.725 28.799L23.1978 388.326L36.4105 401.539Z" fill="#FFBC6E"/>
<path opacity="0.1" d="M27.6136 383.937L387.141 24.4102L373.928 11.1974L14.4009 370.724L27.6136 383.937Z" fill="#DF3600"/>
<path opacity="0.09" d="M-14.7873 278.338L268.703 -5.15234L255.49 -18.3651L-28 265.125L-14.7873 278.338Z" fill="#FFD5A4"/>
<path opacity="0.08" d="M-29.9865 262.303L253.504 -21.1875L240.291 -34.4002L-43.1992 249.09L-29.9865 262.303Z" fill="#FFD5A4"/>
<path opacity="0.05" d="M-43.5881 243.901L239.902 -39.5898L226.69 -52.8026L-56.8008 230.688L-43.5881 243.901Z" fill="#FFD5A4"/>
<path opacity="0.2" d="M7.60996 316.867L336.867 -12.3906L323.654 -25.6033L-5.60275 303.654L7.60996 316.867Z" fill="#FFD5A4"/>
<path opacity="0.2" d="M16.4107 337.667L345.668 8.41016L332.455 -4.80256L3.19803 324.455L16.4107 337.667Z" fill="#FFD5A4"/>
<path opacity="0.1" d="M2.01197 292.738L294.238 0.511719L281.026 -12.701L-11.2007 279.525L2.01197 292.738Z" fill="#FFD5A4"/>
<path opacity="0.1" d="M105.668 475.593L465.195 116.066L438.835 89.7064L79.3083 449.233L105.668 475.593Z" fill="#DF3600"/>
<path opacity="0.1" d="M105.668 475.593L465.195 116.066L438.701 89.5721L79.174 449.099L105.668 475.593Z" fill="#DF3600"/>
</g>
<path d="M239.643 291.784L148.332 237.768L239.643 86.293L330.873 237.768L239.643 291.784Z" fill="white"/>
<path d="M239.643 383.751L148.332 255.145L239.643 309.079L330.955 255.145L239.643 383.751Z" fill="white"/>
</g>
<defs>
<radialGradient id="paint0_radial_2181_311" cx="0" cy="0" r="1" gradientUnits="userSpaceOnUse" gradientTransform="translate(156.8 114.8) rotate(54.1675) scale(397.666)">
<stop stop-color="#FFD794"/>
<stop offset="1" stop-color="#ED5A37"/>
</radialGradient>
<radialGradient id="paint1_radial_2181_311" cx="0" cy="0" r="1" gradientUnits="userSpaceOnUse" gradientTransform="translate(156.8 114.8) rotate(54.1675) scale(397.666)">
<stop stop-color="#FFD794"/>
<stop offset="1" stop-color="#ED5A37"/>
</radialGradient>
<linearGradient id="paint2_linear_2181_311" x1="67.2" y1="122.398" x2="67.2" y2="364.798" gradientUnits="userSpaceOnUse">
<stop stop-color="#FFE090"/>
<stop offset="1" stop-color="#FFE090" stop-opacity="0"/>
</linearGradient>
<linearGradient id="paint3_linear_2181_311" x1="158.398" y1="156" x2="158.398" y2="292.8" gradientUnits="userSpaceOnUse">
<stop stop-color="#DF3600"/>
<stop offset="1" stop-color="#DF3600" stop-opacity="0"/>
</linearGradient>
<linearGradient id="paint4_linear_2181_311" x1="45.5977" y1="256.223" x2="171.306" y2="256.223" gradientUnits="userSpaceOnUse">
<stop stop-color="#DF3600"/>
<stop offset="1" stop-color="#DF3600" stop-opacity="0"/>
</linearGradient>
<linearGradient id="paint5_linear_2181_311" x1="342.398" y1="-9.60156" x2="342.398" y2="207.198" gradientUnits="userSpaceOnUse">
<stop stop-color="#DF3600"/>
<stop offset="1" stop-color="#DF3600" stop-opacity="0"/>
</linearGradient>
</defs>
</svg>
