<svg width="500" height="500" viewBox="0 0 500 500" fill="none" xmlns="http://www.w3.org/2000/svg">
<g clip-path="url(#clip0_2181_308)">
<path d="M109.383 226L105.69 231.538C63.2289 298 72.4597 384.769 129.69 440.154C161.075 473.385 205.383 490 249.69 490C249.69 490 249.69 490 109.383 226Z" fill="#00A3FF"/>
<path opacity="0.6" d="M249.691 305.383L109.383 224.152C249.691 489.999 249.691 489.999 249.691 489.999C249.691 432.768 249.691 366.306 249.691 305.383Z" fill="#00A3FF"/>
<path opacity="0.6" d="M389.999 226L393.691 231.538C436.153 298 426.922 384.769 369.691 440.154C336.461 473.385 293.999 490 249.691 490C249.691 490 249.691 490 389.999 226Z" fill="#00A3FF"/>
<path opacity="0.2" d="M249.691 305.383L389.999 224.152C249.691 489.999 249.691 489.999 249.691 489.999C249.691 432.768 249.691 366.306 249.691 305.383Z" fill="#00A3FF"/>
<path opacity="0.2" d="M249.691 126.309V264.77L371.538 196.462L249.691 126.309Z" fill="#00A3FF"/>
<path opacity="0.6" d="M249.694 126.309L127.848 196.462L249.694 264.77V126.309Z" fill="#00A3FF"/>
<path d="M249.694 10L127.848 196.462L249.694 126.308V10Z" fill="#00A3FF"/>
<path opacity="0.6" d="M249.691 126.308L371.538 196.462L249.691 10V126.308Z" fill="#00A3FF"/>
</g>
<defs>
<clipPath id="clip0_2181_308">
<rect width="343.385" height="480" fill="white" transform="translate(78 10)"/>
</clipPath>
</defs>
</svg>
