<svg width="480" height="480" viewBox="0 0 480 480" fill="none" xmlns="http://www.w3.org/2000/svg">
<g clip-path="url(#clip0_2178_59)">
<path d="M240 480C373.001 480 480 373.001 480 240C480 106.999 373.001 0 240 0C106.999 0 0 106.999 0 240C0 373.001 106.999 480 240 480Z" fill="#2775CA"/>
<path d="M305.999 278C305.999 243.001 284.999 231.001 242.999 226.002C212.999 222.001 206.999 214.002 206.999 200C206.999 185.998 217 177.001 236.999 177.001C254.999 177.001 265 183.001 269.999 198.001C271 201.001 274 203 277 203H292.998C296.999 203 299.999 200 299.999 196.002V195.001C295.998 173 277.998 156.001 254.999 154.002V130.002C254.999 126.001 251.999 123.001 247 122H232C227.999 122 224.999 125 223.998 130.002V153.001C193.998 157.002 175 177.001 175 202.002C175 235.002 194.999 248 236.999 253.002C265 258.001 274 264.001 274 280.002C274 296.002 259.998 307.002 241 307.002C214.998 307.002 205.998 296 202.998 281C202 277.002 199 275 196 275H178.998C175 275 172 278 172 282.001V283.002C175.998 308 191.999 326 224.999 331.002V355.002C224.999 359 227.999 362 232.998 363.001H247.998C251.999 363.001 254.999 360.001 256 355.002V331.002C286 326 305.999 305 305.999 278Z" fill="white"/>
<path d="M189 382.998C111 355 70.9992 268 100.001 190.998C115.001 148.998 148.001 116.999 189 101.999C193.001 100 195 97 195 91.9984V77.9992C195 73.9984 193.001 70.9984 189 70C187.999 70 186 70 184.999 70.9984C90 100.998 37.9992 202 67.9992 296.999C85.9992 352.998 129 395.999 184.999 413.999C189 415.998 193.001 413.999 193.999 409.998C195 409 195 407.999 195 406V391.998C195 388.998 192 385 189 382.998ZM295.001 70.9984C291 68.9992 286.999 70.9984 286.001 74.9992C285 76 285 76.9984 285 79V92.9992C285 97 288 100.998 291 103C369 130.998 409.001 217.998 379.999 295C364.999 337 331.999 368.999 291 383.999C286.999 385.998 285 388.998 285 394V407.999C285 412 286.999 415 291 415.998C292.001 415.998 294 415.998 295.001 415C390 385 442.001 283.998 412.001 188.999C394.001 131.999 349.999 88.9984 295.001 70.9984Z" fill="white"/>
</g>
<defs>
<clipPath id="clip0_2178_59">
<rect width="480" height="480" fill="white"/>
</clipPath>
</defs>
</svg>
