<svg width="500" height="500" viewBox="0 0 500 500" fill="none" xmlns="http://www.w3.org/2000/svg">
<path fill-rule="evenodd" clip-rule="evenodd" d="M98.0245 43.0541L10.3604 227.193C10.0268 227.878 9.92111 228.651 10.0587 229.401C10.1964 230.15 10.5701 230.836 11.1253 231.357L247.885 458.23C248.557 458.875 249.453 459.235 250.385 459.235C251.317 459.235 252.213 458.875 252.885 458.23L489.645 231.371C490.2 230.85 490.574 230.164 490.711 229.415C490.849 228.666 490.743 227.892 490.41 227.207L402.745 43.0683C402.463 42.4499 402.008 41.926 401.435 41.5593C400.862 41.1925 400.196 40.9985 399.516 41.0003H101.282C100.599 40.9918 99.9279 41.1812 99.3498 41.5456C98.7717 41.91 98.3115 42.4339 98.0245 43.0541Z" fill="#50AF95"/>
<path fill-rule="evenodd" clip-rule="evenodd" d="M280.9 246.197C279.201 246.324 270.419 246.848 250.829 246.848C235.248 246.848 224.186 246.381 220.305 246.197C160.092 243.548 115.148 233.066 115.148 220.516C115.148 207.967 160.092 197.499 220.305 194.808V235.757C224.243 236.041 235.517 236.706 251.098 236.706C269.795 236.706 279.158 235.927 280.844 235.771V194.836C340.929 197.513 385.774 207.995 385.774 220.516C385.774 233.038 340.944 243.519 280.844 246.182L280.9 246.197ZM280.9 190.601V153.957H364.754V98.0781H136.451V153.957H220.291V190.587C152.145 193.717 100.898 207.216 100.898 223.392C100.898 239.568 152.145 253.052 220.291 256.197V373.621H280.886V256.154C348.876 253.024 400.038 239.539 400.038 223.378C400.038 207.216 348.918 193.731 280.886 190.587L280.9 190.601Z" fill="white"/>
</svg>
