<svg width="500" height="500" viewBox="0 0 500 500" fill="none" xmlns="http://www.w3.org/2000/svg">
<g clip-path="url(#clip0_2179_96)">
<path fill-rule="evenodd" clip-rule="evenodd" d="M250 10C382.558 10 490 117.442 490 250C490 382.558 382.558 490 250 490C117.442 490 10 382.558 10 250C10 117.442 117.442 10 250 10Z" fill="#F0B90B"/>
<path d="M141.904 249.998L142.077 313.46L196 345.191V382.344L110.519 332.21V231.441L141.904 249.998ZM141.904 186.537V223.517L110.5 204.941V167.96L141.904 149.383L173.462 167.96L141.904 186.537ZM218.519 167.96L249.923 149.383L281.481 167.96L249.923 186.537L218.519 167.96Z" fill="white"/>
<path d="M164.598 300.306V263.152L196.001 281.729V318.71L164.598 300.306ZM218.521 358.498L249.925 377.075L281.482 358.498V395.479L249.925 414.056L218.521 395.479V358.498ZM326.521 167.96L357.925 149.383L389.482 167.96V204.941L357.925 223.517V186.537L326.521 167.96ZM357.925 313.46L358.098 249.998L389.501 231.421V332.191L304.021 382.325V345.171L357.925 313.46Z" fill="white"/>
<path d="M335.404 300.306L304 318.71V281.729L335.404 263.152V300.306Z" fill="white"/>
<path d="M335.405 199.691L335.578 236.845L281.502 268.576V332.191L250.098 350.595L218.694 332.191V268.576L164.617 236.845V199.691L196.155 181.114L249.905 212.999L303.982 181.114L335.54 199.691H335.405ZM164.598 136.249L249.925 85.9414L335.405 136.249L304.001 154.826L249.925 122.941L196.001 154.826L164.598 136.249Z" fill="white"/>
</g>
<defs>
<clipPath id="clip0_2179_96">
<rect width="480" height="480" fill="white" transform="translate(10 10)"/>
</clipPath>
</defs>
</svg>
