<svg width="500" height="500" viewBox="0 0 500 500" fill="none" xmlns="http://www.w3.org/2000/svg">
<g clip-path="url(#clip0_2182_326)">
<path d="M401.391 110.737L388.211 123.917C419.66 158.308 437.099 203.223 437.099 249.826C437.099 296.428 419.66 341.343 388.211 375.734L401.391 388.914C436.365 350.978 455.782 301.27 455.782 249.672C455.782 198.074 436.365 148.366 401.391 110.43V110.737Z" fill="#5A5564"/>
<path d="M124.221 111.88C158.613 80.4311 203.528 62.9912 250.13 62.9912C296.733 62.9912 341.648 80.4311 376.039 111.88L389.219 98.7001C351.283 63.7259 301.574 44.3086 249.977 44.3086C198.379 44.3086 148.67 63.7259 110.734 98.7001L124.221 111.88Z" fill="#5A5564"/>
<path d="M111.88 375.865C80.4683 341.482 63.0514 296.594 63.0514 250.023C63.0514 203.451 80.4683 158.563 111.88 124.18L98.7001 111C63.7259 148.936 44.3086 198.644 44.3086 250.242C44.3086 301.84 63.7259 351.548 98.7001 389.484L111.88 375.865Z" fill="#5A5564"/>
<path d="M375.864 388.035C341.473 419.484 296.558 436.924 249.956 436.924C203.353 436.924 158.438 419.484 124.047 388.035L110.867 401.215C148.803 436.189 198.512 455.606 250.109 455.606C301.707 455.606 351.415 436.189 389.352 401.215L375.864 388.035Z" fill="#5A5564"/>
<path d="M333.206 206.025C330.571 178.524 306.847 169.298 276.842 166.486V128.617H253.646V165.784C247.539 165.784 241.301 165.784 235.107 165.784V128.617H212.086V166.75H165.035V191.572C165.035 191.572 182.169 191.264 181.905 191.572C184.994 191.232 188.095 192.104 190.553 194.006C193.012 195.907 194.636 198.688 195.085 201.764V306.146C195.019 307.231 194.736 308.291 194.253 309.264C193.77 310.238 193.097 311.105 192.273 311.813C191.465 312.535 190.519 313.087 189.492 313.434C188.465 313.781 187.379 313.917 186.298 313.834C186.606 314.098 169.428 313.834 169.428 313.834L165.035 341.555H211.647V380.303H234.843V342.126H253.382V380.127H276.622V341.819C315.809 339.446 343.135 329.781 346.562 293.098C349.329 263.576 335.447 250.396 313.261 245.081C326.748 238.447 335.096 226.146 333.206 206.025ZM300.697 288.529C300.697 317.349 251.317 314.054 235.59 314.054V262.917C251.317 262.961 300.697 258.436 300.697 288.529ZM289.934 216.481C289.934 242.84 248.725 239.633 235.634 239.633V193.153C248.725 193.153 289.934 189.024 289.934 216.481Z" fill="#F09242"/>
<path d="M249.956 490C202.492 489.991 156.097 475.909 116.636 449.534C77.1748 423.16 46.4202 385.676 28.2606 341.824C10.101 297.971 5.35193 249.719 14.6138 203.168C23.8756 156.616 46.7325 113.856 80.2945 80.2945C113.856 46.7325 156.616 23.8756 203.168 14.6138C249.719 5.35193 297.971 10.101 341.824 28.2606C385.676 46.4202 423.16 77.1748 449.534 116.636C475.909 156.097 489.991 202.492 490 249.956C490.006 281.481 483.801 312.698 471.74 341.824C459.678 370.95 441.997 397.414 419.706 419.706C397.414 441.997 370.95 459.678 341.824 471.74C312.698 483.801 281.481 490.006 249.956 490ZM249.956 28.7151C206.227 28.7498 163.491 41.7476 127.147 66.0654C90.8036 90.3833 62.4852 124.93 45.771 165.338C29.0568 205.746 24.6972 250.203 33.2431 293.088C41.7891 335.974 62.857 375.363 93.784 406.278C124.711 437.193 164.109 458.245 206.998 466.774C249.887 475.303 294.341 470.926 334.743 454.196C375.145 437.465 409.68 409.133 433.984 372.78C458.287 336.427 471.268 293.685 471.285 249.956C471.297 220.892 465.579 192.11 454.459 165.257C443.339 138.404 427.036 114.006 406.48 93.4582C385.924 72.9107 361.52 56.6165 334.662 45.5073C307.805 34.3982 279.021 28.692 249.956 28.7151Z" fill="#282138"/>
</g>
<defs>
<clipPath id="clip0_2182_326">
<rect width="480" height="480" fill="white" transform="translate(10 10)"/>
</clipPath>
</defs>
</svg>
