<svg width="500" height="500" viewBox="0 0 500 500" fill="none" xmlns="http://www.w3.org/2000/svg">
<path d="M373.446 168.086C364.674 163.073 353.394 163.073 343.368 168.086L273.185 209.444L225.561 235.762L156.632 277.12C147.859 282.133 136.58 282.133 126.554 277.12L72.6632 244.535C63.8903 239.522 57.624 229.496 57.624 218.217V155.554C57.624 145.527 62.6371 135.501 72.6632 129.235L126.554 97.9034C135.326 92.8903 146.606 92.8903 156.632 97.9034L210.522 130.488C219.295 135.501 225.561 145.527 225.561 156.807V198.165L273.185 170.593V127.982C273.185 117.956 268.172 107.93 258.146 101.663L157.885 42.7598C149.112 37.7467 137.833 37.7467 127.807 42.7598L25.0392 102.916C15.0131 107.93 10 117.956 10 127.982V245.789C10 255.815 15.0131 265.841 25.0392 272.107L126.554 331.01C135.326 336.024 146.606 336.024 156.632 331.01L225.561 290.906L273.185 263.334L342.115 223.23C350.888 218.217 362.167 218.217 372.193 223.23L426.084 254.561C434.856 259.574 441.123 269.601 441.123 280.88V343.543C441.123 353.569 436.11 363.595 426.084 369.862L373.446 401.193C364.674 406.206 353.394 406.206 343.368 401.193L289.478 369.862C280.705 364.849 274.439 354.822 274.439 343.543V303.439L226.815 331.01V372.368C226.815 382.394 231.828 392.42 241.854 398.687L343.368 457.59C352.141 462.603 363.42 462.603 373.446 457.59L474.961 398.687C483.734 393.674 490 383.648 490 372.368V253.308C490 243.282 484.987 233.256 474.961 226.99L373.446 168.086Z" fill="#8247E5"/>
</svg>
